<svg width="81" height="24" viewBox="0 0 81 24" fill="none" xmlns="http://www.w3.org/2000/svg">
<path d="M47.0242 20.986C49.1833 20.986 50.9336 19.2357 50.9336 17.0765C50.9336 14.9174 49.1833 13.1671 47.0242 13.1671C44.8651 13.1671 43.1147 14.9174 43.1147 17.0765C43.1147 19.2357 44.8651 20.986 47.0242 20.986Z" fill="#9A1725"/>
<path d="M43.5493 5.91899C44.9738 5.91899 46.1285 4.76427 46.1285 3.33986C46.1285 1.91544 44.9738 0.760727 43.5493 0.760727C42.1249 0.760727 40.9702 1.91544 40.9702 3.33986C40.9702 4.76427 42.1249 5.91899 43.5493 5.91899Z" fill="#F1592A"/>
<path d="M37.7909 4.23531C38.9605 4.23531 39.9085 3.28723 39.9085 2.11771C39.9085 0.948186 38.9605 0.000106812 37.7909 0.000106812C36.6214 0.000106812 35.6733 0.948186 35.6733 2.11771C35.6733 3.28723 36.6214 4.23531 37.7909 4.23531Z" fill="#F8931D"/>
<path d="M32.7941 5.78341C33.8736 5.78341 34.7488 4.90826 34.7488 3.8287C34.7488 2.74915 33.8736 1.87399 32.7941 1.87399C31.7145 1.87399 30.8394 2.74915 30.8394 3.8287C30.8394 4.90826 31.7145 5.78341 32.7941 5.78341Z" fill="#FCB040"/>
<path d="M30.3515 9.06839C31.2211 9.06839 31.9261 8.3634 31.9261 7.49376C31.9261 6.62411 31.2211 5.91913 30.3515 5.91913C29.4818 5.91913 28.7769 6.62411 28.7769 7.49376C28.7769 8.3634 29.4818 9.06839 30.3515 9.06839Z" fill="#FECB56"/>
<path d="M50.6047 8.824C50.6047 9.55701 50.3332 10.2086 49.8988 10.7244C49.383 11.3217 48.5956 11.7018 47.7269 11.7018C46.6952 11.7018 45.7722 11.1588 45.2564 10.3172C44.9849 9.8828 44.8491 9.36697 44.8491 8.824C44.8491 7.24937 46.1251 5.94623 47.7269 5.94623C49.3287 5.94623 50.6047 7.22222 50.6047 8.824Z" fill="#EE4037"/>
<path d="M12.4613 10.0723C11.7011 10.0723 11.0767 10.6696 11.0495 11.4297C9.90929 10.5881 8.47041 10.0723 6.92293 10.0723C3.09496 10.0723 0 13.1673 0 16.9952C0 20.8232 3.09496 23.9182 6.92293 23.9182C8.47041 23.9182 9.88214 23.4024 11.0495 22.5607C11.0495 22.5607 11.0495 22.5607 11.0495 22.5879C11.0495 23.3752 11.674 23.9996 12.4613 23.9996C13.2486 23.9996 13.873 23.348 13.873 22.5879V11.484C13.873 10.7239 13.2486 10.0723 12.4613 10.0723ZM6.89578 21.0947C4.64244 21.0947 2.82347 19.2757 2.82347 17.0224C2.82347 14.769 4.64244 12.9501 6.89578 12.9501C9.14913 12.9501 10.9681 14.769 10.9681 17.0224C10.9681 19.2757 9.17628 21.0947 6.89578 21.0947Z" fill="black"/>
<path d="M58.9934 10.0724C57.5545 10.0724 56.2242 10.5068 55.1111 11.2669V7.49324C55.1111 6.67878 54.4324 6.00006 53.6179 6.00006C52.8035 6.00006 52.1248 6.67878 52.1248 7.49324V12.3529C52.4505 12.7058 52.7492 13.113 52.9935 13.5203C53.5908 14.5519 53.9437 15.7465 53.9437 16.9953C53.9437 18.2713 53.5908 19.4658 52.9935 20.4703C52.7492 20.9047 52.4505 21.2848 52.1248 21.6377V22.4794C52.1248 23.2938 52.8035 23.9454 53.6179 23.9454C54.351 23.9454 54.9754 23.4024 55.084 22.6965C56.1971 23.4567 57.5274 23.8911 58.9662 23.8911C62.7942 23.8911 65.8892 20.7961 65.8892 16.9682C65.9435 13.1945 62.8214 10.0724 58.9934 10.0724ZM58.9934 21.0948C57.2016 21.0948 55.6541 19.9274 55.1111 18.2984C54.9754 17.8912 54.8939 17.4568 54.8939 16.9953C54.8939 16.5338 54.9754 16.0994 55.1111 15.6922C55.6541 14.0632 57.1744 12.8958 58.9934 12.8958C61.2467 12.8958 63.0657 14.7148 63.0657 16.9682C63.0657 19.2215 61.2467 21.0948 58.9934 21.0948Z" fill="black"/>
<path d="M73.7603 10.0723C69.9324 10.0723 66.8374 13.1673 66.8374 16.9952C66.8374 20.8232 69.9324 23.9182 73.7603 23.9182C77.5883 23.9182 80.6833 20.8232 80.6833 16.9952C80.6833 13.1944 77.5883 10.0723 73.7603 10.0723ZM73.7603 21.0947C71.507 21.0947 69.688 19.2757 69.688 17.0224C69.688 14.769 71.507 12.9501 73.7603 12.9501C76.0137 12.9501 77.8326 14.769 77.8326 17.0224C77.8326 19.2757 76.0137 21.0947 73.7603 21.0947Z" fill="black"/>
<path d="M19.137 10.5344C19.2456 10.5072 19.3542 10.5072 19.4356 10.5072C20.2229 10.5072 20.8473 11.1588 20.8473 11.919C20.8473 12.7063 20.2229 13.3307 19.4356 13.3307C19.2727 13.3307 19.1098 13.3035 18.9469 13.2492V22.4798C18.9469 23.2943 18.2682 23.973 17.4537 23.973C16.6393 23.973 15.9606 23.2943 15.9606 22.4798V13.3307C15.1732 13.3307 14.5488 12.6791 14.5488 11.919C14.5488 11.1316 15.2004 10.5072 15.9606 10.5072C15.9606 10.5072 16.1506 5.83764 20.2501 5.91908C21.0917 5.91908 21.7704 6.5978 21.7704 7.43941C21.7704 8.28103 21.0917 8.95975 20.2772 8.95975C20.2501 8.95975 20.2229 8.95975 20.1686 8.95975C19.8971 8.9869 19.1098 9.17693 19.137 10.5344Z" fill="black"/>
<path d="M28.1776 11.9731C28.1776 12.7876 27.526 13.4391 26.7115 13.4391C26.6029 13.4391 24.6754 13.4663 24.6754 15.8825V22.5068C24.6754 23.3213 23.9967 24 23.1822 24C22.3677 24 21.689 23.3213 21.689 22.5068V12.2446C21.6619 12.1631 21.6619 12.0817 21.6619 11.9731C21.6619 11.1858 22.2863 10.5614 23.0736 10.5614C23.8609 10.5614 24.4853 11.2129 24.4853 11.9731C24.4853 12.0546 24.4853 12.1089 24.4582 12.1903C25.517 10.2627 26.6029 10.4799 26.6572 10.4799C27.526 10.5071 28.1776 11.1586 28.1776 11.9731Z" fill="black"/>
<path d="M31.7627 11.9187V22.5068C31.7627 23.2941 31.1383 23.9185 30.3509 23.9185C29.5636 23.9185 28.9392 23.2669 28.9392 22.5068V11.9187C28.9392 11.1314 29.5636 10.507 30.3509 10.507C31.1383 10.507 31.7627 11.1314 31.7627 11.9187Z" fill="black"/>
<path d="M43.7647 23.6191C43.6561 23.7548 41.6471 23.6734 41.6471 23.6734C41.6471 23.6734 41.3213 23.5919 40.8598 22.9947L40.5883 22.5874L36.9775 17.3206V22.506C36.9775 23.2933 36.326 23.9177 35.5658 23.9177C34.7785 23.9177 34.1541 23.2662 34.1541 22.506V7.89995C34.1541 7.11264 34.8056 6.48822 35.5658 6.48822C36.3531 6.48822 36.9775 7.11264 36.9775 7.89995V16.6962L40.5069 11.565C40.7783 11.2664 41.4299 10.642 42.5159 10.5062C43.8462 10.3433 43.6018 10.9135 43.5475 11.0221C41.4842 12.2166 40.0996 14.47 40.0996 17.0219C40.0996 19.6825 41.5928 21.9902 43.7919 23.1576C43.7919 23.1576 43.7919 23.1576 43.819 23.1576C43.819 23.2662 43.8462 23.5105 43.7647 23.6191Z" fill="black"/>
</svg>
