<svg width="80" height="80" viewBox="0 0 80 80" fill="none" xmlns="http://www.w3.org/2000/svg">
<path d="M0 16C0 7.16344 7.16344 0 16 0H64C72.8366 0 80 7.16344 80 16V64C80 72.8366 72.8366 80 64 80H16C7.16344 80 0 72.8366 0 64V16Z" fill="#02A89E"/>
<path d="M55.8278 28.0574V27.933C55.7033 25.9426 54.0447 24.3668 52.0542 24.3668H26.8006C24.7687 24.3668 23.1515 25.9426 23.0271 27.933V28.0989L22.9442 30.0478C24.9346 31.9968 28.6667 33.8214 35.5502 34.7337C35.5502 34.7337 47.244 36.1021 56.5327 43.8565L55.8278 28.0574ZM29.9522 28.5136C29.2472 28.5136 28.6667 27.933 28.6667 27.2281C28.6667 26.5231 29.2472 25.9426 29.9522 25.9426C30.6571 25.9426 31.2376 26.5231 31.2376 27.2281C31.2376 27.933 30.6571 28.5136 29.9522 28.5136ZM47.9904 28.5136C47.2855 28.5136 46.7049 27.933 46.7049 27.2281C46.7049 26.5231 47.2855 25.9426 47.9904 25.9426C48.6954 25.9426 49.2759 26.5231 49.2759 27.2281C49.2759 27.933 48.7368 28.5136 47.9904 28.5136Z" fill="white"/>
<path d="M57.6108 60.4019C57.4035 60.7337 57.1547 61.0654 56.8644 61.3971C53.7544 65.0877 48.2392 66 43.6778 66H30.118C35.0941 65.6268 41.0654 64.8389 44.5901 60.8995C46.1659 59.1164 47.244 56.7528 47.0782 54.3892C46.8708 51.9841 45.5024 49.9107 43.9681 48.1691C41.1898 45.059 37.6651 42.6539 34.2233 40.3317C28.0861 36.2679 24.8517 34.6507 22.7783 32.5774C22.2392 32.0383 21.7831 31.4577 21.3684 30.7528C20.8708 29.9234 20.4147 28.9282 20 27.7257C20.0829 27.933 20.4561 28.8453 21.3684 29.9649C21.7416 30.4625 22.2392 30.9601 22.8612 31.4992C24.5614 32.992 27.1738 34.5263 31.1547 35.3142C31.1547 35.3142 50.0223 38.9218 56.5742 46.0957C59.9745 49.8278 60.3062 56.2137 57.6108 60.4019Z" fill="white"/>
<path d="M47.9904 23.4545C47.9904 23.6619 47.9904 23.8692 47.9904 24.0766C47.7002 19.764 43.7608 16.3222 38.992 16.3222C34.1818 16.3222 30.2839 19.764 29.9936 24.0766C29.9936 23.8692 29.9936 23.6619 29.9936 23.4545C29.9936 18.2297 34.0574 14 39.0335 14C43.9681 14 47.9904 18.2297 47.9904 23.4545Z" fill="white"/>
</svg>
