<svg width="100" height="48" viewBox="0 0 100 48" fill="none" xmlns="http://www.w3.org/2000/svg">
<path d="M0 8C0 3.58172 3.58172 0 8 0H92C96.4183 0 100 3.58172 100 8V40C100 44.4183 96.4183 48 92 48H8C3.58172 48 0 44.4183 0 40V8Z" fill="#02A89E"/>
<g clip-path="url(#clip0_217_7174)">
<path d="M26 28C28.2091 28 30 26.2091 30 24C30 21.7909 28.2091 20 26 20C23.7909 20 22 21.7909 22 24C22 26.2091 23.7909 28 26 28Z" stroke="#E0F7F6" stroke-width="2" stroke-linecap="round" stroke-linejoin="round"/>
</g>
<g clip-path="url(#clip1_217_7174)">
<path d="M50 28C52.2091 28 54 26.2091 54 24C54 21.7909 52.2091 20 50 20C47.7909 20 46 21.7909 46 24C46 26.2091 47.7909 28 50 28Z" stroke="#E0F7F6" stroke-width="2" stroke-linecap="round" stroke-linejoin="round"/>
</g>
<g clip-path="url(#clip2_217_7174)">
<path d="M74 28C76.2091 28 78 26.2091 78 24C78 21.7909 76.2091 20 74 20C71.7909 20 70 21.7909 70 24C70 26.2091 71.7909 28 74 28Z" stroke="#E0F7F6" stroke-width="2" stroke-linecap="round" stroke-linejoin="round"/>
</g>
<defs>
<clipPath id="clip0_217_7174">
<rect width="24" height="24" fill="white" transform="translate(14 12)"/>
</clipPath>
<clipPath id="clip1_217_7174">
<rect width="24" height="24" fill="white" transform="translate(38 12)"/>
</clipPath>
<clipPath id="clip2_217_7174">
<rect width="24" height="24" fill="white" transform="translate(62 12)"/>
</clipPath>
</defs>
</svg>
