<svg width="60" height="12" viewBox="0 0 60 12" fill="none" xmlns="http://www.w3.org/2000/svg">
<path d="M0 6C0 2.68629 2.68629 0 6 0C9.31371 0 12 2.68629 12 6C12 9.31371 9.31371 12 6 12C2.68629 12 0 9.31371 0 6Z" fill="#E0F7F6"/>
<path d="M16 6C16 2.68629 18.6863 0 22 0H38C41.3137 0 44 2.68629 44 6C44 9.31371 41.3137 12 38 12H22C18.6863 12 16 9.31371 16 6Z" fill="#02A89E"/>
<path d="M48 6C48 2.68629 50.6863 0 54 0C57.3137 0 60 2.68629 60 6C60 9.31371 57.3137 12 54 12C50.6863 12 48 9.31371 48 6Z" fill="#E0F7F6"/>
</svg>
