<svg width="280" height="280" viewBox="0 0 280 280" fill="none" xmlns="http://www.w3.org/2000/svg">
<g filter="url(#filter0_i_389_80617)">
<path d="M0 128C0 57.3075 57.3076 0 128 0H152C222.692 0 280 57.3076 280 128V248C280 265.673 265.673 280 248 280H32C14.3269 280 0 265.673 0 248V128Z" fill="#F2F4F7"/>
<path d="M262.601 173.261C258.455 164.731 252.022 156.487 242.683 154.963C236.059 153.914 229.388 156.059 222.812 157.297C216.236 158.536 208.707 158.632 203.608 154.295C197.318 148.959 197.318 139.19 199.415 131.185C201.559 123.179 205.276 115.364 204.657 107.121C203.751 95.589 194.126 86.154 183.166 82.4372C172.206 78.7204 160.246 79.8164 148.905 82.0083C122.268 87.25 96.8218 98.6863 75.2357 115.174C70.3276 118.938 65.5148 123.036 62.5128 128.468C59.5107 133.853 58.653 140.81 61.7027 146.147C64.1329 150.436 68.8504 153.485 69.8035 158.298C71.1853 165.208 64.3712 170.64 58.7007 174.833C30.0145 196.276 12.6218 232.015 13.4795 267.849L241.682 264.322C253.595 245.262 266.175 228.107 268.367 205.759C269.653 192.798 266.794 181.886 262.601 173.261Z" fill="#E4E7EC"/>
<path d="M270.844 267.277C270.844 271.184 223.383 276.378 151.049 276.378C78.714 276.378 9 271.184 9 267.277C9 263.369 67.6112 260.796 139.898 260.177C232.39 259.367 270.844 263.369 270.844 267.277Z" fill="#101828"/>
<path d="M169.776 91.7769C169.776 91.7769 169.062 84.6769 173.827 84.7722C178.544 84.8675 177.925 93.2065 173.684 93.4447V96.9233" stroke="#101828" stroke-miterlimit="10" stroke-linecap="round" stroke-linejoin="round"/>
<path d="M162.819 104.786L173.732 96.9233L186.597 104.786H162.819Z" stroke="#101828" stroke-miterlimit="10" stroke-linecap="round" stroke-linejoin="round"/>
<path d="M158.53 106.263V189.653H174.827L184.882 110.409L158.53 106.263Z" fill="#667085"/>
<path d="M158.53 185.746H175.304" stroke="#E4E7EC" stroke-width="0.5" stroke-miterlimit="10" stroke-linecap="round" stroke-linejoin="round"/>
<path d="M176.113 143.336L171.729 185.746" stroke="#E4E7EC" stroke-width="0.5" stroke-miterlimit="10" stroke-linecap="round" stroke-linejoin="round"/>
<path d="M158.53 104.834V143.05L183.071 143.336C188.074 134.282 190.218 125.609 195.079 118.366C195.746 117.318 195.841 116.032 195.317 114.936L189.98 104.262C189.742 103.785 189.265 103.499 188.789 103.499H159.912C159.15 103.499 158.53 104.119 158.53 104.834Z" fill="#667085"/>
<path d="M180.688 143.288L158.53 143.05" stroke="#E4E7EC" stroke-width="0.5" stroke-miterlimit="10" stroke-linecap="round" stroke-linejoin="round"/>
<path d="M158.53 137.904H185.787" stroke="#E4E7EC" stroke-width="0.5" stroke-miterlimit="10" stroke-linecap="round" stroke-linejoin="round"/>
<path d="M178.353 137.904H167.632V143.336H178.353V137.904Z" fill="#E4E7EC"/>
<path d="M163.438 137.904V143.098" stroke="#E4E7EC" stroke-width="0.5" stroke-miterlimit="10" stroke-linecap="round" stroke-linejoin="round"/>
<path d="M167.632 131.423L168.013 119.32C168.823 118.033 169.776 116.985 170.824 116.127C172.635 114.697 175.256 114.65 177.162 115.984C178.639 116.985 179.831 118.081 180.688 119.32L181.117 131.471L167.632 131.423Z" stroke="#E4E7EC" stroke-width="0.5" stroke-miterlimit="10" stroke-linecap="round" stroke-linejoin="round"/>
<path d="M151.191 91.7769C151.191 91.7769 150.477 84.6769 155.242 84.7722C160.007 84.8675 159.34 93.2065 155.099 93.4447V96.9233" stroke="#101828" stroke-miterlimit="10" stroke-linecap="round" stroke-linejoin="round"/>
<path d="M144.234 104.786L155.194 96.9233L168.012 104.786H144.234Z" stroke="#101828" stroke-miterlimit="10" stroke-linecap="round" stroke-linejoin="round"/>
<path d="M139.993 106.263V189.653H156.242L166.297 110.409L139.993 106.263Z" fill="#101828"/>
<path d="M139.993 185.746H156.766" stroke="#E4E7EC" stroke-width="0.5" stroke-miterlimit="10" stroke-linecap="round" stroke-linejoin="round"/>
<path d="M157.528 143.336L153.145 185.746" stroke="#E4E7EC" stroke-width="0.5" stroke-miterlimit="10" stroke-linecap="round" stroke-linejoin="round"/>
<path d="M139.993 104.834V143.05L164.534 143.336C169.537 134.282 171.681 125.609 176.542 118.366C177.209 117.318 177.304 116.032 176.78 114.936L171.443 104.262C171.205 103.785 170.728 103.499 170.252 103.499H141.375C140.613 103.499 139.993 104.119 139.993 104.834Z" fill="#101828"/>
<path d="M162.151 143.288L139.993 143.05" stroke="#E4E7EC" stroke-width="0.5" stroke-miterlimit="10" stroke-linecap="round" stroke-linejoin="round"/>
<path d="M139.993 137.904H167.25" stroke="#E4E7EC" stroke-width="0.5" stroke-miterlimit="10" stroke-linecap="round" stroke-linejoin="round"/>
<path d="M159.816 137.904H149.095V143.336H159.816V137.904Z" fill="#E4E7EC"/>
<path d="M144.854 137.904V143.098" stroke="#E4E7EC" stroke-width="0.5" stroke-miterlimit="10" stroke-linecap="round" stroke-linejoin="round"/>
<path d="M149.095 131.423L149.476 119.32C150.286 118.033 151.239 116.985 152.287 116.127C154.098 114.697 156.719 114.65 158.625 115.984C160.102 116.985 161.293 118.081 162.151 119.32L162.58 131.471L149.095 131.423Z" stroke="#E4E7EC" stroke-width="0.5" stroke-miterlimit="10" stroke-linecap="round" stroke-linejoin="round"/>
<path d="M133.179 91.7769C133.179 91.7769 132.464 84.6769 137.229 84.7722C141.994 84.8675 141.327 93.2065 137.086 93.4447V96.9233" stroke="#101828" stroke-miterlimit="10" stroke-linecap="round" stroke-linejoin="round"/>
<path d="M126.222 104.786L137.134 96.9233L150 104.786H126.222Z" stroke="#101828" stroke-miterlimit="10" stroke-linecap="round" stroke-linejoin="round"/>
<path d="M118.55 109.837C121.886 106.93 125.079 104.405 127.89 102.737C127.89 102.737 128.414 108.455 136.181 108.312C143.949 108.169 147.427 102.356 147.427 102.356C150.334 103.928 153.098 105.596 155.719 107.407C157.053 108.312 157.958 109.694 158.292 111.267C160.245 121.035 163.057 130.279 166.297 139.238C163.247 141.335 158.53 142.955 155.099 142.907L157.768 180.456C144.902 184.602 131.798 184.173 118.55 180.647L119.789 142.335C116.692 141.525 113.928 140.048 111.498 137.856C113.547 130.279 115.215 122.322 116.311 113.887C116.549 112.315 117.359 110.885 118.55 109.837Z" fill="#D0D5DD"/>
<path d="M124.793 104.786C124.793 104.786 126.89 111.409 135.896 111.648C144.902 111.886 150.001 103.738 150.001 103.738" stroke="#101828" stroke-width="0.5" stroke-miterlimit="10" stroke-linecap="round" stroke-linejoin="round"/>
<path d="M136.754 111.648C136.754 110.504 136.706 109.408 136.706 108.312" stroke="#101828" stroke-width="0.5" stroke-miterlimit="10" stroke-linecap="round" stroke-linejoin="round"/>
<path d="M141.423 110.695C141.137 109.647 140.899 108.598 140.613 107.502" stroke="#101828" stroke-width="0.5" stroke-miterlimit="10" stroke-linecap="round" stroke-linejoin="round"/>
<path d="M145.521 108.455C144.997 107.598 144.426 106.74 143.901 105.882" stroke="#101828" stroke-width="0.5" stroke-miterlimit="10" stroke-linecap="round" stroke-linejoin="round"/>
<path d="M132.465 107.836C132.132 108.836 131.751 109.885 131.417 110.885" stroke="#101828" stroke-width="0.5" stroke-miterlimit="10" stroke-linecap="round" stroke-linejoin="round"/>
<path d="M129.654 106.168C128.891 106.978 128.176 107.788 127.414 108.551" stroke="#101828" stroke-width="0.5" stroke-miterlimit="10" stroke-linecap="round" stroke-linejoin="round"/>
<path d="M155.098 142.859L152.43 128.659" stroke="#101828" stroke-width="0.5" stroke-miterlimit="10" stroke-linecap="round" stroke-linejoin="round"/>
<path d="M119.837 142.335L120.599 127.182" stroke="#101828" stroke-width="0.5" stroke-miterlimit="10" stroke-linecap="round" stroke-linejoin="round"/>
<path d="M165.106 135.759C165.106 135.759 158.863 138.904 154.479 139.428" stroke="#101828" stroke-width="0.5" stroke-miterlimit="10" stroke-linecap="round" stroke-linejoin="round"/>
<path d="M112.546 134.044C112.546 134.044 115.31 137.951 120.075 138.189" stroke="#101828" stroke-width="0.5" stroke-miterlimit="10" stroke-linecap="round" stroke-linejoin="round"/>
<path d="M118.74 176.358C131.368 180.647 144.281 180.551 157.481 175.882" stroke="#101828" stroke-width="0.5" stroke-miterlimit="10" stroke-linecap="round" stroke-linejoin="round"/>
<path d="M144.853 130.947C144.853 136.331 141.232 141.192 135.895 141.192C130.558 141.192 126.937 136.284 126.937 130.947C126.937 125.562 131.273 121.226 136.657 121.226C141.994 121.226 144.853 125.61 144.853 130.947Z" fill="#101828"/>
<path d="M131.893 131.423C132.761 131.423 133.465 130.271 133.465 128.85C133.465 127.429 132.761 126.277 131.893 126.277C131.024 126.277 130.32 127.429 130.32 128.85C130.32 130.271 131.024 131.423 131.893 131.423Z" fill="#E4E7EC"/>
<path d="M139.469 131.423C140.337 131.423 141.041 130.271 141.041 128.85C141.041 127.429 140.337 126.277 139.469 126.277C138.601 126.277 137.896 127.429 137.896 128.85C137.896 130.271 138.601 131.423 139.469 131.423Z" fill="#E4E7EC"/>
<path d="M130.416 135.426C131.798 137.142 134.085 138.095 136.277 137.857C138.469 137.618 140.518 136.236 141.566 134.33" stroke="#E4E7EC" stroke-width="0.5" stroke-miterlimit="10" stroke-linecap="round" stroke-linejoin="round"/>
<path d="M112.594 91.7769C112.594 91.7769 111.879 84.6769 116.644 84.7722C121.409 84.8675 120.742 93.2065 116.501 93.4447V96.9233" stroke="#101828" stroke-miterlimit="10" stroke-linecap="round" stroke-linejoin="round"/>
<path d="M105.637 104.786L116.549 96.9233L129.415 104.786H105.637Z" stroke="#101828" stroke-miterlimit="10" stroke-linecap="round" stroke-linejoin="round"/>
<path d="M97.9655 109.837C101.301 106.93 104.494 104.405 107.305 102.737C107.305 102.737 107.829 108.455 115.596 108.312C123.364 108.169 126.842 102.356 126.842 102.356C129.749 103.928 132.513 105.596 135.134 107.407C136.468 108.312 137.373 109.694 137.707 111.267C139.66 121.035 142.472 130.279 145.712 139.238C142.662 141.335 137.945 142.955 134.514 142.907L137.183 180.456C124.317 184.602 111.213 184.173 97.9655 180.647L99.2044 142.335C96.1071 141.525 93.3433 140.048 90.9131 137.856C92.9621 130.279 94.6299 122.322 95.7259 113.887C95.9641 112.315 96.7742 110.885 97.9655 109.837Z" fill="#667085"/>
<path d="M104.208 104.786C104.208 104.786 106.305 111.409 115.311 111.648C124.317 111.886 129.416 103.738 129.416 103.738" stroke="#E4E7EC" stroke-width="0.5" stroke-miterlimit="10" stroke-linecap="round" stroke-linejoin="round"/>
<path d="M116.169 111.648C116.169 110.504 116.121 109.408 116.121 108.312" stroke="#E4E7EC" stroke-width="0.5" stroke-miterlimit="10" stroke-linecap="round" stroke-linejoin="round"/>
<path d="M120.838 110.695C120.552 109.646 120.314 108.598 120.028 107.502" stroke="#E4E7EC" stroke-width="0.5" stroke-miterlimit="10" stroke-linecap="round" stroke-linejoin="round"/>
<path d="M124.937 108.455C124.412 107.597 123.841 106.74 123.316 105.882" stroke="#E4E7EC" stroke-width="0.5" stroke-miterlimit="10" stroke-linecap="round" stroke-linejoin="round"/>
<path d="M111.879 107.835C111.546 108.836 111.165 109.884 110.831 110.885" stroke="#E4E7EC" stroke-width="0.5" stroke-miterlimit="10" stroke-linecap="round" stroke-linejoin="round"/>
<path d="M109.021 106.168C108.258 106.978 107.544 107.788 106.781 108.55" stroke="#E4E7EC" stroke-width="0.5" stroke-miterlimit="10" stroke-linecap="round" stroke-linejoin="round"/>
<path d="M134.513 142.859L131.845 128.659" stroke="#E4E7EC" stroke-width="0.5" stroke-miterlimit="10" stroke-linecap="round" stroke-linejoin="round"/>
<path d="M99.252 142.335L100.014 127.182" stroke="#E4E7EC" stroke-width="0.5" stroke-miterlimit="10" stroke-linecap="round" stroke-linejoin="round"/>
<path d="M144.521 135.759C144.521 135.759 138.278 138.904 133.895 139.428" stroke="#E4E7EC" stroke-width="0.5" stroke-miterlimit="10" stroke-linecap="round" stroke-linejoin="round"/>
<path d="M91.9609 134.044C91.9609 134.044 94.7247 137.951 99.4898 138.189" stroke="#E4E7EC" stroke-width="0.5" stroke-miterlimit="10" stroke-linecap="round" stroke-linejoin="round"/>
<path d="M98.1553 176.358C110.783 180.647 123.696 180.551 136.896 175.882" stroke="#E4E7EC" stroke-width="0.5" stroke-miterlimit="10" stroke-linecap="round" stroke-linejoin="round"/>
<path d="M122.601 127.134C121.934 126.42 121.124 125.8 120.6 124.99C119.885 123.846 119.742 122.322 120.314 121.083C120.552 120.559 120.981 120.082 121.553 120.034C122.029 120.034 122.458 120.32 122.744 120.654C123.459 121.369 123.983 122.226 124.269 123.179C124.316 122.369 124.555 121.512 125.031 120.844C125.27 120.463 125.603 120.082 126.08 119.939C126.747 119.701 127.509 120.082 127.89 120.654C128.272 121.226 128.319 121.988 128.176 122.655C128.033 123.322 127.7 123.989 127.319 124.561C126.794 125.467 126.223 126.372 125.603 127.23C125.031 128.04 124.412 129.04 123.649 129.66C123.697 128.707 123.316 127.897 122.601 127.134Z" fill="#E4E7EC"/>
<path d="M91.1035 91.7769C91.1035 91.7769 90.3887 84.6769 95.1539 84.7722C99.8713 84.8675 99.2519 93.2065 95.0109 93.4447V96.9233" stroke="#101828" stroke-miterlimit="10" stroke-linecap="round" stroke-linejoin="round"/>
<path d="M84.1465 104.786L95.1063 96.9231L107.925 104.786H84.1465Z" stroke="#101828" stroke-miterlimit="10" stroke-linecap="round" stroke-linejoin="round"/>
<path d="M76.4743 109.837C79.8099 106.93 83.0025 104.405 85.814 102.737C85.814 102.737 86.3381 108.455 94.1053 108.312C101.872 108.169 105.351 102.356 105.351 102.356C108.258 103.928 111.022 105.596 113.642 107.407C114.977 108.312 115.882 109.694 116.216 111.267C118.169 121.035 120.981 130.279 124.221 139.238C121.171 141.335 116.454 142.955 113.023 142.907L115.691 180.456C102.825 184.602 89.7214 184.173 76.4743 180.647L77.7132 142.335C74.6159 141.525 71.8521 140.048 69.4219 137.856C71.4709 130.279 73.1387 122.322 74.2347 113.887C74.5206 112.315 75.283 110.885 76.4743 109.837Z" fill="#98A2B3"/>
<path d="M82.7168 104.786C82.7168 104.786 84.8135 111.409 93.8196 111.648C102.826 111.886 107.924 103.738 107.924 103.738" stroke="#101828" stroke-width="0.5" stroke-miterlimit="10" stroke-linecap="round" stroke-linejoin="round"/>
<path d="M94.6775 111.648C94.6775 110.504 94.6299 109.408 94.6299 108.312" stroke="#101828" stroke-width="0.5" stroke-miterlimit="10" stroke-linecap="round" stroke-linejoin="round"/>
<path d="M99.3472 110.695C99.0613 109.647 98.823 108.598 98.5371 107.502" stroke="#101828" stroke-width="0.5" stroke-miterlimit="10" stroke-linecap="round" stroke-linejoin="round"/>
<path d="M103.445 108.455C102.921 107.598 102.349 106.74 101.825 105.882" stroke="#101828" stroke-width="0.5" stroke-miterlimit="10" stroke-linecap="round" stroke-linejoin="round"/>
<path d="M90.3891 107.836C90.0556 108.836 89.6744 109.885 89.3408 110.885" stroke="#101828" stroke-width="0.5" stroke-miterlimit="10" stroke-linecap="round" stroke-linejoin="round"/>
<path d="M87.5775 106.168C86.8151 106.978 86.1003 107.788 85.3379 108.551" stroke="#101828" stroke-width="0.5" stroke-miterlimit="10" stroke-linecap="round" stroke-linejoin="round"/>
<path d="M113.07 142.859L110.401 128.659" stroke="#101828" stroke-width="0.5" stroke-miterlimit="10" stroke-linecap="round" stroke-linejoin="round"/>
<path d="M77.8076 142.335L78.5224 127.182" stroke="#101828" stroke-width="0.5" stroke-miterlimit="10" stroke-linecap="round" stroke-linejoin="round"/>
<path d="M123.03 135.759C123.03 135.759 116.787 138.904 112.403 139.428" stroke="#101828" stroke-width="0.5" stroke-miterlimit="10" stroke-linecap="round" stroke-linejoin="round"/>
<path d="M70.4697 134.044C70.4697 134.044 73.2335 137.951 77.9986 138.189" stroke="#101828" stroke-width="0.5" stroke-miterlimit="10" stroke-linecap="round" stroke-linejoin="round"/>
<path d="M76.6641 176.358C89.2917 180.647 102.205 180.551 115.405 175.882" stroke="#101828" stroke-width="0.5" stroke-miterlimit="10" stroke-linecap="round" stroke-linejoin="round"/>
<path d="M83.2409 128.087C83.1932 128.659 83.1456 129.231 83.3362 129.755C83.5744 130.47 84.2416 130.994 84.9563 131.232C85.6711 131.471 86.4335 131.518 87.1959 131.566C89.6738 131.709 92.1993 131.804 94.6772 131.947C95.2967 131.995 95.9161 131.995 96.488 132.281C97.0598 132.519 97.5363 133.043 97.5363 133.663C98.251 132.805 99.2517 132.185 100.3 131.9C100.967 131.757 101.682 131.709 102.301 131.375C103.397 130.756 103.779 129.374 104.017 128.135C104.303 126.801 104.541 125.467 104.35 124.132C104.16 122.798 103.445 121.464 102.206 120.94C101.396 120.606 100.491 120.606 99.6329 120.606C95.8685 120.702 92.104 120.749 88.3872 120.844C87.1006 120.892 84.8134 120.892 84.0033 122.131C83.5744 122.798 83.7174 123.989 83.6221 124.752C83.4315 125.896 83.3362 126.991 83.2409 128.087Z" fill="#D0D5DD"/>
<path d="M86.5292 121.035C85.6715 122.036 85.4332 123.561 86.005 124.752C86.6245 125.943 88.1017 126.61 89.3406 126.181C90.5796 125.753 91.2943 124.371 91.5326 123.036C91.6755 122.274 91.6755 121.512 91.4373 120.797C90.5796 118.51 87.6728 119.653 86.5292 121.035Z" fill="#101828"/>
<path d="M95.8212 121.035C94.9635 122.036 94.7252 123.561 95.297 124.752C95.9165 125.943 97.3937 126.61 98.6326 126.181C99.8716 125.753 100.586 124.371 100.825 123.036C100.968 122.274 100.968 121.512 100.729 120.797C99.8715 118.51 96.9648 119.653 95.8212 121.035Z" fill="#101828"/>
<path d="M84.5752 264.275V94.0167C84.5752 90.5858 87.339 87.822 90.7699 87.822H189.932C193.363 87.822 196.127 90.5858 196.127 94.0167V264.227" stroke="#101828" stroke-width="4" stroke-miterlimit="10" stroke-linecap="round" stroke-linejoin="round"/>
<path d="M84.5752 235.78H196.175" stroke="#101828" stroke-width="4" stroke-miterlimit="10" stroke-linecap="round" stroke-linejoin="round"/>
<path d="M229.435 85.3916V264.513" stroke="#101828" stroke-width="4" stroke-miterlimit="10" stroke-linecap="round" stroke-linejoin="round"/>
<path d="M221.716 124.704V157.441" stroke="#101828" stroke-width="0.5" stroke-miterlimit="10" stroke-linecap="round" stroke-linejoin="round"/>
<path d="M222.907 157.631C222.907 159.156 222.383 160.347 221.716 160.347C221.049 160.347 220.524 159.108 220.524 157.631C220.524 156.106 221.049 154.915 221.716 154.915C222.383 154.915 222.907 156.154 222.907 157.631Z" fill="#101828"/>
<path d="M216.522 88.2507C214.234 101.927 210.946 115.174 206.801 128.135C206.419 129.374 207.23 130.708 208.516 130.851C223.431 132.614 237.536 132.852 250.354 130.946C251.593 130.756 252.403 129.469 252.022 128.278C247.686 114.03 244.064 100.402 242.492 88.3936C242.349 87.4406 241.586 86.6782 240.633 86.5829C233.152 85.8681 225.671 85.7728 218.285 86.5829C217.427 86.5829 216.665 87.2976 216.522 88.2507Z" fill="#98A2B3"/>
<path d="M247.685 131.28C244.493 116.174 241.634 101.212 239.251 86.3923" stroke="#E4E7EC" stroke-width="0.5" stroke-miterlimit="10" stroke-linecap="round" stroke-linejoin="round"/>
<path d="M235.678 86.1062C236.774 100.973 238.68 116.222 241.396 131.852" stroke="#E4E7EC" stroke-width="0.5" stroke-miterlimit="10" stroke-linecap="round" stroke-linejoin="round"/>
<path d="M235.439 132.185C234.105 117.032 233.152 101.641 232.58 86.011" stroke="#E4E7EC" stroke-width="0.5" stroke-miterlimit="10" stroke-linecap="round" stroke-linejoin="round"/>
<path d="M229.436 132.233V85.9158" stroke="#E4E7EC" stroke-width="0.5" stroke-miterlimit="10" stroke-linecap="round" stroke-linejoin="round"/>
<path d="M223.669 132.09C225.194 117.079 226.147 101.688 226.48 85.9631" stroke="#E4E7EC" stroke-width="0.5" stroke-miterlimit="10" stroke-linecap="round" stroke-linejoin="round"/>
<path d="M217.665 131.709C220.238 117.318 222.097 102.117 223.24 86.1062" stroke="#E4E7EC" stroke-width="0.5" stroke-miterlimit="10" stroke-linecap="round" stroke-linejoin="round"/>
<path d="M211.423 131.137C214.854 116.222 217.618 101.307 219.81 86.3445" stroke="#E4E7EC" stroke-width="0.5" stroke-miterlimit="10" stroke-linecap="round" stroke-linejoin="round"/>
<path d="M235.296 254.173C237.488 259.796 239.204 265.371 240.443 270.994C240.633 271.756 240.109 272.376 239.299 272.376H239.156C238.346 272.376 237.488 271.851 237.012 271.137C234.105 266.181 231.627 260.558 229.387 254.459C229.102 253.649 229.53 252.981 230.341 252.886L232.866 252.696C233.819 252.553 234.963 253.267 235.296 254.173Z" fill="#101828"/>
<path d="M202.512 254.173C203.751 259.796 204.466 265.371 204.752 270.994C204.8 271.756 204.18 272.376 203.37 272.376H203.227C202.417 272.376 201.607 271.852 201.321 271.137C199.272 266.181 197.747 260.558 196.603 254.459C196.461 253.649 196.985 252.982 197.842 252.886L200.368 252.696C201.273 252.553 202.274 253.268 202.512 254.173Z" fill="#101828"/>
<path d="M158.864 254.173C157.244 259.796 155.147 265.371 152.574 270.994C152.192 271.756 151.335 272.376 150.477 272.376H150.334C149.524 272.376 149 271.852 149.095 271.137C149.572 266.181 150.906 260.558 152.907 254.459C153.193 253.649 154.051 252.982 154.909 252.886L157.529 252.696C158.53 252.553 159.15 253.268 158.864 254.173Z" fill="#101828"/>
<path d="M236.726 260.272C241.539 258.509 243.016 253.935 242.921 249.074C242.683 230.061 244.446 209.476 249.592 195.466C252.308 188.08 254.929 179.217 234.82 175.643C216.903 172.498 169.204 180.885 145.093 192.083C140.28 194.323 137.135 198.802 136.897 203.853C136.373 217.148 137.945 234.636 139.136 248.645C139.613 254.316 143.663 259.414 149.524 260.749C164.963 264.275 177.21 261.463 198.033 263.465C207.897 262.845 227.291 263.751 236.726 260.272Z" fill="#D0D5DD"/>
<path d="M138.612 198.707C145.855 196.181 149.906 202.185 151.192 205.378C152.479 208.523 152.384 212.049 152.288 215.48C151.812 230.252 151.383 245.024 150.906 259.796" stroke="#101828" stroke-width="0.5" stroke-miterlimit="10" stroke-linecap="round" stroke-linejoin="round"/>
<path d="M194.841 224.057C194.841 224.057 160.103 219.149 151.859 227.822" stroke="#101828" stroke-width="0.5" stroke-miterlimit="10" stroke-linecap="round" stroke-linejoin="round"/>
<path d="M193.84 241.688H151.431" stroke="#101828" stroke-width="0.5" stroke-miterlimit="10" stroke-linecap="round" stroke-linejoin="round"/>
<path d="M237.06 179.741C247.829 189.844 218.476 198.373 204.609 201.47C200.559 202.471 197.509 205.569 196.795 209.476C193.792 226.916 193.221 245.405 194.46 263.131" stroke="#101828" stroke-width="0.5" stroke-miterlimit="10" stroke-linecap="round" stroke-linejoin="round"/>
<path d="M210.423 263.179C213.52 246.882 214.664 230.157 213.711 213.574C213.568 210.763 213.33 207.856 211.948 205.378C210.614 202.9 207.897 200.946 205.086 201.375" stroke="#101828" stroke-width="0.5" stroke-miterlimit="10" stroke-linecap="round" stroke-linejoin="round"/>
<path d="M241.873 253.029C241.873 253.029 232.819 206.617 244.97 194.466C257.122 182.315 243.255 241.927 243.732 253.029H241.873Z" fill="#98A2B3"/>
<path d="M248.068 192.798C248.068 192.798 241.397 193.656 242.683 252.982" stroke="#101828" stroke-width="0.5" stroke-miterlimit="10" stroke-linecap="round" stroke-linejoin="round"/>
<path d="M243.35 259.7C243.35 259.7 247.591 224.486 234.249 216.767C220.906 209.047 239.061 251.981 239.776 260.225L243.35 259.7Z" fill="#98A2B3"/>
<path d="M231.676 216.147C231.676 216.147 238.633 222.389 242.683 259.796" stroke="#101828" stroke-width="0.5" stroke-miterlimit="10" stroke-linecap="round" stroke-linejoin="round"/>
<path d="M241.11 256.46C241.11 256.46 241.73 221.246 256.121 215.337C270.511 209.428 245.399 250.218 243.588 258.271L241.11 256.46Z" fill="#98A2B3"/>
<path d="M259.456 214.908C259.456 214.908 247.687 220.531 241.873 256.651" stroke="#101828" stroke-width="0.5" stroke-miterlimit="10" stroke-linecap="round" stroke-linejoin="round"/>
<path d="M248.687 271.375C245.017 271.899 240.872 271.804 236.488 271.375C236.154 271.327 235.916 271.137 235.821 270.803C234.248 264.704 233.486 257.699 233.343 249.98C233.343 249.551 233.676 249.217 234.058 249.217C240.252 248.884 246.018 248.788 250.974 249.217C251.403 249.265 251.689 249.598 251.689 250.027C251.117 258.128 250.545 266.038 249.306 270.851C249.211 271.089 248.972 271.327 248.687 271.375Z" fill="#E4E7EC"/>
<path d="M251.593 251.409C245.637 251.362 239.537 251.409 233.343 251.6" stroke="#101828" stroke-width="0.5" stroke-miterlimit="10" stroke-linecap="round" stroke-linejoin="round"/>
<path d="M223.765 247.359C224.337 246.358 224.814 245.31 225.099 244.119C226.958 236.828 221.907 229.394 213.997 226.821C204.419 223.724 194.841 227.345 192.935 235.97C192.649 237.161 192.554 238.353 192.649 239.544C192.744 241.307 191.934 242.927 190.505 244.023C187.264 246.549 184.882 249.98 183.929 254.125C181.641 264.418 189.504 274.854 200.368 277.284C211.233 279.714 223.289 275.235 225.576 264.942C226.481 260.844 225.719 256.508 223.765 252.553C222.86 250.837 222.86 248.931 223.765 247.359Z" fill="#667085"/>
<path d="M202.179 228.489C201.417 228.727 200.654 229.013 199.939 229.442C197.462 230.824 195.841 233.111 195.174 236.018C194.984 236.923 194.888 237.876 194.888 238.781C194.936 241.164 193.935 243.451 192.077 245.024C189.504 247.216 187.741 250.122 187.026 253.315C185.978 258.08 187.312 263.179 190.647 266.991C192.839 269.517 195.698 271.232 198.796 271.899C202.894 272.805 207.23 272.28 210.756 270.47C213.329 269.135 216.665 266.515 217.761 261.654C218.476 258.509 218.047 254.888 216.57 251.504C215.569 249.169 215.664 246.549 216.856 244.357C217.285 243.594 217.618 242.737 217.809 241.879C218.666 238.448 218.333 232.682 212.329 230.204" stroke="#E4E7EC" stroke-width="0.5" stroke-miterlimit="10" stroke-linecap="round" stroke-linejoin="round"/>
<path d="M207.231 252.029L198.463 250.075C200.941 235.065 204.848 219.006 209.613 202.233L217.762 204.377C215.141 218.625 211.472 234.827 207.231 252.029Z" fill="#101828"/>
<path d="M211.138 252.362C210.185 256.603 205.658 258.652 201.417 257.699C197.176 256.746 194.508 252.553 195.461 248.312C196.414 244.071 200.75 240.783 204.943 241.736C209.184 242.689 212.091 248.121 211.138 252.362Z" fill="#E4E7EC"/>
<path d="M208.994 251.6C208.327 254.649 205.039 256.127 201.989 255.46C198.939 254.792 197.033 251.79 197.7 248.741C198.368 245.691 201.512 243.356 204.515 244.023C207.564 244.643 209.661 248.55 208.994 251.6Z" fill="#101828"/>
<path d="M212.472 199.755L197.414 263.56" stroke="#F2F4F7" stroke-width="0.5" stroke-miterlimit="10" stroke-linecap="round" stroke-linejoin="round"/>
<path d="M214.425 200.279L199.415 264.084" stroke="#F2F4F7" stroke-width="0.5" stroke-miterlimit="10" stroke-linecap="round" stroke-linejoin="round"/>
<path d="M216.713 201.09L201.655 264.895" stroke="#F2F4F7" stroke-width="0.5" stroke-miterlimit="10" stroke-linecap="round" stroke-linejoin="round"/>
<path d="M203.466 266.276C200.035 265.752 196.795 265.228 194.793 264.418C194.555 264.323 194.46 263.989 194.555 263.608C194.65 263.227 194.698 262.845 194.793 262.56C194.889 262.131 195.175 261.845 195.413 261.892C198.844 262.56 202.275 263.227 204.038 263.798C204.276 263.846 204.419 264.227 204.324 264.609C204.276 264.99 204.181 265.371 204.085 265.704C203.99 266.086 203.704 266.324 203.466 266.276Z" fill="#101828"/>
<path d="M209.66 202.233C210.518 198.564 210.994 193.989 211.185 188.843C211.185 188.319 211.614 187.89 212.138 187.842C215.617 187.604 219.476 188.7 223.527 190.368C224.194 190.654 224.384 191.464 223.908 191.988C221.096 195.181 219.238 199.517 217.809 204.33L209.66 202.233Z" fill="#101828"/>
<path d="M212.71 191.702L209.851 191.082L209.946 190.654C209.994 190.463 209.851 190.272 209.66 190.225L209.279 190.129C209.088 190.082 208.898 190.225 208.85 190.415L208.421 192.369C208.374 192.56 208.517 192.75 208.707 192.798L209.088 192.893C209.279 192.941 209.47 192.798 209.517 192.607L209.613 192.178L212.472 192.798L212.71 191.702Z" fill="#101828"/>
<path d="M211.805 195.609L208.946 194.99L209.041 194.561C209.089 194.37 208.946 194.18 208.755 194.132L208.374 194.037C208.183 193.989 207.993 194.132 207.945 194.322L207.516 196.276C207.468 196.467 207.611 196.657 207.802 196.705L208.183 196.8C208.374 196.848 208.564 196.705 208.612 196.514L208.707 196.086L211.566 196.705L211.805 195.609Z" fill="#101828"/>
<path d="M211.138 199.326L208.279 198.706L208.374 198.278C208.422 198.087 208.279 197.896 208.088 197.849L207.707 197.753C207.516 197.706 207.326 197.849 207.278 198.039L206.849 199.993C206.801 200.184 206.944 200.374 207.135 200.422L207.516 200.517C207.707 200.565 207.897 200.422 207.945 200.231L208.04 199.802L210.899 200.422L211.138 199.326Z" fill="#101828"/>
<path d="M220.191 193.37L223.05 193.989L223.146 193.56C223.193 193.37 223.384 193.274 223.575 193.274L223.956 193.37C224.146 193.417 224.242 193.608 224.242 193.799L223.813 195.752C223.765 195.943 223.575 196.038 223.384 196.038L223.003 195.943C222.812 195.895 222.717 195.705 222.717 195.514L222.812 195.085L219.953 194.466L220.191 193.37Z" fill="#101828"/>
<path d="M219.334 197.277L222.193 197.897L222.288 197.468C222.336 197.277 222.526 197.182 222.717 197.182L223.098 197.277C223.289 197.325 223.384 197.515 223.384 197.706L222.955 199.66C222.908 199.85 222.717 199.946 222.526 199.946L222.098 199.85C221.907 199.803 221.812 199.612 221.812 199.422L221.907 198.993L219.048 198.373L219.334 197.277Z" fill="#101828"/>
<path d="M218.381 200.899L221.24 201.518L221.335 201.089C221.383 200.899 221.573 200.803 221.764 200.803L222.145 200.899C222.336 200.946 222.431 201.137 222.431 201.328L222.002 203.281C221.955 203.472 221.764 203.567 221.573 203.567L221.192 203.472C221.002 203.424 220.906 203.234 220.906 203.043L221.002 202.614L218.143 201.995L218.381 200.899Z" fill="#101828"/>
<path d="M49.4087 213.907C52.506 229.68 56.0322 244.785 60.0349 258.938C60.2255 259.557 60.845 259.938 61.4645 259.796L67.8974 258.414C68.5645 258.271 68.9457 257.651 68.8504 256.984C65.2766 239.448 61.7027 222.866 57.7953 211.239C57.6047 210.619 56.8899 210.286 56.2705 210.476L50.2664 212.478C49.6469 212.716 49.3134 213.288 49.4087 213.907Z" fill="#667085"/>
<path d="M59.0339 215.813C64.7045 230.871 70.6609 245.167 76.9509 258.461C77.2368 259.033 77.9039 259.319 78.5234 259.081L84.6227 256.651C85.2422 256.412 85.5281 255.698 85.2899 255.078C78.9046 238.4 72.5669 222.627 66.8011 211.811C66.4676 211.239 65.7528 211.001 65.181 211.334L59.6058 214.288C59.0816 214.574 58.8433 215.242 59.0339 215.813Z" fill="#98A2B3"/>
<path d="M68.9938 220.149C77.2852 233.921 85.7195 246.929 94.2967 258.938C94.6779 259.462 95.3927 259.605 95.9169 259.271L101.492 255.793C102.064 255.459 102.254 254.697 101.873 254.125C92.5813 238.876 83.5751 224.486 75.9509 214.86C75.5221 214.336 74.7596 214.241 74.2355 214.669L69.2797 218.577C68.8032 218.958 68.7079 219.625 68.9938 220.149Z" fill="#101828"/>
<path d="M46.5977 263.703H41.6419C41.356 263.703 41.1654 263.465 41.1654 263.226C40.403 251.552 40.4506 237.828 41.1654 222.294C41.1654 222.008 41.4037 221.817 41.6419 221.817H46.5977C46.8836 221.817 47.0742 222.056 47.0742 222.294C47.9796 230.347 47.5031 246.977 47.0742 263.226C47.1219 263.465 46.8836 263.703 46.5977 263.703Z" fill="#D0D5DD"/>
<path d="M122.03 263.703H117.074C116.788 263.703 116.597 263.465 116.597 263.226C116.169 248.073 115.692 232.825 116.597 222.294C116.597 222.008 116.836 221.817 117.074 221.817H122.03C122.316 221.817 122.506 222.056 122.506 222.294C123.078 237.352 123.126 251.075 122.506 263.226C122.554 263.465 122.316 263.703 122.03 263.703Z" fill="#D0D5DD"/>
<path d="M37.4482 228.012V222.58C37.4482 222.151 37.7818 221.817 38.2107 221.817C59.9873 221.246 91.6755 221.484 125.46 221.817C125.889 221.817 126.223 222.151 126.223 222.58V228.012C126.223 228.441 125.889 228.774 125.46 228.774C93.0097 229.251 62.8464 229.394 38.2107 228.774C37.7818 228.774 37.4482 228.441 37.4482 228.012Z" fill="#D0D5DD"/>
<path d="M37.4482 239.639V234.207C37.4482 233.778 37.7818 233.444 38.2107 233.444C59.5585 232.539 91.4372 232.873 125.46 233.444C125.889 233.444 126.223 233.778 126.223 234.207V239.639C126.223 240.068 125.889 240.401 125.46 240.401C103.731 241.212 72.0431 240.926 38.2107 240.401C37.7818 240.449 37.4482 240.068 37.4482 239.639Z" fill="#D0D5DD"/>
<path d="M37.4482 251.266V245.834C37.4482 245.405 37.7818 245.071 38.2107 245.071C70.0418 244.69 99.7762 244.643 125.46 245.071C125.889 245.071 126.223 245.405 126.223 245.834V251.266C126.223 251.695 125.889 252.028 125.46 252.028C91.2943 252.886 59.1773 253.41 38.2107 252.028C37.7818 252.076 37.4482 251.695 37.4482 251.266Z" fill="#D0D5DD"/>
<path d="M37.4482 262.94V257.508C37.4482 257.079 37.7818 256.746 38.2107 256.746C56.6517 256.031 90.7225 256.365 125.46 256.746C125.889 256.746 126.223 257.079 126.223 257.508V262.94C126.223 263.369 125.889 263.703 125.46 263.703C101.063 265.561 70.7565 265.085 38.2107 263.703C37.7818 263.703 37.4482 263.369 37.4482 262.94Z" fill="#D0D5DD"/>
<path d="M44.1673 224.962C43.2619 224.962 43.2619 226.344 44.1673 226.344C45.0727 226.344 45.0727 224.962 44.1673 224.962Z" fill="#101828"/>
<path d="M44.1673 236.351C43.2619 236.351 43.2619 237.733 44.1673 237.733C45.0727 237.733 45.0727 236.351 44.1673 236.351Z" fill="#101828"/>
<path d="M44.1673 248.216C43.2619 248.216 43.2619 249.598 44.1673 249.598C45.0727 249.598 45.0727 248.216 44.1673 248.216Z" fill="#101828"/>
<path d="M44.1673 260.034C43.2619 260.034 43.2619 261.416 44.1673 261.416C45.0727 261.463 45.0727 260.034 44.1673 260.034Z" fill="#101828"/>
<path d="M119.552 224.962C118.647 224.962 118.647 226.344 119.552 226.344C120.457 226.344 120.457 224.962 119.552 224.962Z" fill="#101828"/>
<path d="M119.552 236.351C118.647 236.351 118.647 237.733 119.552 237.733C120.457 237.733 120.457 236.351 119.552 236.351Z" fill="#101828"/>
<path d="M119.552 248.216C118.647 248.216 118.647 249.598 119.552 249.598C120.457 249.598 120.457 248.216 119.552 248.216Z" fill="#101828"/>
<path d="M119.552 260.034C118.647 260.034 118.647 261.416 119.552 261.416C120.457 261.463 120.457 260.034 119.552 260.034Z" fill="#101828"/>
<path d="M78.9521 221.436C78.9521 221.436 79.2857 217.767 84.0032 217.529C88.7683 217.291 112.07 217.291 114.691 218.482C120.218 221.103 114.834 249.693 120.218 256.269C114.309 261.702 98.6798 259.939 87.2435 260.034C81.2871 250.837 81.1441 227.059 82.8596 221.436H78.9521Z" fill="#667085"/>
<path d="M88.5777 217.434C88.8159 218.673 88.8636 219.959 88.7683 221.198C88.6253 223.724 88.0535 226.201 87.6723 228.679C86.0045 239.401 88.1012 250.647 93.4381 260.082" stroke="#E4E7EC" stroke-width="0.5" stroke-miterlimit="10" stroke-linecap="round" stroke-linejoin="round"/>
<path d="M95.2485 217.434C95.3915 224.248 93.9143 231.11 94.1049 237.971C94.2955 245.834 96.6781 253.601 100.871 260.225" stroke="#E4E7EC" stroke-width="0.5" stroke-miterlimit="10" stroke-linecap="round" stroke-linejoin="round"/>
<path d="M101.873 217.529C102.349 223.914 100.919 230.442 100.872 236.875C100.824 245.024 103.111 253.124 107.305 260.081" stroke="#E4E7EC" stroke-width="0.5" stroke-miterlimit="10" stroke-linecap="round" stroke-linejoin="round"/>
<path d="M107.829 217.72C107.972 219.054 107.972 220.341 107.925 221.675C107.734 224.867 107.114 228.012 106.876 231.205C106.066 241.021 108.878 251.076 114.596 259.033" stroke="#E4E7EC" stroke-width="0.5" stroke-miterlimit="10" stroke-linecap="round" stroke-linejoin="round"/>
<path d="M113.547 218.244C113.738 224.057 112.594 230.014 112.833 235.922C113.119 242.879 114.786 251.218 118.503 257.556" stroke="#E4E7EC" stroke-width="0.5" stroke-miterlimit="10" stroke-linecap="round" stroke-linejoin="round"/>
<path d="M84.6699 254.173C95.9156 255.65 107.495 254.697 118.359 251.457" stroke="#E4E7EC" stroke-width="0.5" stroke-miterlimit="10" stroke-linecap="round" stroke-linejoin="round"/>
<path d="M82.9551 246.358C94.4867 247.93 106.304 247.406 117.645 244.738" stroke="#E4E7EC" stroke-width="0.5" stroke-miterlimit="10" stroke-linecap="round" stroke-linejoin="round"/>
<path d="M82.1445 238.4C86.4808 239.067 90.8647 239.449 95.2963 239.592C102.778 239.782 110.354 239.115 117.597 237.161" stroke="#E4E7EC" stroke-width="0.5" stroke-miterlimit="10" stroke-linecap="round" stroke-linejoin="round"/>
<path d="M81.9541 230.061C90.0548 231.3 98.2985 231.777 106.495 231.443C110.164 231.3 113.881 230.967 117.454 230.157" stroke="#E4E7EC" stroke-width="0.5" stroke-miterlimit="10" stroke-linecap="round" stroke-linejoin="round"/>
<path d="M82.2881 224.486C93.8197 225.534 105.494 225.01 116.883 222.914" stroke="#E4E7EC" stroke-width="0.5" stroke-miterlimit="10" stroke-linecap="round" stroke-linejoin="round"/>
<path d="M144.283 278.951C134.61 280.572 124.555 280.238 114.215 278.475C107.734 277.379 102.779 272.757 101.683 266.991C100.825 262.226 100.873 257.461 101.826 252.648C102.969 246.882 108.116 242.45 114.596 241.402C124.412 239.877 134.181 239.83 143.997 241.354C150.716 242.403 155.91 247.168 156.911 253.172C157.721 257.985 157.721 262.75 156.863 267.467C155.91 273.281 150.811 277.855 144.283 278.951Z" fill="#98A2B3"/>
<path d="M105.59 245.929C105.59 245.929 111.451 243.07 113.023 243.832C114.596 244.595 114.358 248.311 114.358 248.311C114.358 248.311 118.932 244.213 121.887 244.404C124.841 244.595 126.271 249.407 126.271 249.407C126.271 249.407 129.082 245.309 132.036 245.071C134.991 244.833 138.374 249.169 138.374 249.169C138.374 249.169 138.326 245.834 140.471 244.833C142.615 243.88 146.427 247.835 146.427 247.835C146.427 247.835 145.712 245.166 147.237 244.213C148.762 243.213 153.622 246.262 153.622 246.262" stroke="#101828" stroke-width="0.5" stroke-miterlimit="10" stroke-linecap="round" stroke-linejoin="round"/>
<path d="M112.976 243.832C115.358 242.307 117.884 241.211 120.647 240.64" stroke="#101828" stroke-width="0.5" stroke-miterlimit="10" stroke-linecap="round" stroke-linejoin="round"/>
<path d="M121.839 244.404C122.268 242.879 122.935 241.545 123.888 240.401" stroke="#101828" stroke-width="0.5" stroke-miterlimit="10" stroke-linecap="round" stroke-linejoin="round"/>
<path d="M131.608 245.166C131.512 243.546 131.084 241.878 130.273 240.258" stroke="#101828" stroke-width="0.5" stroke-miterlimit="10" stroke-linecap="round" stroke-linejoin="round"/>
<path d="M140.375 244.881C139.279 243.07 137.849 241.593 136.134 240.497" stroke="#101828" stroke-width="0.5" stroke-miterlimit="10" stroke-linecap="round" stroke-linejoin="round"/>
<path d="M147.142 244.261C145.664 243.165 143.949 242.117 142.043 241.068" stroke="#101828" stroke-width="0.5" stroke-miterlimit="10" stroke-linecap="round" stroke-linejoin="round"/>
<path d="M106.4 274.854C120.267 279.333 143.235 279.094 152.813 274.854" stroke="#101828" stroke-width="0.5" stroke-miterlimit="10" stroke-linecap="round" stroke-linejoin="round"/>
<path d="M114.311 248.312C110.118 257.08 110.594 268.373 113.644 276.664" stroke="#101828" stroke-width="0.5" stroke-miterlimit="10" stroke-linecap="round" stroke-linejoin="round"/>
<path d="M126.224 249.408C123.889 257.413 122.888 268.707 125.414 277.999" stroke="#101828" stroke-width="0.5" stroke-miterlimit="10" stroke-linecap="round" stroke-linejoin="round"/>
<path d="M138.327 249.169C140.424 257.413 140.138 267.229 138.756 277.808" stroke="#101828" stroke-width="0.5" stroke-miterlimit="10" stroke-linecap="round" stroke-linejoin="round"/>
<path d="M146.333 247.883C149.287 256.174 149.43 265.895 148.096 276.378" stroke="#101828" stroke-width="0.5" stroke-miterlimit="10" stroke-linecap="round" stroke-linejoin="round"/>
<path d="M126.27 214.956C126.27 212.859 124.555 211.143 122.458 211.143C124.555 211.143 126.27 209.428 126.27 207.331C126.27 209.428 127.986 211.143 130.082 211.143C127.938 211.191 126.27 212.907 126.27 214.956Z" fill="#E4E7EC"/>
<path d="M258.36 203.567C258.36 202.09 257.168 200.851 255.644 200.851C257.121 200.851 258.36 199.659 258.36 198.135C258.36 199.612 259.551 200.851 261.076 200.851C259.599 200.851 258.36 202.042 258.36 203.567Z" fill="#E4E7EC"/>
<path d="M212.709 168.4C212.709 167.542 212.042 166.875 211.185 166.875C212.042 166.875 212.709 166.208 212.709 165.35C212.709 166.208 213.377 166.875 214.234 166.875C213.377 166.923 212.709 167.59 212.709 168.4Z" fill="#E4E7EC"/>
<path d="M245.684 171.498C245.684 169.401 243.969 167.685 241.872 167.685C243.969 167.685 245.684 165.97 245.684 163.873C245.684 165.97 247.4 167.685 249.496 167.685C247.4 167.733 245.684 169.401 245.684 171.498Z" fill="#E4E7EC"/>
<path d="M56.5562 194.179C56.5562 191.654 54.5072 189.653 52.0293 189.653C54.5548 189.653 56.5562 187.604 56.5562 185.126C56.5562 187.651 58.6052 189.653 61.0831 189.653C58.5575 189.653 56.5562 191.654 56.5562 194.179Z" fill="#E4E7EC"/>
<path d="M103.445 197.753C103.445 196.324 102.302 195.18 100.872 195.18C102.302 195.18 103.445 194.036 103.445 192.607C103.445 194.036 104.589 195.18 106.018 195.18C104.589 195.18 103.445 196.371 103.445 197.753Z" fill="#E4E7EC"/>
<path d="M70.566 205.377C70.566 204.424 69.8036 203.662 68.8506 203.662C69.8036 203.662 70.566 202.9 70.566 201.947C70.566 202.9 71.3284 203.662 72.2815 203.662C71.3284 203.662 70.566 204.424 70.566 205.377Z" fill="#E4E7EC"/>
</g>
<defs>
<filter id="filter0_i_389_80617" x="0" y="0" width="280" height="284" filterUnits="userSpaceOnUse" color-interpolation-filters="sRGB">
<feFlood flood-opacity="0" result="BackgroundImageFix"/>
<feBlend mode="normal" in="SourceGraphic" in2="BackgroundImageFix" result="shape"/>
<feColorMatrix in="SourceAlpha" type="matrix" values="0 0 0 0 0 0 0 0 0 0 0 0 0 0 0 0 0 0 127 0" result="hardAlpha"/>
<feOffset dy="24"/>
<feGaussianBlur stdDeviation="2"/>
<feComposite in2="hardAlpha" operator="arithmetic" k2="-1" k3="1"/>
<feColorMatrix type="matrix" values="0 0 0 0 0.866667 0 0 0 0 0.866667 0 0 0 0 0.866667 0 0 0 0.07 0"/>
<feBlend mode="normal" in2="shape" result="effect1_innerShadow_389_80617"/>
</filter>
</defs>
</svg>
