<svg width="12" height="14" viewBox="0 0 12 14" fill="none" xmlns="http://www.w3.org/2000/svg">
<path d="M10.0198 1.71914C8.9112 0.610534 7.4372 0 5.86947 0C4.30171 0 2.82777 0.610506 1.71911 1.71914C0.610534 2.82771 0 4.3016 0 5.86936C0 7.43712 0.610534 8.91106 1.71911 10.0197L5.57946 13.8799C5.65955 13.96 5.76452 14 5.86947 14C5.97444 14 6.07941 13.9599 6.15948 13.8799L10.0197 10.0197C11.1283 8.91109 11.7388 7.43715 11.7388 5.86939C11.7388 4.30157 11.1283 2.82768 10.0198 1.71914ZM7.71277 7.71261C7.22042 8.20496 6.56581 8.47613 5.8695 8.47613C5.17318 8.47613 4.51857 8.20499 4.02625 7.71264C3.53387 7.22028 3.26272 6.56567 3.26272 5.86936C3.26272 5.17307 3.53387 4.51846 4.02625 4.02608C4.51857 3.53373 5.17318 3.26259 5.8695 3.26259C6.56581 3.26259 7.22042 3.53373 7.71277 4.02608C8.20513 4.51841 8.4763 5.17302 8.4763 5.86933C8.47627 6.56564 8.2051 7.22028 7.71277 7.71261Z" fill="#DB242D"/>
</svg>
