<svg width="20" height="21" viewBox="0 0 20 21" fill="none" xmlns="http://www.w3.org/2000/svg">
<path d="M15 9.45829C14.6583 9.45829 14.375 9.17496 14.375 8.83329V7.16663C14.375 4.54163 13.6333 2.79163 10 2.79163C6.36667 2.79163 5.625 4.54163 5.625 7.16663V8.83329C5.625 9.17496 5.34167 9.45829 5 9.45829C4.65833 9.45829 4.375 9.17496 4.375 8.83329V7.16663C4.375 4.74996 4.95833 1.54163 10 1.54163C15.0417 1.54163 15.625 4.74996 15.625 7.16663V8.83329C15.625 9.17496 15.3417 9.45829 15 9.45829Z" fill="#667085"/>
<path d="M14.1667 19.4584H5.83342C2.15841 19.4584 1.04175 18.3417 1.04175 14.6667V13C1.04175 9.32504 2.15841 8.20837 5.83342 8.20837H14.1667C17.8417 8.20837 18.9584 9.32504 18.9584 13V14.6667C18.9584 18.3417 17.8417 19.4584 14.1667 19.4584ZM5.83342 9.45837C2.85008 9.45837 2.29175 10.025 2.29175 13V14.6667C2.29175 17.6417 2.85008 18.2084 5.83342 18.2084H14.1667C17.1501 18.2084 17.7084 17.6417 17.7084 14.6667V13C17.7084 10.025 17.1501 9.45837 14.1667 9.45837H5.83342Z" fill="#667085"/>
<path d="M6.66659 14.6667C6.55825 14.6667 6.44991 14.6417 6.34991 14.6001C6.24158 14.5584 6.15826 14.5 6.07493 14.425C5.92493 14.2667 5.83325 14.0584 5.83325 13.8334C5.83325 13.7251 5.85824 13.6167 5.89991 13.5167C5.94157 13.4084 5.99993 13.3251 6.07493 13.2417C6.15826 13.1667 6.24158 13.1084 6.34991 13.0667C6.64991 12.9334 7.02491 13.0084 7.25824 13.2417C7.33324 13.3251 7.3916 13.4167 7.43326 13.5167C7.47493 13.6167 7.49992 13.7251 7.49992 13.8334C7.49992 14.0501 7.40824 14.2667 7.25824 14.425C7.09991 14.575 6.88325 14.6667 6.66659 14.6667Z" fill="#667085"/>
<path d="M10.0001 14.6667C9.78341 14.6667 9.56676 14.575 9.40842 14.425C9.25842 14.2667 9.16675 14.0583 9.16675 13.8333C9.16675 13.725 9.1834 13.6167 9.2334 13.5167C9.27507 13.4167 9.33342 13.325 9.40842 13.2417C9.60009 13.05 9.89175 12.9583 10.1584 13.0167C10.2167 13.025 10.2668 13.0417 10.3168 13.0667C10.3668 13.0833 10.4167 13.1084 10.4667 13.1417C10.5084 13.1667 10.5501 13.2083 10.5917 13.2417C10.6667 13.325 10.7251 13.4167 10.7668 13.5167C10.8084 13.6167 10.8334 13.725 10.8334 13.8333C10.8334 14.0583 10.7417 14.2667 10.5917 14.425C10.5501 14.4583 10.5084 14.4917 10.4667 14.525C10.4167 14.5583 10.3668 14.5834 10.3168 14.6C10.2668 14.625 10.2167 14.6417 10.1584 14.65C10.1084 14.6584 10.0501 14.6667 10.0001 14.6667Z" fill="#667085"/>
<path d="M13.3333 14.6667C13.1083 14.6667 12.9 14.575 12.7417 14.425C12.6667 14.3417 12.6083 14.25 12.5667 14.15C12.525 14.05 12.5 13.9417 12.5 13.8333C12.5 13.6167 12.5917 13.4 12.7417 13.2417C12.7833 13.2083 12.825 13.175 12.8667 13.1417C12.9167 13.1084 12.9667 13.0833 13.0167 13.0667C13.0667 13.0417 13.1167 13.025 13.1667 13.0167C13.4417 12.9583 13.725 13.05 13.925 13.2417C14.075 13.4 14.1667 13.6083 14.1667 13.8333C14.1667 13.9417 14.1417 14.05 14.1 14.15C14.0583 14.2583 14 14.3417 13.925 14.425C13.7667 14.575 13.55 14.6667 13.3333 14.6667Z" fill="#667085"/>
</svg>
