<svg width="41" height="40" viewBox="0 0 41 40" fill="none" xmlns="http://www.w3.org/2000/svg">
<path d="M0.5 8C0.5 3.58172 4.08172 0 8.5 0H32.5C36.9183 0 40.5 3.58172 40.5 8V32C40.5 36.4183 36.9183 40 32.5 40H8.5C4.08172 40 0.5 36.4183 0.5 32V8Z" fill="#02A89E"/>
<path d="M28.4139 14.0287V13.9665C28.3517 12.9713 27.5223 12.1834 26.5271 12.1834H13.9003C12.8844 12.1834 12.0758 12.9713 12.0136 13.9665V14.0494L11.9721 15.0239C12.9673 15.9984 14.8333 16.9107 18.2751 17.3668C18.2751 17.3668 24.122 18.051 28.7663 21.9282L28.4139 14.0287ZM15.4761 14.2568C15.1236 14.2568 14.8333 13.9665 14.8333 13.614C14.8333 13.2616 15.1236 12.9713 15.4761 12.9713C15.8285 12.9713 16.1188 13.2616 16.1188 13.614C16.1188 13.9665 15.8285 14.2568 15.4761 14.2568ZM24.4952 14.2568C24.1427 14.2568 23.8525 13.9665 23.8525 13.614C23.8525 13.2616 24.1427 12.9713 24.4952 12.9713C24.8477 12.9713 25.138 13.2616 25.138 13.614C25.138 13.9665 24.8684 14.2568 24.4952 14.2568Z" fill="white"/>
<path d="M29.3054 30.201C29.2018 30.3668 29.0774 30.5327 28.9322 30.6986C27.3772 32.5439 24.6196 33 22.3389 33H15.559C18.047 32.8134 21.0327 32.4195 22.7951 30.4498C23.5829 29.5582 24.122 28.3764 24.0391 27.1946C23.9354 25.992 23.2512 24.9553 22.4841 24.0845C21.0949 22.5295 19.3325 21.327 17.6116 20.1659C14.5431 18.134 12.9258 17.3254 11.8892 16.2887C11.6196 16.0191 11.3915 15.7289 11.1842 15.3764C10.9354 14.9617 10.7073 14.4641 10.5 13.8628C10.5415 13.9665 10.7281 14.4226 11.1842 14.9825C11.3708 15.2313 11.6196 15.4801 11.9306 15.7496C12.7807 16.496 14.0869 17.2632 16.0774 17.6571C16.0774 17.6571 25.5112 19.4609 28.7871 23.0478C30.4872 24.9139 30.6531 28.1069 29.3054 30.201Z" fill="white"/>
<path d="M24.4952 11.7273C24.4952 11.8309 24.4952 11.9346 24.4952 12.0383C24.3501 9.88198 22.3804 8.16109 19.996 8.16109C17.5909 8.16109 15.6419 9.88198 15.4968 12.0383C15.4968 11.9346 15.4968 11.8309 15.4968 11.7273C15.4968 9.11483 17.5287 7 20.0167 7C22.4841 7 24.4952 9.11483 24.4952 11.7273Z" fill="white"/>
</svg>
