<svg width="16" height="16" viewBox="0 0 16 16" fill="none" xmlns="http://www.w3.org/2000/svg">
<path d="M4.66602 12V4.70133C4.66597 4.54622 4.71745 4.39548 4.81236 4.27279C4.90728 4.1501 5.04026 4.06242 5.19041 4.0235C5.34057 3.98459 5.4994 3.99666 5.64196 4.0578C5.78451 4.11895 5.90272 4.22572 5.97802 4.36133L10.0207 11.6387C10.096 11.7743 10.2142 11.881 10.3567 11.9422C10.4993 12.0033 10.6581 12.0154 10.8083 11.9765C10.9584 11.9376 11.0914 11.8499 11.1863 11.7272C11.2813 11.6045 11.3327 11.4538 11.3327 11.2987V4" stroke="black" stroke-width="2" stroke-linecap="round" stroke-linejoin="round"/>
<path d="M3.33398 6.66663H12.6673" stroke="black" stroke-width="2" stroke-linecap="round" stroke-linejoin="round"/>
<path d="M3.33398 9.33337H12.6673" stroke="black" stroke-width="2" stroke-linecap="round" stroke-linejoin="round"/>
</svg>
