<svg width="48" height="48" viewBox="0 0 48 48" fill="none" xmlns="http://www.w3.org/2000/svg">
<path d="M0 8C0 3.58172 3.58172 0 8 0H40C44.4183 0 48 3.58172 48 8V40C48 44.4183 44.4183 48 40 48H8C3.58172 48 0 44.4183 0 40V8Z" fill="#02A89E"/>
<path d="M33.4967 16.8344V16.7597C33.422 15.5655 32.4268 14.62 31.2325 14.62H16.0804C14.8612 14.62 13.8909 15.5655 13.8163 16.7597V16.8592L13.7665 18.0286C14.9608 19.198 17.2 20.2927 21.3301 20.8401C21.3301 20.8401 28.3464 21.6611 33.9196 26.3138L33.4967 16.8344ZM17.9713 17.108C17.5483 17.108 17.2 16.7597 17.2 16.3367C17.2 15.9138 17.5483 15.5655 17.9713 15.5655C18.3943 15.5655 18.7426 15.9138 18.7426 16.3367C18.7426 16.7597 18.3943 17.108 17.9713 17.108ZM28.7943 17.108C28.3713 17.108 28.023 16.7597 28.023 16.3367C28.023 15.9138 28.3713 15.5655 28.7943 15.5655C29.2172 15.5655 29.5655 15.9138 29.5655 16.3367C29.5655 16.7597 29.2421 17.108 28.7943 17.108Z" fill="white"/>
<path d="M34.5665 36.241C34.4421 36.4401 34.2928 36.6391 34.1187 36.8382C32.2526 39.0525 28.9435 39.5999 26.2067 39.5999H18.0708C21.0565 39.376 24.6392 38.9032 26.7541 36.5396C27.6995 35.4698 28.3464 34.0516 28.2469 32.6334C28.1225 31.1903 27.3014 29.9463 26.3809 28.9013C24.7139 27.0353 22.599 25.5922 20.534 24.1989C16.8517 21.7607 14.911 20.7903 13.667 19.5463C13.3435 19.2229 13.0699 18.8745 12.8211 18.4516C12.5225 17.954 12.2488 17.3568 12 16.6353C12.0498 16.7597 12.2737 17.3071 12.8211 17.9789C13.045 18.2774 13.3435 18.576 13.7167 18.8994C14.7368 19.7951 16.3043 20.7157 18.6928 21.1884C18.6928 21.1884 30.0134 23.353 33.9445 27.6573C35.9847 29.8966 36.1837 33.7281 34.5665 36.241Z" fill="white"/>
<path d="M28.7943 14.0726C28.7943 14.197 28.7943 14.3214 28.7943 14.4458C28.6201 11.8583 26.2565 9.7932 23.3952 9.7932C20.5091 9.7932 18.1703 11.8583 17.9962 14.4458C17.9962 14.3214 17.9962 14.197 17.9962 14.0726C17.9962 10.9377 20.4345 8.3999 23.4201 8.3999C26.3809 8.3999 28.7943 10.9377 28.7943 14.0726Z" fill="white"/>
</svg>
