<svg width="186" height="180" viewBox="0 0 186 180" fill="none" xmlns="http://www.w3.org/2000/svg">
<path d="M26.5 89.5C26.5 52.7731 56.2731 23 93 23C129.727 23 159.5 52.7731 159.5 89.5C159.5 126.227 129.727 156 93 156C56.2731 156 26.5 126.227 26.5 89.5Z" fill="url(#paint0_linear_3224_60)"/>
<circle cx="93.5" cy="89" r="30" fill="#02A89E"/>
<path fill-rule="evenodd" clip-rule="evenodd" d="M123.5 89C123.5 72.4315 110.069 59 93.5 59C76.9315 59 63.5 72.4315 63.5 89C63.5 105.569 76.9315 119 93.5 119C110.069 119 123.5 105.569 123.5 89ZM77.3261 92.3539C78.0586 91.6214 79.2463 91.6215 79.9786 92.3541L82.5614 94.9376C84.72 97.0969 88.2204 97.0973 90.3795 94.9385L104.994 80.3261C105.726 79.5937 106.914 79.5938 107.646 80.3262C108.379 81.0587 108.379 82.2463 107.646 82.9788L91.7088 98.9162C88.8168 101.808 84.1282 101.808 81.2362 98.9163L77.3261 95.0061C76.5937 94.2737 76.5937 93.0863 77.3261 92.3539Z" fill="white"/>
<circle cx="178.5" cy="27" r="7" fill="#A4E1DA"/>
<circle cx="20.5" cy="10" r="10" fill="#A4E1DA"/>
<circle cx="11" cy="133.5" r="4.5" fill="#A4E1DA"/>
<circle cx="63" cy="176.5" r="3.5" fill="#A4E1DA"/>
<circle cx="166" cy="160.5" r="2.5" fill="#A4E1DA"/>
<circle cx="171" cy="110.5" r="2.5" fill="#A4E1DA"/>
<circle cx="107" cy="4.5" r="2.5" fill="#A4E1DA"/>
<circle cx="1.5" cy="75" r="1" fill="#A4E1DA"/>
<circle cx="122.5" cy="171" r="1" fill="#A4E1DA"/>
<defs>
<linearGradient id="paint0_linear_3224_60" x1="26.4979" y1="155.999" x2="159.498" y2="22.9984" gradientUnits="userSpaceOnUse">
<stop stop-color="#005E57"/>
<stop offset="1" stop-color="#02A89E"/>
</linearGradient>
</defs>
</svg>
