<svg width="30" height="30" viewBox="0 0 30 30" fill="none" xmlns="http://www.w3.org/2000/svg">
<rect width="30" height="30" rx="15" fill="#E0F7F6"/>
<g clip-path="url(#clip0_3574_17734)">
<path d="M15 17.6666C16.1046 17.6666 17 16.7712 17 15.6666C17 14.5621 16.1046 13.6666 15 13.6666C13.8954 13.6666 13 14.5621 13 15.6666C13 16.7712 13.8954 17.6666 15 17.6666Z" stroke="#02A89E" stroke-width="1.5" stroke-linecap="round" stroke-linejoin="round"/>
<path d="M21 14.3333V19C21 19.3536 20.8595 19.6927 20.6095 19.9428C20.3594 20.1928 20.0203 20.3333 19.6667 20.3333H10.3333C9.97971 20.3333 9.64057 20.1928 9.39052 19.9428C9.14048 19.6927 9 19.3536 9 19V13C9 12.6463 9.14048 12.3072 9.39052 12.0572C9.64057 11.8071 9.97971 11.6666 10.3333 11.6666M10.3333 11.6666H11.6667C12.0203 11.6666 12.3594 11.5262 12.6095 11.2761C12.8595 11.0261 13 10.6869 13 10.3333C13 10.1565 13.0702 9.98691 13.1953 9.86189C13.3203 9.73686 13.4899 9.66663 13.6667 9.66663H15L10.3333 11.6666Z" stroke="#02A89E" stroke-width="1.5" stroke-linecap="round" stroke-linejoin="round"/>
<path d="M17 11H21" stroke="#02A89E" stroke-width="1.5" stroke-linecap="round" stroke-linejoin="round"/>
<path d="M19 9V13" stroke="#02A89E" stroke-width="1.5" stroke-linecap="round" stroke-linejoin="round"/>
</g>
<defs>
<clipPath id="clip0_3574_17734">
<rect width="16" height="16" fill="white" transform="translate(7 7)"/>
</clipPath>
</defs>
</svg>
