<svg width="64" height="64" viewBox="0 0 64 64" fill="none" xmlns="http://www.w3.org/2000/svg">
<path d="M0 32C0 14.3269 14.3269 0 32 0C49.6731 0 64 14.3269 64 32C64 49.6731 49.6731 64 32 64C14.3269 64 0 49.6731 0 32Z" fill="#E4E7EC"/>
<path d="M44.1875 26.375C44.1875 23.7904 42.0846 21.6875 39.5 21.6875C38.6497 21.6875 37.8484 21.9365 37.1393 22.3538C37.1108 22.1333 37.0742 21.9151 37.0689 21.6875H27.0499C27.0577 21.9466 27.0328 22.1994 27.0069 22.4519C26.2629 21.9768 25.4057 21.6875 24.5 21.6875C21.9154 21.6875 19.8125 23.7904 19.8125 26.375C19.8125 28.1365 20.8066 29.7077 22.3138 30.5067C21.568 32.4689 21.339 34.6048 21.6684 36.7138L25.6252 31.4379C25.9786 30.9655 26.7714 30.9655 27.1248 31.4379L32 37.9372L36.8752 31.4379C37.255 30.9301 37.9894 30.9572 38.3574 31.4141L42.4004 36.4679C42.6966 34.4304 42.4738 32.3657 41.7676 30.4614C43.2252 29.6457 44.1875 28.0896 44.1875 26.375ZM32 32.9375C31.4823 32.9375 31.0625 32.5177 31.0625 32C31.0625 31.4821 31.4823 31.0625 32 31.0625C32.5177 31.0625 32.9375 31.4821 32.9375 32C32.9375 32.5177 32.5177 32.9375 32 32.9375ZM40.9619 28.7502C40.6834 28.2548 40.3819 27.7702 40.0309 27.3125H24.1224C23.7486 27.7854 23.4285 28.2876 23.1337 28.8018C22.2662 28.3126 21.6875 27.4072 21.6875 26.375C21.6875 24.8241 22.9491 23.5625 24.5 23.5625C25.2362 23.5625 25.9278 23.8624 26.4479 24.3658C26.2627 24.7348 26.0489 25.0956 25.776 25.4375H38.4046C38.1202 25.0734 37.8891 24.6631 37.687 24.2341C38.1904 23.8061 38.824 23.5625 39.5 23.5625C41.0509 23.5625 42.3125 24.8241 42.3125 26.375C42.3125 27.3603 41.7749 28.2459 40.9619 28.7502Z" fill="#101828"/>
<path d="M37.6241 16H26.3741C25.628 16 25.1789 16.8339 25.5941 17.4575C26.1076 18.2277 26.4823 19.0579 26.7289 19.8125H37.3028C37.516 19.062 37.8583 18.2358 38.3913 17.4758C38.8272 16.8556 38.3791 16 37.6241 16Z" fill="#101828"/>
<path d="M41.8393 38.7691L37.6491 33.5308L32.7501 40.0621C32.3967 40.5346 31.6038 40.5346 31.2505 40.0621L26.3753 33.5628L22.2598 39.0499C22.7213 40.3025 21.5469 37.2954 23.5221 42.3126H40.4784C42.4585 37.2831 41.4161 39.9678 41.8393 38.7691ZM26.3753 38.5625C25.8575 38.5625 25.4378 38.1428 25.4378 37.625C25.4378 37.1071 25.8575 36.6875 26.3753 36.6875C26.893 36.6875 27.3128 37.1071 27.3128 37.625C27.3128 38.1428 26.893 38.5625 26.3753 38.5625ZM37.6253 38.5625C37.1075 38.5625 36.6878 38.1428 36.6878 37.625C36.6878 37.1071 37.1075 36.6875 37.6253 36.6875C38.143 36.6875 38.5628 37.1071 38.5628 37.625C38.5628 38.1428 38.143 38.5625 37.6253 38.5625Z" fill="#02A89E"/>
<path d="M24.2598 44.1875L25.0344 46.2174C25.4601 47.3006 26.4883 48 27.652 48H36.3476C37.5113 48 38.5394 47.3006 38.9651 46.2174L39.7396 44.1875H24.2598Z" fill="#101828"/>
</svg>
