<svg width="65" height="64" viewBox="0 0 65 64" fill="none" xmlns="http://www.w3.org/2000/svg">
<path d="M0.333008 32C0.333008 14.3269 14.6599 0 32.333 0C50.0061 0 64.333 14.3269 64.333 32C64.333 49.6731 50.0061 64 32.333 64C14.6599 64 0.333008 49.6731 0.333008 32Z" fill="#E4E7EC"/>
<g clip-path="url(#clip0_1736_6147)">
<path d="M46.8476 17.9276L48.2288 16H32.4326L33.8139 17.9276C34.5542 18.9607 34.9528 20.1979 34.9699 21.4558H45.6911C45.7082 20.1994 46.1068 18.9614 46.8476 17.9276Z" fill="#101828"/>
<path d="M44.3124 41.6429L40.3309 39.7662L36.3499 41.6429L32.6514 39.2217C33.0075 40.6777 33.6517 42.0626 34.5672 43.3039L35.8759 45.0781H44.7868L46.0954 43.3039C46.9633 42.1272 47.5878 40.8051 47.9534 39.4168L44.3124 41.6429Z" fill="#101828"/>
<path d="M36.9059 34.6034C35.4989 36.2841 33.8554 36.8609 32.7178 37.0488L36.3485 39.4928L40.3295 37.6162L44.311 39.4928L48.3202 37.0018C48.3614 36.084 48.2935 35.1574 48.1103 34.2424L47.2155 29.7729H38.3812C38.4173 31.1399 38.1875 33.0728 36.9059 34.6034Z" fill="#02A89E"/>
<path d="M37.6884 25.1048L38.1649 27.8963H46.8412L45.9275 23.3325H34.7392L34.0947 26.6602C34.4535 26.5615 37.6884 25.1048 37.6884 25.1048Z" fill="#101828"/>
<path d="M32.3025 35.282C33.163 35.1675 34.4163 34.7541 35.5165 33.4399C37.0428 31.6169 36.2959 27.7261 36.2959 27.7261L35.4567 28.1067C35.4432 28.1128 34.0831 28.7194 32.4373 28.6945C31.5875 28.6794 30.7785 29.0004 30.1724 29.6066C29.0415 30.7374 29.2037 32.0611 29.2009 32.1803L32.3025 35.282Z" fill="#101828"/>
<path d="M26.0205 35.4512L27.9177 33.5539L30.7753 36.4115L28.8781 38.3087L26.0205 35.4512Z" fill="#101828"/>
<path d="M24.6969 36.7791L16.9249 44.5511C16.5433 44.9327 16.333 45.4402 16.333 45.9801C16.3331 46.5199 16.5433 47.0274 16.925 47.4091C17.3189 47.8031 17.8365 48 18.354 48C18.8715 48 19.389 47.8031 19.783 47.4091L27.5549 39.6371L24.6969 36.7791Z" fill="#101828"/>
</g>
<defs>
<clipPath id="clip0_1736_6147">
<rect width="32" height="32" fill="white" transform="translate(16.333 16)"/>
</clipPath>
</defs>
</svg>
