<svg width="65" height="64" viewBox="0 0 65 64" fill="none" xmlns="http://www.w3.org/2000/svg">
<path d="M0.666992 32C0.666992 14.3269 14.9939 0 32.667 0C50.3401 0 64.667 14.3269 64.667 32C64.667 49.6731 50.3401 64 32.667 64C14.9939 64 0.666992 49.6731 0.666992 32Z" fill="#E4E7EC"/>
<g clip-path="url(#clip0_1736_4873)">
<path d="M27.0961 28.4825L19.1392 23.457C15.8457 28.6608 15.8402 35.3311 19.1392 40.5435L27.0961 35.5181C25.74 33.3753 25.7377 30.6288 27.0961 28.4825ZM21.759 35.1888L21.4107 33.3393L23.2602 32.991L23.6085 34.8405L21.759 35.1888ZM23.2604 31.008L21.4109 30.6594L21.7595 28.8099L23.609 29.1585L23.2604 31.008Z" fill="#02A89E"/>
<path d="M33.6077 33.8823C34.6471 33.8823 35.4897 33.0397 35.4897 32.0002C35.4897 30.9608 34.6471 30.1182 33.6077 30.1182C32.5682 30.1182 31.7256 30.9608 31.7256 32.0002C31.7256 33.0397 32.5682 33.8823 33.6077 33.8823Z" fill="#101828"/>
<path d="M44.2529 21.3537C37.8076 14.9085 27.205 15.6353 21.667 22.828L28.0892 26.8841C29.465 25.4014 31.429 24.472 33.6063 24.472C37.7574 24.472 41.1346 27.8491 41.1346 32.0003C41.1346 36.1514 37.7574 39.5285 33.6063 39.5285C31.429 39.5285 29.465 38.5991 28.0892 37.1165L21.667 41.1725C27.2173 48.3812 37.822 49.0776 44.2529 42.6468C50.137 36.7627 50.1377 27.2386 44.2529 21.3537ZM29.1269 23.6711L28.4049 21.933L30.1429 21.2109L30.865 22.949L29.1269 23.6711ZM38.0682 23.6617L36.3286 22.9433L37.047 21.2037L38.7866 21.9221L38.0682 23.6617ZM30.1657 42.7969L28.4261 42.0785L29.1445 40.339L30.8841 41.0574L30.1657 42.7969ZM37.0697 42.7895L36.3476 41.0515L38.0857 40.3294L38.8078 42.0675L37.0697 42.7895ZM43.6735 26.7989L44.3956 28.5369L42.6576 29.259L41.9355 27.521L43.6735 26.7989ZM43.6845 37.1805L41.9449 36.4621L42.6633 34.7225L44.4029 35.4409L43.6845 37.1805Z" fill="#101828"/>
<path d="M33.6062 37.6464C36.8832 37.6464 39.4864 34.8509 39.2359 31.5665C39.0139 28.6582 36.5766 26.354 33.6062 26.354C30.4652 26.354 27.96 28.912 27.96 32.0002C27.96 35.1138 30.4898 37.6464 33.6062 37.6464ZM33.6062 28.2361C35.6817 28.2361 37.3703 29.9247 37.3703 32.0002C37.3703 34.0758 35.6817 35.7643 33.6062 35.7643C31.5306 35.7643 29.842 34.0758 29.842 32.0002C29.842 29.9247 31.5306 28.2361 33.6062 28.2361Z" fill="#101828"/>
</g>
<defs>
<clipPath id="clip0_1736_4873">
<rect width="32" height="32" fill="white" transform="translate(16.667 16)"/>
</clipPath>
</defs>
</svg>
