<svg width="64" height="64" viewBox="0 0 64 64" fill="none" xmlns="http://www.w3.org/2000/svg">
<path d="M0 32C0 14.3269 14.3269 0 32 0C49.6731 0 64 14.3269 64 32C64 49.6731 49.6731 64 32 64C14.3269 64 0 49.6731 0 32Z" fill="#E4E7EC"/>
<g clip-path="url(#clip0_1736_5561)">
<path d="M31.9175 41.2731C31.7082 41.5659 31.4753 41.8431 31.2185 42.0999C29.9734 43.3455 28.3177 44.0315 26.5567 44.0315C24.7957 44.0315 23.1402 43.3455 21.895 42.0999C19.3247 39.5288 19.3247 35.3453 21.895 32.7743C22.1536 32.5155 22.4295 32.2815 22.7202 32.0724C22.0631 31.0336 21.5082 29.9948 21.0831 28.9949C21.0678 28.9588 21.0535 28.9231 21.0385 28.8872C20.3034 29.3223 19.6229 29.8502 19.0039 30.4693C15.0013 34.4732 15.0013 40.9881 19.0039 44.9921C20.943 46.9317 23.5211 48 26.2634 48C29.0057 48 31.5838 46.9317 33.5229 44.9921C34.1333 44.3815 34.6632 43.6949 35.1009 42.9553C35.0657 42.9406 35.0308 42.9266 34.9954 42.9116C33.9954 42.4862 32.9564 41.9308 31.9175 41.2731Z" fill="#101828"/>
<path d="M40.8981 32.3978C39.374 32.5766 37.9768 33.2372 36.9307 34.2836L36.8893 34.3251C36.3768 34.8379 35.6973 35.1196 34.9745 35.1197C34.9745 35.1197 34.9741 35.1197 34.974 35.1197C34.251 35.1197 33.5715 34.8381 33.0604 34.3268L29.5798 30.8451C28.5254 29.7902 28.5255 28.0741 29.5799 27.0194L29.7745 26.8247C30.7581 25.8407 31.3914 24.5264 31.5866 23.0867C30.2538 22.2844 28.9434 21.6788 27.7603 21.3274C25.0054 20.5091 23.5611 21.2036 22.8345 21.9303C21.5742 23.191 21.5445 25.4482 22.7508 28.2861C23.8103 30.7786 25.7603 33.5509 28.1009 35.8922C30.4414 38.2335 33.2129 40.1841 35.7046 41.244C37.0908 41.8336 38.3382 42.1281 39.3986 42.128C40.509 42.128 41.4144 41.8051 42.0591 41.1602C42.787 40.4321 43.4818 38.9841 42.6579 36.2207C42.3053 35.0379 41.6997 33.729 40.8981 32.3978Z" fill="#02A89E"/>
<path d="M45.7903 18.0529C44.3937 16.6943 42.5443 15.9653 40.5814 16.0013C38.6168 16.037 36.7921 16.8335 35.4436 18.2442C34.2733 19.4685 33.5631 21.0733 33.444 22.763C33.2993 24.8137 32.4518 26.7113 31.0575 28.1061L30.8631 28.3006C30.5144 28.6493 30.5144 29.2146 30.863 29.5634L34.3438 33.0453C34.5113 33.2128 34.7386 33.307 34.9756 33.307C35.2125 33.3069 35.4397 33.2127 35.6072 33.0451L35.6503 33.002C37.0963 31.5554 39.0571 30.6856 41.1715 30.5528C42.942 30.4416 44.6085 29.6887 45.864 28.4328C47.2537 27.0426 48.0115 25.1943 47.9978 23.2282C47.9842 21.2625 47.2002 19.4245 45.7903 18.0529Z" fill="#101828"/>
</g>
<defs>
<clipPath id="clip0_1736_5561">
<rect width="32" height="32" fill="white" transform="translate(16 16)"/>
</clipPath>
</defs>
</svg>
