<svg width="64" height="64" viewBox="0 0 64 64" fill="none" xmlns="http://www.w3.org/2000/svg">
<path d="M0 32C0 14.3269 14.3269 0 32 0C49.6731 0 64 14.3269 64 32C64 49.6731 49.6731 64 32 64C14.3269 64 0 49.6731 0 32Z" fill="#E4E7EC"/>
<g clip-path="url(#clip0_1736_10336)">
<path d="M17.709 22.5938H43.1403C43.5771 22.5938 43.8791 22.1572 43.7248 21.7487C43.1339 20.2136 43.1339 18.3802 43.7248 16.8451C43.8791 16.4365 43.5771 16 43.1403 16H17.709C16.7651 16 16 16.7651 16 17.709V20.8847C16 21.8286 16.7651 22.5938 17.709 22.5938Z" fill="#101828"/>
<path d="M30.8203 24.4688V28.2747C30.8112 29.0688 30.0136 29.4088 29.4864 29.1445L27.7656 28.3415L26.0449 29.1445C25.6857 29.3121 25.2516 29.2385 24.966 28.9382C24.7967 28.7602 24.7109 28.5186 24.7109 28.273V24.4688H21.9434C20.9995 24.4688 20.2344 25.2339 20.2344 26.1777V29.3535C20.2344 30.2974 20.9995 31.0625 21.9434 31.0625H47.3747C47.8114 31.0625 48.1134 30.626 47.9591 30.2174C47.3683 28.6823 47.3682 26.8489 47.9591 25.3138C48.1135 24.9052 47.8114 24.4688 47.3747 24.4688H30.8203Z" fill="#02A89E"/>
<path d="M28.1621 26.4573L28.9453 26.8228V24.4688H26.5859V26.8229L27.3692 26.4574C27.6204 26.3401 27.9108 26.3401 28.1621 26.4573Z" fill="#101828"/>
<path d="M35.8379 34.9261C36.0893 34.8088 36.3794 34.8088 36.6309 34.9261L37.4141 35.2916V32.9375H35.0547V35.2916L35.8379 34.9261Z" fill="#101828"/>
<path d="M47.3747 41.4062H21.9434C20.9995 41.4062 20.2344 42.1714 20.2344 43.1152V46.291C20.2344 47.2349 20.9995 48 21.9434 48H47.3747C47.8114 48 48.1134 47.5635 47.9591 47.1549C47.3683 45.6198 47.3682 43.7864 47.9591 42.2513C48.1135 41.8427 47.8114 41.4062 47.3747 41.4062Z" fill="#101828"/>
<path d="M43.1403 39.5312C43.5771 39.5312 43.8791 39.0948 43.7248 38.6862C43.1339 37.1511 43.1339 35.3177 43.7248 33.7826C43.8791 33.374 43.5771 32.9375 43.1403 32.9375H39.2891V36.7434C39.2799 37.5376 38.4823 37.8776 37.9551 37.6133L36.2344 36.8102L34.5137 37.6133C33.8966 37.9078 33.1642 37.4367 33.1797 36.7419V32.9375H17.709C16.7651 32.9375 16 33.7026 16 34.6465V37.8223C16 38.7661 16.7651 39.5312 17.709 39.5312H43.1403Z" fill="#101828"/>
</g>
<defs>
<clipPath id="clip0_1736_10336">
<rect width="32" height="32" fill="white" transform="translate(16 16)"/>
</clipPath>
</defs>
</svg>
