<svg width="65" height="64" viewBox="0 0 65 64" fill="none" xmlns="http://www.w3.org/2000/svg">
<path d="M0.666992 32C0.666992 14.3269 14.9939 0 32.667 0C50.3401 0 64.667 14.3269 64.667 32C64.667 49.6731 50.3401 64 32.667 64C14.9939 64 0.666992 49.6731 0.666992 32Z" fill="#E4E7EC"/>
<g clip-path="url(#clip0_1736_10599)">
<path d="M47.7295 16C47.2117 16 46.792 16.4197 46.792 16.9375V20.0167H36.617V19.95C36.617 19.4323 36.1972 19.0125 35.6795 19.0125C35.1617 19.0125 34.742 19.4323 34.742 19.95V20.0166H30.592V19.95C30.592 19.4323 30.1722 19.0125 29.6545 19.0125C29.1367 19.0125 28.717 19.4323 28.717 19.95V20.0166H18.542V16.9375C18.542 16.4197 18.1222 16 17.6045 16C17.0867 16 16.667 16.4197 16.667 16.9375V47.0625C16.667 47.5802 17.0867 48 17.6045 48C18.1222 48 18.542 47.5802 18.542 47.0625V21.8917H28.717V24.0334H30.592V21.8917H34.742V24.0334H36.617V21.8917H46.792V47.0625C46.792 47.5802 47.2117 48 47.7295 48C48.2472 48 48.667 47.5802 48.667 47.0625V16.9375C48.667 16.4197 48.2472 16 47.7295 16Z" fill="#101828"/>
<path d="M30.7247 26.979V25.9082H28.583V26.979C28.583 27.5695 29.0634 28.0498 29.6538 28.0498C30.2443 28.0498 30.7247 27.5695 30.7247 26.979Z" fill="#101828"/>
<path d="M41.3638 26.1828C41.1881 26.007 40.9496 25.9082 40.701 25.9082H37.7158L39.6771 27.8695C40.2083 28.4007 40.5009 29.107 40.5009 29.8582C40.5009 30.6095 40.2083 31.3158 39.677 31.847L37.4884 34.0356V40.0332C37.4884 40.3618 37.4312 40.6773 37.3271 40.9707H40.701C41.2187 40.9707 41.6385 40.551 41.6385 40.0332V33.259L44.3763 30.5211C44.7425 30.155 44.7425 29.5615 44.3763 29.1953L41.3638 26.1828Z" fill="#101828"/>
<path d="M38.3515 29.1953L35.339 26.1828C35.1633 26.007 34.9248 25.9082 34.6762 25.9082H32.6011V26.979C32.6011 28.6033 31.2796 29.9248 29.6553 29.9248C28.031 29.9248 26.7095 28.6033 26.7095 26.979V25.9082H24.6345C24.3858 25.9082 24.1474 26.007 23.9716 26.1828L20.9592 29.1953C20.593 29.5615 20.593 30.155 20.9592 30.5211L23.697 33.259V40.0332C23.697 40.551 24.1168 40.9707 24.6345 40.9707H34.6762C35.194 40.9707 35.6137 40.551 35.6137 40.0332V33.259L38.3516 30.5211C38.7177 30.155 38.7177 29.5615 38.3515 29.1953Z" fill="#02A89E"/>
</g>
<defs>
<clipPath id="clip0_1736_10599">
<rect width="32" height="32" fill="white" transform="translate(16.667 16)"/>
</clipPath>
</defs>
</svg>
