<svg width="64" height="64" viewBox="0 0 64 64" fill="none" xmlns="http://www.w3.org/2000/svg">
<path d="M0 32C0 14.3269 14.3269 0 32 0C49.6731 0 64 14.3269 64 32C64 49.6731 49.6731 64 32 64C14.3269 64 0 49.6731 0 32Z" fill="#E4E7EC"/>
<g clip-path="url(#clip0_1736_10241)">
<path d="M32.2148 16H16V24.7253H32.2148V16ZM20.7455 21.8606H18.8705V18.8876H20.7455V21.8606Z" fill="#101828"/>
<path d="M39.3065 44.2411H35.8156V46.1252H33.9406V44.2411H25.2471V29.4362H32.2148V26.6006H16V48.0002H42.6157V46.1252H39.3065V44.2411ZM20.7455 35.4568H18.8705V29.4654H20.7455V35.4568Z" fill="#101828"/>
<path d="M27.123 31.311H48.0009V42.3659H27.123V31.311Z" fill="#101828" stroke="#02A89E"/>
</g>
<defs>
<clipPath id="clip0_1736_10241">
<rect width="32" height="32" fill="white" transform="translate(16 16)"/>
</clipPath>
</defs>
</svg>
