<svg width="65" height="64" viewBox="0 0 65 64" fill="none" xmlns="http://www.w3.org/2000/svg">
<path d="M0.333008 32C0.333008 14.3269 14.6599 0 32.333 0C50.0061 0 64.333 14.3269 64.333 32C64.333 49.6731 50.0061 64 32.333 64C14.6599 64 0.333008 49.6731 0.333008 32Z" fill="#E4E7EC"/>
<g clip-path="url(#clip0_1736_14742)">
<path d="M45.0665 28.0962C44.5314 28.0962 44.0978 28.5299 44.0978 29.0649V35.6553C44.0978 36.1903 43.664 36.6241 43.129 36.6241H21.5371C21.002 36.6241 20.5683 36.1903 20.5683 35.6553V29.065C20.5683 28.5299 20.1346 28.0963 19.5996 28.0963H17.513C16.8613 28.0963 16.333 28.6246 16.333 29.2763V39.2639C16.333 39.799 16.7668 40.2327 17.3018 40.2327H20.458V41.3604C20.458 41.8669 20.8471 42.3041 21.3531 42.3264C21.8901 42.3501 22.333 41.9216 22.333 41.3898V40.2327H42.333V41.3604C42.333 41.8669 42.7221 42.3041 43.2281 42.3264C43.7651 42.3501 44.208 41.9217 44.208 41.3899V40.2328H47.3643C47.8993 40.2328 48.333 39.799 48.333 39.264V29.2762C48.333 28.6245 47.8047 28.0962 47.153 28.0962H45.0665Z" fill="#101828"/>
<path d="M22.4439 29.2762V31.0077H31.3966V22.4891C30.8619 21.9838 30.1423 21.6724 29.3531 21.6724H23.0542C21.4147 21.6724 20.0732 23.0138 20.0732 24.6533V26.2994C21.4292 26.6112 22.4439 27.8271 22.4439 29.2762Z" fill="#101828"/>
<path d="M31.3969 32.8828H22.4443V33.3467V34.7491H31.4002C31.3987 34.7276 31.3969 34.7061 31.3969 34.6841V33.3467V32.8828Z" fill="#02A89E"/>
<path d="M42.2243 29.2763C42.2243 27.8267 43.2393 26.6107 44.5957 26.2992V24.6533C44.5957 23.0138 43.2543 21.6724 41.6148 21.6724H35.3159C34.5267 21.6724 33.8071 21.9837 33.2725 22.4891V31.0077H42.2243V29.2763Z" fill="#101828"/>
<path d="M42.2236 33.3467V32.8828H33.2718V33.3467V34.6841C33.2718 34.7061 33.27 34.7276 33.2686 34.7491H42.2237V33.3467H42.2236Z" fill="#02A89E"/>
</g>
<defs>
<clipPath id="clip0_1736_14742">
<rect width="32" height="32" fill="white" transform="translate(16.333 16)"/>
</clipPath>
</defs>
</svg>
