<svg width="64" height="64" viewBox="0 0 64 64" fill="none" xmlns="http://www.w3.org/2000/svg">
<path d="M0 32C0 14.3269 14.3269 0 32 0C49.6731 0 64 14.3269 64 32C64 49.6731 49.6731 64 32 64C14.3269 64 0 49.6731 0 32Z" fill="#E4E7EC"/>
<path d="M40.0339 22.3787C40.6394 22.3787 41.2211 22.4799 41.7638 22.6651V21.4756C41.7638 20.9578 41.344 20.5381 40.8263 20.5381H39.0586C38.5408 20.5381 38.1211 20.9578 38.1211 21.4756V22.7313C38.715 22.5036 39.3597 22.3787 40.0339 22.3787Z" fill="#FBBF24"/>
<path d="M23.9643 22.3787C24.6384 22.3787 25.2831 22.5036 25.8771 22.7313V21.4756C25.8771 20.9578 25.4573 20.5381 24.9396 20.5381H23.1719C22.6541 20.5381 22.2344 20.9578 22.2344 21.4756V22.6651C22.7771 22.4798 23.3588 22.3787 23.9643 22.3787Z" fill="#FBBF24"/>
<path d="M23.9643 22.3787C24.6384 22.3787 25.2831 22.5036 25.8771 22.7313V21.4756C25.8771 20.9578 25.4573 20.5381 24.9396 20.5381H23.1719C22.6541 20.5381 22.2344 20.9578 22.2344 21.4756V22.6651C22.7771 22.4798 23.3588 22.3787 23.9643 22.3787Z" fill="#FBBF24"/>
<path d="M45.3407 27.0072L45.3393 27.0083C44.9852 24.3943 42.7461 22.3789 40.0349 22.3789C38.5045 22.3789 37.1254 23.0218 36.1499 24.0515H27.8501C26.8746 23.0219 25.4955 22.3789 23.9651 22.3789C21.254 22.3789 19.0149 24.3943 18.6607 27.0083L18.6593 27.0072L16.5461 39.5917C16.2901 41.1158 17.1198 42.615 18.5473 43.2074C20.3243 43.945 22.3541 43.0222 22.9666 41.1983L24.8286 35.6543C25.395 36.0671 26.0921 36.3113 26.8466 36.3113C27.818 36.3113 28.6944 35.907 29.3186 35.2582H34.6815C35.3056 35.907 36.182 36.3113 37.1533 36.3113C37.9079 36.3113 38.605 36.0672 39.1714 35.6543L41.0333 41.1983C41.6459 43.0222 43.6757 43.945 45.4527 43.2074C46.8801 42.615 47.7098 41.1158 47.4538 39.5917L45.3407 27.0072Z" fill="#101828"/>
<path d="M41.7657 22.6653V21.5403C41.223 21.355 40.6413 21.2539 40.0358 21.2539C39.3617 21.2539 38.7169 21.3788 38.123 21.6065V22.7315C38.7169 22.5038 39.3617 22.3789 40.0358 22.3789C40.6413 22.3789 41.223 22.48 41.7657 22.6653Z" fill="#101828"/>
<path d="M25.8771 22.7315V21.6065C25.2832 21.3788 24.6384 21.2539 23.9643 21.2539C23.3588 21.2539 22.7771 21.355 22.2344 21.5403V22.6653C22.7771 22.48 23.3588 22.3789 23.9643 22.3789C24.6384 22.379 25.2832 22.5038 25.8771 22.7315Z" fill="#101828"/>
<path d="M26.965 34.389C27.7763 34.389 28.434 33.7314 28.434 32.9201C28.434 32.1088 27.7763 31.4512 26.965 31.4512C26.1538 31.4512 25.4961 32.1088 25.4961 32.9201C25.4961 33.7314 26.1538 34.389 26.965 34.389Z" fill="#017F76"/>
<path d="M37.0353 34.389C37.8466 34.389 38.5043 33.7314 38.5043 32.9201C38.5043 32.1088 37.8466 31.4512 37.0353 31.4512C36.2241 31.4512 35.5664 32.1088 35.5664 32.9201C35.5664 33.7314 36.2241 34.389 37.0353 34.389Z" fill="#017F76"/>
<path d="M26.965 33.2639C26.353 33.2639 25.8287 32.8895 25.6078 32.3574C25.536 32.5307 25.4961 32.7206 25.4961 32.9199C25.4961 33.7312 26.1537 34.3889 26.965 34.3889C27.7763 34.3889 28.434 33.7312 28.434 32.9199C28.434 32.7206 28.3941 32.5307 28.3222 32.3574C28.1013 32.8895 27.5769 33.2639 26.965 33.2639Z" fill="#005E57"/>
<path d="M37.0353 33.2643C36.4233 33.2643 35.899 32.89 35.6782 32.3579C35.6063 32.5312 35.5664 32.7211 35.5664 32.9204C35.5664 33.7317 36.224 34.3893 37.0353 34.3893C37.8466 34.3893 38.5043 33.7317 38.5043 32.9204C38.5043 32.7211 38.4644 32.5312 38.3925 32.3579C38.1716 32.89 37.6472 33.2643 37.0353 33.2643Z" fill="#005E57"/>
<path d="M25.5727 26.8614H24.9978V26.2865C24.9978 25.7372 24.5526 25.292 24.0033 25.292C23.4541 25.292 23.0088 25.7372 23.0088 26.2865V26.8614H22.434C21.8847 26.8614 21.4395 27.3066 21.4395 27.8559C21.4395 28.4051 21.8847 28.8504 22.434 28.8504H23.0088V29.4252C23.0088 29.9745 23.4541 30.4197 24.0033 30.4197C24.5526 30.4197 24.9978 29.9745 24.9978 29.4252V28.8504H25.5727C26.122 28.8504 26.5672 28.4051 26.5672 27.8559C26.5672 27.3066 26.122 26.8614 25.5727 26.8614Z" fill="#005E57"/>
<path d="M40.3181 24.6519C39.823 24.6519 39.418 25.0569 39.418 25.552C39.418 26.047 39.823 26.4521 40.3181 26.4521C40.8132 26.4521 41.2182 26.047 41.2182 25.552C41.2182 25.0569 40.8132 24.6519 40.3181 24.6519Z" fill="#BED8FB"/>
<path d="M40.3181 24.6519C39.823 24.6519 39.418 25.0569 39.418 25.552C39.418 26.047 39.823 26.4521 40.3181 26.4521C40.8132 26.4521 41.2182 26.047 41.2182 25.552C41.2182 25.0569 40.8132 24.6519 40.3181 24.6519Z" fill="#B3E59F"/>
<path d="M40.3181 29.2593C39.823 29.2593 39.418 29.6643 39.418 30.1594C39.418 30.6545 39.823 31.0595 40.3181 31.0595C40.8132 31.0595 41.2182 30.6545 41.2182 30.1594C41.2182 29.6643 40.8132 29.2593 40.3181 29.2593Z" fill="#BED8FB"/>
<path d="M43.5229 27.8557C43.5229 27.3606 43.1178 26.9556 42.6228 26.9556C42.1277 26.9556 41.7227 27.3606 41.7227 27.8557C41.7227 28.3508 42.1277 28.7558 42.6228 28.7558C43.1178 28.7558 43.5229 28.3508 43.5229 27.8557Z" fill="#FBBF24"/>
<path d="M38.9155 27.8557C38.9155 27.3606 38.5104 26.9556 38.0154 26.9556C37.5203 26.9556 37.1152 27.3606 37.1152 27.8557C37.1152 28.3508 37.5203 28.7558 38.0154 28.7558C38.5104 28.7558 38.9155 28.3508 38.9155 27.8557Z" fill="#DF667C"/>
<path d="M27.8496 24.0513H36.1495V24.8849C36.1495 25.5753 35.5899 26.1349 34.8995 26.1349H29.0996C28.4092 26.1349 27.8496 25.5753 27.8496 24.8849V24.0513Z" fill="#344054"/>
<path d="M34.8995 25.0099H29.0996C28.5097 25.0099 28.0166 24.6008 27.8852 24.0513H27.8496V24.8849C27.8496 25.5753 28.4092 26.1349 29.0996 26.1349H34.8995C35.5899 26.1349 36.1495 25.5753 36.1495 24.8849V24.0513H36.1139C35.9825 24.6008 35.4893 25.0099 34.8995 25.0099Z" fill="#667085"/>
<path d="M26.955 30.9819C25.8845 30.9819 25.0137 31.8528 25.0137 32.9232C25.0137 33.9937 25.8845 34.8646 26.955 34.8646C28.0254 34.8646 28.8963 33.9937 28.8963 32.9232C28.8963 31.8528 28.0254 30.9819 26.955 30.9819ZM26.955 33.9254C26.4025 33.9254 25.9529 33.4759 25.9529 32.9233C25.9529 32.3708 26.4024 31.9213 26.955 31.9213C27.5075 31.9213 27.957 32.3708 27.957 32.9233C27.957 33.4758 27.5075 33.9254 26.955 33.9254Z" fill="#98A2B3"/>
<path d="M35.1035 32.9232C35.1035 33.9937 35.9744 34.8646 37.0448 34.8646C38.1153 34.8646 38.9861 33.9937 38.9861 32.9232C38.9861 31.8528 38.1153 30.9819 37.0448 30.9819C35.9744 30.9819 35.1035 31.8528 35.1035 32.9232ZM37.0448 31.9212C37.5974 31.9212 38.0469 32.3707 38.0469 32.9232C38.0469 33.4758 37.5974 33.9253 37.0448 33.9253C36.4923 33.9253 36.0428 33.4758 36.0428 32.9232C36.0428 32.3707 36.4923 31.9212 37.0448 31.9212Z" fill="#98A2B3"/>
<path d="M23.9877 24.8105C23.1793 24.8105 22.5216 25.4682 22.5216 26.2766V26.3829H22.4153C21.6069 26.3829 20.9492 27.0406 20.9492 27.849C20.9492 28.6574 21.6068 29.315 22.4153 29.315H22.5216V29.4214C22.5216 30.2297 23.1793 30.8874 23.9877 30.8874C24.796 30.8874 25.4537 30.2297 25.4537 29.4214V29.315H25.56C26.3684 29.315 27.0261 28.6574 27.0261 27.849C27.0261 27.0406 26.3685 26.3829 25.56 26.3829H25.4537V26.2766C25.4537 25.4682 24.796 24.8105 23.9877 24.8105ZM25.56 27.3222C25.8505 27.3222 26.0868 27.5585 26.0868 27.849C26.0868 28.1394 25.8505 28.3757 25.56 28.3757H24.984C24.7247 28.3757 24.5144 28.586 24.5144 28.8454V29.4214C24.5144 29.7119 24.2781 29.9481 23.9877 29.9481C23.6972 29.9481 23.4608 29.7118 23.4608 29.4214V28.8454C23.4608 28.586 23.2506 28.3757 22.9912 28.3757H22.4153C22.1248 28.3757 21.8885 28.1394 21.8885 27.849C21.8885 27.5585 22.1248 27.3222 22.4153 27.3222H22.9912C23.2506 27.3222 23.4608 27.112 23.4608 26.8526V26.2766C23.4608 25.9861 23.6972 25.7499 23.9877 25.7499C24.2781 25.7499 24.5144 25.9862 24.5144 26.2766V26.8526C24.5144 27.112 24.7247 27.3222 24.984 27.3222H25.56Z" fill="#98A2B3"/>
<path d="M40.3344 24.1689C39.5781 24.1689 38.9629 24.7842 38.9629 25.5404C38.9629 26.2967 39.5781 26.9119 40.3344 26.9119C41.0906 26.9119 41.7059 26.2967 41.7059 25.5404C41.7059 24.7842 41.0906 24.1689 40.3344 24.1689ZM40.3344 25.9727C40.0961 25.9727 39.9022 25.7788 39.9022 25.5405C39.9022 25.3023 40.0961 25.1083 40.3344 25.1083C40.5727 25.1083 40.7666 25.3023 40.7666 25.5405C40.7666 25.7788 40.5727 25.9727 40.3344 25.9727Z" fill="#98A2B3"/>
<path d="M40.3344 28.7856C39.5781 28.7856 38.9629 29.4009 38.9629 30.1571C38.9629 30.9133 39.5781 31.5286 40.3344 31.5286C41.0906 31.5286 41.7059 30.9133 41.7059 30.1571C41.7059 29.4009 41.0906 28.7856 40.3344 28.7856ZM40.3344 30.5893C40.0961 30.5893 39.9022 30.3954 39.9022 30.1571C39.9022 29.9188 40.0961 29.725 40.3344 29.725C40.5727 29.725 40.7666 29.9189 40.7666 30.1571C40.7666 30.3954 40.5727 30.5893 40.3344 30.5893Z" fill="#98A2B3"/>
<path d="M44.0145 27.849C44.0145 27.0928 43.3992 26.4775 42.643 26.4775C41.8867 26.4775 41.2715 27.0928 41.2715 27.849C41.2715 28.6053 41.8867 29.2205 42.643 29.2205C43.3992 29.2205 44.0145 28.6053 44.0145 27.849ZM42.2108 27.849C42.2108 27.6107 42.4047 27.4169 42.643 27.4169C42.8813 27.4169 43.0752 27.6108 43.0752 27.849C43.0752 28.0873 42.8813 28.2812 42.643 28.2812C42.4047 28.2812 42.2108 28.0874 42.2108 27.849Z" fill="#98A2B3"/>
<path d="M36.6543 27.8485C36.6543 28.6048 37.2695 29.22 38.0258 29.22C38.782 29.22 39.3972 28.6048 39.3972 27.8485C39.3972 27.0923 38.782 26.4771 38.0258 26.4771C37.2695 26.4771 36.6543 27.0923 36.6543 27.8485ZM38.458 27.8485C38.458 28.0869 38.2641 28.2807 38.0258 28.2807C37.7875 28.2807 37.5936 28.0868 37.5936 27.8485C37.5936 27.6103 37.7875 27.4164 38.0258 27.4164C38.2641 27.4163 38.458 27.6102 38.458 27.8485Z" fill="#98A2B3"/>
<path d="M30.6136 29.6673C30.873 29.6673 31.0832 29.457 31.0832 29.1977C31.0832 28.9383 30.873 28.728 30.6136 28.728H29.2079C28.9485 28.728 28.7383 28.9383 28.7383 29.1977C28.7383 29.457 28.9485 29.6673 29.2079 29.6673H30.6136Z" fill="#101828"/>
<path d="M34.7933 28.728H33.3876C33.1282 28.728 32.918 28.9383 32.918 29.1977C32.918 29.457 33.1282 29.6673 33.3876 29.6673H34.7933C35.0527 29.6673 35.2629 29.457 35.2629 29.1977C35.2629 28.9382 35.0527 28.728 34.7933 28.728Z" fill="#101828"/>
</svg>
