<svg width="64" height="64" viewBox="0 0 64 64" fill="none" xmlns="http://www.w3.org/2000/svg">
<path d="M0 32C0 14.3269 14.3269 0 32 0C49.6731 0 64 14.3269 64 32C64 49.6731 49.6731 64 32 64C14.3269 64 0 49.6731 0 32Z" fill="#E4E7EC"/>
<g clip-path="url(#clip0_1736_10365)">
<path d="M41.375 41.375C40.3413 41.375 39.5 42.2163 39.5 43.25C39.5 44.2837 40.3413 45.125 41.375 45.125C42.4087 45.125 43.25 44.2837 43.25 43.25C43.25 42.2163 42.4087 41.375 41.375 41.375Z" fill="#101828"/>
<path d="M25.4375 39.5C23.8867 39.5 22.625 40.7617 22.625 42.3125C22.625 43.8633 23.8867 45.125 25.4375 45.125C26.9883 45.125 28.25 43.8633 28.25 42.3125C28.25 40.7617 26.9883 39.5 25.4375 39.5Z" fill="#101828"/>
<path d="M23.5625 32.2412V21.6875C23.5625 20.1343 22.3033 18.875 20.75 18.875H16.9637C16.4585 18.875 16.0242 19.2637 16.001 19.7681C15.9764 20.3066 16.4046 20.75 16.9375 20.75H20.75C21.2679 20.75 21.6875 21.1697 21.6875 21.6875V31.8083L19.8611 36.3909C19.7806 36.6308 19.8006 36.8926 19.917 37.1169L21.3946 39.9827C22.2058 38.581 23.7049 37.625 25.4375 37.625C28.022 37.625 30.125 39.728 30.125 42.3125C30.125 42.6335 30.0921 42.947 30.0301 43.25H37.625C37.625 41.1819 39.3069 39.5 41.375 39.5C43.4431 39.5 45.125 41.1819 45.125 43.25H47.0625C47.5803 43.25 48 42.8303 48 42.3125V38.612C48 38.1753 47.6985 37.7964 47.273 37.6985L23.5625 32.2412ZM32.9375 39.5C32.9375 40.0329 32.4942 40.4612 31.9556 40.4365C31.4512 40.4133 31.0625 39.979 31.0625 39.4739V37.6511C31.0625 37.146 31.4512 36.7117 31.9556 36.6885C32.4942 36.6638 32.9375 37.092 32.9375 37.625V39.5ZM36.6875 39.5C36.6875 40.0329 36.2442 40.4612 35.7056 40.4365C35.2012 40.4133 34.8125 39.979 34.8125 39.4739V37.6511C34.8125 37.146 35.2012 36.7117 35.7056 36.6885C36.2442 36.6638 36.6875 37.092 36.6875 37.625V39.5Z" fill="#101828"/>
<path d="M28.25 30.125H29.1875V31.6145L40.4375 34.2107V30.125H41.375C41.8933 30.125 42.3125 29.7058 42.3125 29.1875C42.3125 28.6694 41.8933 28.25 41.375 28.25H28.25C27.7319 28.25 27.3125 28.6694 27.3125 29.1875C27.3125 29.7058 27.7319 30.125 28.25 30.125Z" fill="#02A89E"/>
<path d="M34.8125 24.5C33.4304 24.5 32.2344 25.2595 31.584 26.375H38.041C37.3906 25.2595 36.1946 24.5 34.8125 24.5Z" fill="#101828"/>
</g>
<defs>
<clipPath id="clip0_1736_10365">
<rect width="32" height="32" fill="white" transform="translate(16 16)"/>
</clipPath>
</defs>
</svg>
