<svg width="64" height="64" viewBox="0 0 64 64" fill="none" xmlns="http://www.w3.org/2000/svg">
<path d="M0 32C0 14.3269 14.3269 0 32 0C49.6731 0 64 14.3269 64 32C64 49.6731 49.6731 64 32 64C14.3269 64 0 49.6731 0 32Z" fill="#E4E7EC"/>
<g clip-path="url(#clip0_1736_13783)">
<path d="M46.8703 21.1067C45.9883 19.5824 44.7205 18.3041 43.2045 17.4098C41.6408 16.4875 39.8501 16 38.0256 16C36.2012 16 34.4102 16.4875 32.8467 17.4098C31.3305 18.3041 30.0628 19.5825 29.1808 21.1067C29.0007 21.4179 29.0144 21.8045 29.216 22.1021L33.248 28.0536C33.2713 28.0519 33.2947 28.05 33.3185 28.05H36.2227L35.6299 26.2714C35.4662 25.7803 35.7317 25.2493 36.2228 25.0856C36.7141 24.9219 37.245 25.1874 37.4087 25.6785L38.0256 27.5292L38.6425 25.6785C38.8062 25.1873 39.337 24.9218 39.8283 25.0856C40.3195 25.2493 40.585 25.7802 40.4213 26.2714L39.8285 28.05H42.7327C42.7565 28.05 42.7798 28.0518 42.8033 28.0536L46.8352 22.1021C47.0367 21.8045 47.0504 21.4179 46.8703 21.1067Z" fill="#101828"/>
<path d="M34.0742 46.0584C34.0742 47.129 34.9452 48 36.0158 48H40.0326C41.1032 48 41.9742 47.129 41.9742 46.0584V29.925H34.0742V46.0584Z" fill="#02A89E"/>
<path d="M18.0078 27.9167H26.912V37.0876H18.0078V27.9167Z" fill="#101828"/>
<path d="M17.0039 46.0583C17.0039 47.1289 17.8749 47.9999 18.9455 47.9999H25.9748C27.0454 47.9999 27.9164 47.1289 27.9164 46.0583V38.9624H17.0039V46.0583Z" fill="#101828"/>
<path d="M25.9076 17.9416C25.9076 17.0092 25.2423 16.3062 24.3601 16.3062C24.137 16.3062 23.9114 16.3512 23.6896 16.44L20.5334 17.7024C19.6659 18.0494 19.0117 19.0157 19.0117 19.95V26.0417H25.9076V17.9416Z" fill="#101828"/>
</g>
<defs>
<clipPath id="clip0_1736_13783">
<rect width="32" height="32" fill="white" transform="translate(16 16)"/>
</clipPath>
</defs>
</svg>
