<svg width="65" height="64" viewBox="0 0 65 64" fill="none" xmlns="http://www.w3.org/2000/svg">
<path d="M0.333008 32C0.333008 14.3269 14.6599 0 32.333 0C50.0061 0 64.333 14.3269 64.333 32C64.333 49.6731 50.0061 64 32.333 64C14.6599 64 0.333008 49.6731 0.333008 32Z" fill="#E4E7EC"/>
<path d="M41.9696 19.875H38.8954H37.9579H21.1096C20.7554 19.875 20.4192 20.0606 20.2542 20.3739C20.0729 20.718 20.1246 21.1261 20.3632 21.4123L20.3626 21.4127L23.2703 24.9019V24.9019V27.5556C23.2703 30.3618 24.0075 33.0883 25.4096 35.5001H36.756C37.553 34.1291 38.1349 32.6563 38.489 31.1251H39.9201C41.0197 31.1251 41.9921 30.4242 42.3399 29.381L44.3895 23.2323C44.4764 22.9718 44.5204 22.7004 44.5204 22.4258C44.5203 21.0193 43.3761 19.875 41.9696 19.875ZM31.0829 29.25C31.6006 29.25 32.0204 29.6698 32.0204 30.1875C32.0204 30.7052 31.6006 31.125 31.0829 31.125H30.1454V32.0625C30.1454 32.5802 29.7256 33 29.2079 33C28.6901 33 28.2704 32.5802 28.2704 32.0625V24.5625C28.2704 24.0448 28.6901 23.625 29.2079 23.625C29.7256 23.625 30.1454 24.0448 30.1454 24.5625V25.5H31.0829C31.6006 25.5 32.0204 25.9198 32.0204 26.4375C32.0204 26.9552 31.6006 27.375 31.0829 27.375H30.1454V29.25H31.0829ZM42.6107 22.6394L40.5611 28.7879C40.469 29.0643 40.2114 29.25 39.9201 29.25H38.8046C38.8645 28.6897 38.8954 28.1243 38.8954 27.5556V21.75H41.9696C42.3422 21.75 42.6454 22.0531 42.6454 22.4257C42.6453 22.4985 42.6337 22.5704 42.6107 22.6394Z" fill="#101828"/>
<path d="M25.7705 37.375H36.3955V39.25H25.7705V37.375Z" fill="#02A89E"/>
<path d="M35.4582 16H26.7082C25.3259 16 24.1322 16.8207 23.5869 18H38.5795C38.0342 16.8207 36.8406 16 35.4582 16Z" fill="#101828"/>
<path d="M39.9779 43.4751C39.7509 42.1134 38.5842 41.125 37.2037 41.125H24.9637C23.5832 41.125 22.4164 42.1134 22.1894 43.4751L21.6173 46.9084C21.5719 47.1802 21.6486 47.4582 21.8267 47.6685C22.0048 47.8788 22.2664 48 22.542 48H39.6254C39.9009 48 40.1626 47.8788 40.3407 47.6685C40.5188 47.4582 40.5954 47.1802 40.5501 46.9084L39.9779 43.4751ZM27.3338 45.5C26.816 45.5 26.3963 45.0803 26.3963 44.5625C26.3963 44.0447 26.816 43.625 27.3338 43.625C27.8515 43.625 28.2713 44.0447 28.2713 44.5625C28.2713 45.0803 27.8515 45.5 27.3338 45.5ZM31.0838 45.5C30.566 45.5 30.1463 45.0803 30.1463 44.5625C30.1463 44.0447 30.566 43.625 31.0838 43.625C31.6015 43.625 32.0213 44.0447 32.0213 44.5625C32.0213 45.0803 31.6015 45.5 31.0838 45.5ZM34.8338 45.5C34.316 45.5 33.8963 45.0803 33.8963 44.5625C33.8963 44.0447 34.316 43.625 34.8338 43.625C35.3515 43.625 35.7713 44.0447 35.7713 44.5625C35.7713 45.0803 35.3515 45.5 34.8338 45.5Z" fill="#101828"/>
</svg>
