<svg width="65" height="64" viewBox="0 0 65 64" fill="none" xmlns="http://www.w3.org/2000/svg">
<path d="M0.666992 32C0.666992 14.3269 14.9939 0 32.667 0C50.3401 0 64.667 14.3269 64.667 32C64.667 49.6731 50.3401 64 32.667 64C14.9939 64 0.666992 49.6731 0.666992 32Z" fill="#E4E7EC"/>
<g clip-path="url(#clip0_1736_10374)">
<path d="M29.7481 22.6545C28.058 21.4158 26.324 19.8891 25.0899 18.0379L24.0095 16.4174C23.7806 16.0741 23.354 15.9212 22.9576 16.0402C22.5621 16.1601 22.292 16.5245 22.292 16.9375V31.6465C21.7382 31.3235 21.1031 31.125 20.417 31.125C18.3488 31.125 16.667 32.8068 16.667 34.875C16.667 36.9431 18.3488 38.6249 20.417 38.6249C22.4852 38.6249 24.167 36.9431 24.167 34.8749V20.0156C25.4917 21.6901 27.1489 23.0738 28.6394 24.1669C29.3717 24.7034 29.792 25.5311 29.792 26.4374C29.792 27.9883 28.5304 29.2499 26.9795 29.2499C26.4613 29.2499 26.042 29.6692 26.042 30.1874C26.042 30.7056 26.4613 31.1249 26.9795 31.1249C29.5641 31.1249 31.667 29.022 31.667 26.4374C31.667 24.9496 30.9501 23.5361 29.7481 22.6545Z" fill="#02A89E"/>
<path d="M47.4722 23.6606L34.2222 27.4106C33.8194 27.526 33.542 27.894 33.542 28.3124V41.0214C32.9882 40.6985 32.3531 40.4999 31.667 40.4999C29.5988 40.4999 27.917 42.1817 27.917 44.2499C27.917 46.3181 29.5988 47.9999 31.667 47.9999C33.7352 47.9999 35.417 46.3181 35.417 44.2499C35.417 44.0362 35.417 32.7699 35.417 32.7699L46.792 29.5556V37.2714C46.2382 36.9485 45.6031 36.7499 44.917 36.7499C42.8488 36.7499 41.167 38.4317 41.167 40.4999C41.167 42.5681 42.8488 44.2499 44.917 44.2499C46.9852 44.2499 48.667 42.5681 48.667 40.4999C48.667 40.2862 48.667 24.5624 48.667 24.5624C48.667 23.9424 48.0739 23.4907 47.4722 23.6606Z" fill="#101828"/>
</g>
<defs>
<clipPath id="clip0_1736_10374">
<rect width="32" height="32" fill="white" transform="translate(16.667 16)"/>
</clipPath>
</defs>
</svg>
