<svg width="64" height="64" viewBox="0 0 64 64" fill="none" xmlns="http://www.w3.org/2000/svg">
<path d="M0 32C0 14.3269 14.3269 0 32 0C49.6731 0 64 14.3269 64 32C64 49.6731 49.6731 64 32 64C14.3269 64 0 49.6731 0 32Z" fill="#E4E7EC"/>
<path d="M44.1875 40.5H41.6979V44.25C41.6979 44.7677 41.2782 45.1875 40.7604 45.1875C40.2427 45.1875 39.8229 44.7677 39.8229 44.25V40.5H37.3334V43.3125C37.3334 43.8303 36.9136 44.25 36.3959 44.25C35.8781 44.25 35.4584 43.8303 35.4584 43.3125V40.5H32.9688V44.25C32.9688 44.7677 32.549 45.1875 32.0312 45.1875C31.5135 45.1875 31.0938 44.7677 31.0938 44.25V40.5H28.6042V43.3125C28.6042 43.8303 28.1844 44.25 27.6667 44.25C27.1489 44.25 26.7292 43.8303 26.7292 43.3125V40.5H24.2396V44.25C24.2396 44.7677 23.8199 45.1875 23.3021 45.1875C22.7844 45.1875 22.3646 44.7677 22.3646 44.25V40.5H19.875C19.3572 40.5 18.9375 40.9197 18.9375 41.4375V47.0625C18.9375 47.5802 19.3572 48 19.875 48H44.1875C44.7052 48 45.125 47.5802 45.125 47.0625V41.4375C45.125 40.9197 44.7052 40.5 44.1875 40.5Z" fill="#101828"/>
<path d="M24.5 20.6876C24.5 20.299 24.4497 20.4397 22.5261 16.5184C22.1814 15.829 21.1941 15.828 20.849 16.5184C18.9252 20.4399 18.875 20.2986 18.875 20.6876V32.8782H24.5V20.6876Z" fill="#02A89E"/>
<path d="M19.8125 38.5625H23.5625C24.0802 38.5625 24.5 38.1428 24.5 37.625V34.7532H18.875V37.625C18.875 38.1428 19.2947 38.5625 19.8125 38.5625Z" fill="#02A89E"/>
<path d="M33 23.5625H38.5625V25.4375H33V23.5625Z" fill="#101828"/>
<path d="M42.3125 16H27.375C26.8572 16 26.4375 16.4197 26.4375 16.9375V37.625C26.4375 38.1427 26.8572 38.5625 27.375 38.5625H42.2019C43.8137 38.5625 45.125 37.2512 45.125 35.6394V18.8125C45.125 17.2617 43.8633 16 42.3125 16ZM39.5 31.0625H32.0625C31.5448 31.0625 31.125 30.6427 31.125 30.125C31.125 29.6073 31.5448 29.1875 32.0625 29.1875H39.5C40.0177 29.1875 40.4375 29.6073 40.4375 30.125C40.4375 30.6427 40.0177 31.0625 39.5 31.0625ZM40.4375 26.375C40.4375 26.8927 40.0177 27.3125 39.5 27.3125H32.0625C31.5448 27.3125 31.125 26.8927 31.125 26.375V22.625C31.125 22.1073 31.5448 21.6875 32.0625 21.6875H39.5C40.0177 21.6875 40.4375 22.1073 40.4375 22.625V26.375Z" fill="#101828"/>
</svg>
