<svg width="65" height="64" viewBox="0 0 65 64" fill="none" xmlns="http://www.w3.org/2000/svg">
<path d="M0.333008 32C0.333008 14.3269 14.6599 0 32.333 0C50.0061 0 64.333 14.3269 64.333 32C64.333 49.6731 50.0061 64 32.333 64C14.6599 64 0.333008 49.6731 0.333008 32Z" fill="#E4E7EC"/>
<g clip-path="url(#clip0_1736_10300)">
<path d="M37.7325 32.9597C36.2926 30.7134 33.8402 29.3721 31.1722 29.3721C28.5043 29.3721 26.0519 30.7134 24.6122 32.9597L21.1425 38.3726C20.5668 39.2705 20.3011 40.3081 20.3741 41.3723C20.4471 42.4368 20.8522 43.428 21.5453 44.2395C22.2389 45.0503 23.1554 45.6045 24.1957 45.8423C25.236 46.0801 26.3024 45.9785 27.2794 45.5491L27.3448 45.52C29.8033 44.4609 32.6127 44.4707 35.0648 45.5491C35.6974 45.8271 36.3675 45.9678 37.0438 45.9678C37.4115 45.9678 37.7814 45.926 38.1478 45.8425C39.1881 45.605 40.1046 45.0508 40.7985 44.2397C41.4918 43.429 41.8971 42.4375 41.9703 41.3728C42.0436 40.3081 41.7779 39.2708 41.2023 38.3723L37.7325 32.9597Z" fill="#02A89E"/>
<path d="M22.0764 32.9526C23.1087 32.5561 23.8928 31.7243 24.2844 30.6103C24.6572 29.5503 24.6267 28.3535 24.1983 27.2402C23.7696 26.1277 22.9898 25.2195 22.0025 24.6826C20.9654 24.1189 19.826 24.0271 18.7954 24.4243C16.7222 25.2214 15.7708 27.7834 16.6748 30.1367C17.397 32.0097 19.0813 33.1921 20.7842 33.1921C21.219 33.1921 21.6551 33.115 22.0764 32.9526Z" fill="#101828"/>
<path d="M28.8083 28.7117C31.4001 28.7117 33.5088 26.3093 33.5088 23.3564C33.5088 20.4028 31.4001 18 28.8083 18C26.2168 18 24.1084 20.4028 24.1084 23.3564C24.1084 26.3093 26.2168 28.7117 28.8083 28.7117Z" fill="#101828"/>
<path d="M36.9261 30.0272H36.9263C37.325 30.1595 37.7317 30.2228 38.1368 30.2228C40.0269 30.2228 41.8689 28.847 42.5718 26.7328C42.9766 25.5157 42.95 24.2289 42.4969 23.1095C42.0228 21.9376 41.1441 21.087 40.0225 20.7142C38.9007 20.3414 37.6876 20.4969 36.6063 21.1517C35.5733 21.7772 34.7818 22.7921 34.3775 24.0091C33.5242 26.5765 34.6675 29.2762 36.9261 30.0272Z" fill="#101828"/>
<path d="M46.8261 29.4024L46.8254 29.4017C45.038 28.0814 42.3649 28.6536 40.8662 30.678C39.3688 32.7034 39.603 35.4263 41.3876 36.7476C42.0385 37.2298 42.8076 37.4603 43.5947 37.4603C44.9665 37.4603 46.3937 36.7601 47.3478 35.4725C48.8449 33.4471 48.611 30.7242 46.8261 29.4024Z" fill="#101828"/>
</g>
<defs>
<clipPath id="clip0_1736_10300">
<rect width="32" height="32" fill="white" transform="translate(16.333 16)"/>
</clipPath>
</defs>
</svg>
