<svg width="327" height="83" viewBox="0 0 327 83" fill="none" xmlns="http://www.w3.org/2000/svg">
<path d="M0 4C0 1.79086 1.79086 0 4 0H323C325.209 0 327 1.79086 327 4V79C327 81.2091 325.209 83 323 83H4C1.79086 83 0 81.2091 0 79V4Z" fill="#FEF0C7"/>
<path d="M23.1641 21.835H24.4766C24.4082 22.4639 24.2282 23.0267 23.9365 23.5234C23.6449 24.0202 23.2324 24.4144 22.6992 24.7061C22.166 24.9932 21.5007 25.1367 20.7031 25.1367C20.1198 25.1367 19.5889 25.0273 19.1104 24.8086C18.6364 24.5898 18.2285 24.2799 17.8867 23.8789C17.5449 23.4733 17.2806 22.988 17.0938 22.4229C16.9115 21.8532 16.8203 21.2197 16.8203 20.5225V19.5312C16.8203 18.834 16.9115 18.2028 17.0938 17.6377C17.2806 17.068 17.5472 16.5804 17.8936 16.1748C18.2445 15.7692 18.666 15.457 19.1582 15.2383C19.6504 15.0195 20.2041 14.9102 20.8193 14.9102C21.5713 14.9102 22.207 15.0514 22.7266 15.334C23.2461 15.6165 23.6494 16.0085 23.9365 16.5098C24.2282 17.0065 24.4082 17.583 24.4766 18.2393H23.1641C23.1003 17.7744 22.9818 17.3757 22.8086 17.043C22.6354 16.7057 22.3893 16.446 22.0703 16.2637C21.7513 16.0814 21.3343 15.9902 20.8193 15.9902C20.3773 15.9902 19.9876 16.0745 19.6504 16.2432C19.3177 16.4118 19.0374 16.651 18.8096 16.9609C18.5863 17.2708 18.4176 17.6423 18.3037 18.0752C18.1898 18.5081 18.1328 18.9889 18.1328 19.5176V20.5225C18.1328 21.0101 18.1829 21.4681 18.2832 21.8965C18.388 22.3249 18.5452 22.7008 18.7549 23.0244C18.9645 23.348 19.2311 23.6032 19.5547 23.79C19.8783 23.9723 20.2611 24.0635 20.7031 24.0635C21.2637 24.0635 21.7103 23.9746 22.043 23.7969C22.3757 23.6191 22.6263 23.3639 22.7949 23.0312C22.9681 22.6986 23.0911 22.2998 23.1641 21.835ZM25.748 21.3838V21.2266C25.748 20.6934 25.8255 20.1989 25.9805 19.7432C26.1354 19.2829 26.3587 18.8841 26.6504 18.5469C26.9421 18.2051 27.2952 17.9408 27.71 17.7539C28.1247 17.5625 28.5895 17.4668 29.1045 17.4668C29.624 17.4668 30.0911 17.5625 30.5059 17.7539C30.9251 17.9408 31.2806 18.2051 31.5723 18.5469C31.8685 18.8841 32.0941 19.2829 32.249 19.7432C32.404 20.1989 32.4814 20.6934 32.4814 21.2266V21.3838C32.4814 21.917 32.404 22.4115 32.249 22.8672C32.0941 23.3229 31.8685 23.7217 31.5723 24.0635C31.2806 24.4007 30.9274 24.665 30.5127 24.8564C30.1025 25.0433 29.6377 25.1367 29.1182 25.1367C28.5986 25.1367 28.1315 25.0433 27.7168 24.8564C27.3021 24.665 26.9466 24.4007 26.6504 24.0635C26.3587 23.7217 26.1354 23.3229 25.9805 22.8672C25.8255 22.4115 25.748 21.917 25.748 21.3838ZM27.0127 21.2266V21.3838C27.0127 21.7529 27.056 22.1016 27.1426 22.4297C27.2292 22.7533 27.359 23.0404 27.5322 23.291C27.71 23.5417 27.931 23.7399 28.1953 23.8857C28.4596 24.027 28.7673 24.0977 29.1182 24.0977C29.4645 24.0977 29.7676 24.027 30.0273 23.8857C30.2917 23.7399 30.5104 23.5417 30.6836 23.291C30.8568 23.0404 30.9867 22.7533 31.0732 22.4297C31.1644 22.1016 31.21 21.7529 31.21 21.3838V21.2266C31.21 20.862 31.1644 20.5179 31.0732 20.1943C30.9867 19.8662 30.8545 19.5768 30.6768 19.3262C30.5036 19.071 30.2848 18.8704 30.0205 18.7246C29.7607 18.5788 29.4554 18.5059 29.1045 18.5059C28.7581 18.5059 28.4528 18.5788 28.1885 18.7246C27.9287 18.8704 27.71 19.071 27.5322 19.3262C27.359 19.5768 27.2292 19.8662 27.1426 20.1943C27.056 20.5179 27.0127 20.862 27.0127 21.2266ZM35.332 19.1826V25H34.0674V17.6035H35.2637L35.332 19.1826ZM35.0312 21.0215L34.5049 21.001C34.5094 20.4951 34.5846 20.028 34.7305 19.5996C34.8763 19.1667 35.0814 18.7907 35.3457 18.4717C35.61 18.1527 35.9245 17.9066 36.2891 17.7334C36.6582 17.5557 37.0661 17.4668 37.5127 17.4668C37.8773 17.4668 38.2054 17.5169 38.4971 17.6172C38.7887 17.7129 39.0371 17.8678 39.2422 18.082C39.4518 18.2962 39.6113 18.5742 39.7207 18.916C39.8301 19.2533 39.8848 19.6657 39.8848 20.1533V25H38.6133V20.1396C38.6133 19.7523 38.5563 19.4424 38.4424 19.21C38.3285 18.973 38.1621 18.8021 37.9434 18.6973C37.7246 18.5879 37.4557 18.5332 37.1367 18.5332C36.8223 18.5332 36.5352 18.5993 36.2754 18.7314C36.0202 18.8636 35.7992 19.0459 35.6123 19.2783C35.43 19.5107 35.2865 19.7773 35.1816 20.0781C35.0814 20.3743 35.0312 20.6888 35.0312 21.0215ZM44.9023 17.6035V18.5742H40.9033V17.6035H44.9023ZM42.2568 15.8057H43.5215V23.168C43.5215 23.4186 43.5602 23.6077 43.6377 23.7354C43.7152 23.863 43.8154 23.9473 43.9385 23.9883C44.0615 24.0293 44.1937 24.0498 44.335 24.0498C44.4398 24.0498 44.5492 24.0407 44.6631 24.0225C44.7816 23.9997 44.8704 23.9814 44.9297 23.9678L44.9365 25C44.8363 25.0319 44.7041 25.0615 44.54 25.0889C44.3805 25.1208 44.1868 25.1367 43.959 25.1367C43.6491 25.1367 43.3643 25.0752 43.1045 24.9521C42.8447 24.8291 42.6374 24.624 42.4824 24.3369C42.332 24.0452 42.2568 23.6533 42.2568 23.1611V15.8057ZM47.6504 18.7656V25H46.3857V17.6035H47.6162L47.6504 18.7656ZM49.9609 17.5625L49.9541 18.7383C49.8493 18.7155 49.749 18.7018 49.6533 18.6973C49.5622 18.6882 49.4574 18.6836 49.3389 18.6836C49.0472 18.6836 48.7897 18.7292 48.5664 18.8203C48.3431 18.9115 48.154 19.0391 47.999 19.2031C47.8441 19.3672 47.721 19.5632 47.6299 19.791C47.5433 20.0143 47.4863 20.2604 47.459 20.5293L47.1035 20.7344C47.1035 20.2878 47.1468 19.8685 47.2334 19.4766C47.3245 19.0846 47.4635 18.7383 47.6504 18.4375C47.8372 18.1322 48.0742 17.8952 48.3613 17.7266C48.653 17.5534 48.9993 17.4668 49.4004 17.4668C49.4915 17.4668 49.5964 17.4782 49.7148 17.501C49.8333 17.5192 49.9154 17.5397 49.9609 17.5625ZM50.6582 21.3838V21.2266C50.6582 20.6934 50.7357 20.1989 50.8906 19.7432C51.0456 19.2829 51.2689 18.8841 51.5605 18.5469C51.8522 18.2051 52.2054 17.9408 52.6201 17.7539C53.0348 17.5625 53.4997 17.4668 54.0146 17.4668C54.5342 17.4668 55.0013 17.5625 55.416 17.7539C55.8353 17.9408 56.1908 18.2051 56.4824 18.5469C56.7786 18.8841 57.0042 19.2829 57.1592 19.7432C57.3141 20.1989 57.3916 20.6934 57.3916 21.2266V21.3838C57.3916 21.917 57.3141 22.4115 57.1592 22.8672C57.0042 23.3229 56.7786 23.7217 56.4824 24.0635C56.1908 24.4007 55.8376 24.665 55.4229 24.8564C55.0127 25.0433 54.5479 25.1367 54.0283 25.1367C53.5088 25.1367 53.0417 25.0433 52.627 24.8564C52.2122 24.665 51.8568 24.4007 51.5605 24.0635C51.2689 23.7217 51.0456 23.3229 50.8906 22.8672C50.7357 22.4115 50.6582 21.917 50.6582 21.3838ZM51.9229 21.2266V21.3838C51.9229 21.7529 51.9661 22.1016 52.0527 22.4297C52.1393 22.7533 52.2692 23.0404 52.4424 23.291C52.6201 23.5417 52.8411 23.7399 53.1055 23.8857C53.3698 24.027 53.6774 24.0977 54.0283 24.0977C54.3747 24.0977 54.6777 24.027 54.9375 23.8857C55.2018 23.7399 55.4206 23.5417 55.5938 23.291C55.7669 23.0404 55.8968 22.7533 55.9834 22.4297C56.0745 22.1016 56.1201 21.7529 56.1201 21.3838V21.2266C56.1201 20.862 56.0745 20.5179 55.9834 20.1943C55.8968 19.8662 55.7646 19.5768 55.5869 19.3262C55.4137 19.071 55.195 18.8704 54.9307 18.7246C54.6709 18.5788 54.3656 18.5059 54.0146 18.5059C53.6683 18.5059 53.363 18.5788 53.0986 18.7246C52.8389 18.8704 52.6201 19.071 52.4424 19.3262C52.2692 19.5768 52.1393 19.8662 52.0527 20.1943C51.9661 20.5179 51.9229 20.862 51.9229 21.2266ZM60.3516 14.5V25H59.0801V14.5H60.3516ZM68.9512 17.6035V18.5742H64.9521V17.6035H68.9512ZM66.3057 15.8057H67.5703V23.168C67.5703 23.4186 67.609 23.6077 67.6865 23.7354C67.764 23.863 67.8643 23.9473 67.9873 23.9883C68.1104 24.0293 68.2425 24.0498 68.3838 24.0498C68.4886 24.0498 68.598 24.0407 68.7119 24.0225C68.8304 23.9997 68.9193 23.9814 68.9785 23.9678L68.9854 25C68.8851 25.0319 68.7529 25.0615 68.5889 25.0889C68.4294 25.1208 68.2357 25.1367 68.0078 25.1367C67.6979 25.1367 67.4131 25.0752 67.1533 24.9521C66.8936 24.8291 66.6862 24.624 66.5312 24.3369C66.3809 24.0452 66.3057 23.6533 66.3057 23.1611V15.8057ZM71.6992 14.5V25H70.4346V14.5H71.6992ZM71.3984 21.0215L70.8721 21.001C70.8766 20.4951 70.9518 20.028 71.0977 19.5996C71.2435 19.1667 71.4486 18.7907 71.7129 18.4717C71.9772 18.1527 72.2917 17.9066 72.6562 17.7334C73.0254 17.5557 73.4333 17.4668 73.8799 17.4668C74.2445 17.4668 74.5726 17.5169 74.8643 17.6172C75.1559 17.7129 75.4043 17.8678 75.6094 18.082C75.819 18.2962 75.9785 18.5742 76.0879 18.916C76.1973 19.2533 76.252 19.6657 76.252 20.1533V25H74.9805V20.1396C74.9805 19.7523 74.9235 19.4424 74.8096 19.21C74.6956 18.973 74.5293 18.8021 74.3105 18.6973C74.0918 18.5879 73.8229 18.5332 73.5039 18.5332C73.1895 18.5332 72.9023 18.5993 72.6426 18.7314C72.3874 18.8636 72.1663 19.0459 71.9795 19.2783C71.7972 19.5107 71.6536 19.7773 71.5488 20.0781C71.4486 20.3743 71.3984 20.6888 71.3984 21.0215ZM81.2148 25.1367C80.6999 25.1367 80.2327 25.0501 79.8135 24.877C79.3988 24.6992 79.041 24.4508 78.7402 24.1318C78.444 23.8128 78.2161 23.4346 78.0566 22.9971C77.8971 22.5596 77.8174 22.0811 77.8174 21.5615V21.2744C77.8174 20.6729 77.9062 20.1374 78.084 19.668C78.2617 19.194 78.5033 18.793 78.8086 18.4648C79.1139 18.1367 79.4603 17.8883 79.8477 17.7197C80.235 17.5511 80.6361 17.4668 81.0508 17.4668C81.5794 17.4668 82.0352 17.5579 82.418 17.7402C82.8053 17.9225 83.1221 18.1777 83.3682 18.5059C83.6143 18.8294 83.7965 19.2122 83.915 19.6543C84.0335 20.0918 84.0928 20.5703 84.0928 21.0898V21.6572H78.5693V20.625H82.8281V20.5293C82.8099 20.2012 82.7415 19.8822 82.623 19.5723C82.5091 19.2624 82.3268 19.0072 82.0762 18.8066C81.8255 18.6061 81.4837 18.5059 81.0508 18.5059C80.7637 18.5059 80.4993 18.5674 80.2578 18.6904C80.0163 18.8089 79.8089 18.9867 79.6357 19.2236C79.4626 19.4606 79.3281 19.75 79.2324 20.0918C79.1367 20.4336 79.0889 20.8278 79.0889 21.2744V21.5615C79.0889 21.9124 79.1367 22.2428 79.2324 22.5527C79.3327 22.8581 79.4762 23.127 79.6631 23.3594C79.8545 23.5918 80.0846 23.7741 80.3535 23.9062C80.627 24.0384 80.9368 24.1045 81.2832 24.1045C81.7298 24.1045 82.1081 24.0133 82.418 23.8311C82.7279 23.6488 82.999 23.4049 83.2314 23.0996L83.9971 23.708C83.8376 23.9495 83.6348 24.1797 83.3887 24.3984C83.1426 24.6172 82.8395 24.7949 82.4795 24.9316C82.124 25.0684 81.7025 25.1367 81.2148 25.1367ZM90.3066 19.0254V27.8438H89.0352V17.6035H90.1973L90.3066 19.0254ZM95.29 21.2402V21.3838C95.29 21.9215 95.2262 22.4206 95.0986 22.8809C94.971 23.3366 94.7842 23.7331 94.5381 24.0703C94.2965 24.4076 93.998 24.6696 93.6426 24.8564C93.2871 25.0433 92.8792 25.1367 92.4189 25.1367C91.9495 25.1367 91.5348 25.0592 91.1748 24.9043C90.8148 24.7493 90.5094 24.5238 90.2588 24.2275C90.0081 23.9313 89.8076 23.5758 89.6572 23.1611C89.5114 22.7464 89.4111 22.2793 89.3564 21.7598V20.9941C89.4111 20.4473 89.5137 19.9574 89.6641 19.5244C89.8145 19.0915 90.0127 18.7223 90.2588 18.417C90.5094 18.1071 90.8125 17.8724 91.168 17.7129C91.5234 17.5488 91.9336 17.4668 92.3984 17.4668C92.8633 17.4668 93.2757 17.5579 93.6357 17.7402C93.9958 17.918 94.2988 18.1732 94.5449 18.5059C94.791 18.8385 94.9756 19.2373 95.0986 19.7021C95.2262 20.1624 95.29 20.6751 95.29 21.2402ZM94.0186 21.3838V21.2402C94.0186 20.8711 93.9798 20.5247 93.9023 20.2012C93.8249 19.873 93.7041 19.5859 93.54 19.3398C93.3805 19.0892 93.1755 18.8932 92.9248 18.752C92.6742 18.6061 92.3757 18.5332 92.0293 18.5332C91.7103 18.5332 91.4323 18.5879 91.1953 18.6973C90.9629 18.8066 90.7646 18.9548 90.6006 19.1416C90.4365 19.3239 90.3021 19.5335 90.1973 19.7705C90.097 20.0029 90.0218 20.2445 89.9717 20.4951V22.2656C90.0628 22.5846 90.1904 22.8854 90.3545 23.168C90.5186 23.446 90.7373 23.6715 91.0107 23.8447C91.2842 24.0133 91.6283 24.0977 92.043 24.0977C92.3848 24.0977 92.6787 24.027 92.9248 23.8857C93.1755 23.7399 93.3805 23.5417 93.54 23.291C93.7041 23.0404 93.8249 22.7533 93.9023 22.4297C93.9798 22.1016 94.0186 21.7529 94.0186 21.3838ZM101.429 23.291V17.6035H102.7V25H101.49L101.429 23.291ZM101.668 21.7324L102.194 21.7188C102.194 22.2109 102.142 22.6667 102.037 23.0859C101.937 23.5007 101.773 23.8607 101.545 24.166C101.317 24.4714 101.019 24.7106 100.649 24.8838C100.28 25.0524 99.8314 25.1367 99.3027 25.1367C98.9427 25.1367 98.6123 25.0843 98.3115 24.9795C98.0153 24.8747 97.7601 24.7129 97.5459 24.4941C97.3317 24.2754 97.1654 23.9906 97.0469 23.6396C96.9329 23.2887 96.876 22.8672 96.876 22.375V17.6035H98.1406V22.3887C98.1406 22.7214 98.1771 22.9971 98.25 23.2158C98.3275 23.43 98.43 23.6009 98.5576 23.7285C98.6898 23.8516 98.8356 23.9382 98.9951 23.9883C99.1592 24.0384 99.3278 24.0635 99.501 24.0635C100.039 24.0635 100.465 23.9609 100.779 23.7559C101.094 23.5462 101.319 23.266 101.456 22.915C101.597 22.5596 101.668 22.1654 101.668 21.7324ZM108.935 23.0381C108.935 22.8558 108.894 22.6872 108.812 22.5322C108.734 22.3727 108.572 22.2292 108.326 22.1016C108.085 21.9694 107.72 21.8555 107.232 21.7598C106.822 21.6732 106.451 21.5706 106.118 21.4521C105.79 21.3337 105.51 21.1901 105.277 21.0215C105.049 20.8529 104.874 20.6546 104.751 20.4268C104.628 20.1989 104.566 19.9323 104.566 19.627C104.566 19.3353 104.63 19.0596 104.758 18.7998C104.89 18.54 105.075 18.3099 105.312 18.1094C105.553 17.9089 105.842 17.7516 106.18 17.6377C106.517 17.5238 106.893 17.4668 107.308 17.4668C107.9 17.4668 108.406 17.5716 108.825 17.7812C109.244 17.9909 109.566 18.2712 109.789 18.6221C110.012 18.9684 110.124 19.3535 110.124 19.7773H108.859C108.859 19.5723 108.798 19.374 108.675 19.1826C108.556 18.9867 108.381 18.8249 108.148 18.6973C107.921 18.5697 107.64 18.5059 107.308 18.5059C106.957 18.5059 106.672 18.5605 106.453 18.6699C106.239 18.7747 106.082 18.9092 105.981 19.0732C105.886 19.2373 105.838 19.4105 105.838 19.5928C105.838 19.7295 105.861 19.8525 105.906 19.9619C105.956 20.0667 106.043 20.1647 106.166 20.2559C106.289 20.3424 106.462 20.4245 106.686 20.502C106.909 20.5794 107.194 20.6569 107.54 20.7344C108.146 20.8711 108.645 21.0352 109.037 21.2266C109.429 21.418 109.721 21.6527 109.912 21.9307C110.104 22.2087 110.199 22.5459 110.199 22.9424C110.199 23.266 110.131 23.5622 109.994 23.8311C109.862 24.0999 109.668 24.3324 109.413 24.5283C109.162 24.7197 108.862 24.8701 108.511 24.9795C108.164 25.0843 107.775 25.1367 107.342 25.1367C106.69 25.1367 106.139 25.0205 105.688 24.7881C105.236 24.5557 104.895 24.2549 104.662 23.8857C104.43 23.5166 104.313 23.127 104.313 22.7168H105.585C105.603 23.0632 105.703 23.3389 105.886 23.5439C106.068 23.7445 106.291 23.888 106.556 23.9746C106.82 24.0566 107.082 24.0977 107.342 24.0977C107.688 24.0977 107.978 24.0521 108.21 23.9609C108.447 23.8698 108.627 23.7445 108.75 23.585C108.873 23.4255 108.935 23.2432 108.935 23.0381ZM113.125 14.5V25H111.86V14.5H113.125ZM112.824 21.0215L112.298 21.001C112.302 20.4951 112.378 20.028 112.523 19.5996C112.669 19.1667 112.874 18.7907 113.139 18.4717C113.403 18.1527 113.717 17.9066 114.082 17.7334C114.451 17.5557 114.859 17.4668 115.306 17.4668C115.67 17.4668 115.998 17.5169 116.29 17.6172C116.582 17.7129 116.83 17.8678 117.035 18.082C117.245 18.2962 117.404 18.5742 117.514 18.916C117.623 19.2533 117.678 19.6657 117.678 20.1533V25H116.406V20.1396C116.406 19.7523 116.349 19.4424 116.235 19.21C116.121 18.973 115.955 18.8021 115.736 18.6973C115.518 18.5879 115.249 18.5332 114.93 18.5332C114.615 18.5332 114.328 18.5993 114.068 18.7314C113.813 18.8636 113.592 19.0459 113.405 19.2783C113.223 19.5107 113.079 19.7773 112.975 20.0781C112.874 20.3743 112.824 20.6888 112.824 21.0215ZM124.309 19.1826V25H123.044V17.6035H124.24L124.309 19.1826ZM124.008 21.0215L123.481 21.001C123.486 20.4951 123.561 20.028 123.707 19.5996C123.853 19.1667 124.058 18.7907 124.322 18.4717C124.587 18.1527 124.901 17.9066 125.266 17.7334C125.635 17.5557 126.043 17.4668 126.489 17.4668C126.854 17.4668 127.182 17.5169 127.474 17.6172C127.765 17.7129 128.014 17.8678 128.219 18.082C128.428 18.2962 128.588 18.5742 128.697 18.916C128.807 19.2533 128.861 19.6657 128.861 20.1533V25H127.59V20.1396C127.59 19.7523 127.533 19.4424 127.419 19.21C127.305 18.973 127.139 18.8021 126.92 18.6973C126.701 18.5879 126.432 18.5332 126.113 18.5332C125.799 18.5332 125.512 18.5993 125.252 18.7314C124.997 18.8636 124.776 19.0459 124.589 19.2783C124.407 19.5107 124.263 19.7773 124.158 20.0781C124.058 20.3743 124.008 20.6888 124.008 21.0215ZM130.447 21.3838V21.2266C130.447 20.6934 130.525 20.1989 130.68 19.7432C130.835 19.2829 131.058 18.8841 131.35 18.5469C131.641 18.2051 131.994 17.9408 132.409 17.7539C132.824 17.5625 133.289 17.4668 133.804 17.4668C134.323 17.4668 134.79 17.5625 135.205 17.7539C135.624 17.9408 135.98 18.2051 136.271 18.5469C136.568 18.8841 136.793 19.2829 136.948 19.7432C137.103 20.1989 137.181 20.6934 137.181 21.2266V21.3838C137.181 21.917 137.103 22.4115 136.948 22.8672C136.793 23.3229 136.568 23.7217 136.271 24.0635C135.98 24.4007 135.627 24.665 135.212 24.8564C134.802 25.0433 134.337 25.1367 133.817 25.1367C133.298 25.1367 132.831 25.0433 132.416 24.8564C132.001 24.665 131.646 24.4007 131.35 24.0635C131.058 23.7217 130.835 23.3229 130.68 22.8672C130.525 22.4115 130.447 21.917 130.447 21.3838ZM131.712 21.2266V21.3838C131.712 21.7529 131.755 22.1016 131.842 22.4297C131.928 22.7533 132.058 23.0404 132.231 23.291C132.409 23.5417 132.63 23.7399 132.895 23.8857C133.159 24.027 133.466 24.0977 133.817 24.0977C134.164 24.0977 134.467 24.027 134.727 23.8857C134.991 23.7399 135.21 23.5417 135.383 23.291C135.556 23.0404 135.686 22.7533 135.772 22.4297C135.864 22.1016 135.909 21.7529 135.909 21.3838V21.2266C135.909 20.862 135.864 20.5179 135.772 20.1943C135.686 19.8662 135.554 19.5768 135.376 19.3262C135.203 19.071 134.984 18.8704 134.72 18.7246C134.46 18.5788 134.155 18.5059 133.804 18.5059C133.457 18.5059 133.152 18.5788 132.888 18.7246C132.628 18.8704 132.409 19.071 132.231 19.3262C132.058 19.5768 131.928 19.8662 131.842 20.1943C131.755 20.5179 131.712 20.862 131.712 21.2266ZM141.863 17.6035V18.5742H137.864V17.6035H141.863ZM139.218 15.8057H140.482V23.168C140.482 23.4186 140.521 23.6077 140.599 23.7354C140.676 23.863 140.776 23.9473 140.899 23.9883C141.022 24.0293 141.155 24.0498 141.296 24.0498C141.401 24.0498 141.51 24.0407 141.624 24.0225C141.743 23.9997 141.831 23.9814 141.891 23.9678L141.897 25C141.797 25.0319 141.665 25.0615 141.501 25.0889C141.341 25.1208 141.148 25.1367 140.92 25.1367C140.61 25.1367 140.325 25.0752 140.065 24.9521C139.806 24.8291 139.598 24.624 139.443 24.3369C139.293 24.0452 139.218 23.6533 139.218 23.1611V15.8057ZM144.721 17.6035V25H143.449V17.6035H144.721ZM143.354 15.6416C143.354 15.4365 143.415 15.2633 143.538 15.1221C143.666 14.9808 143.853 14.9102 144.099 14.9102C144.34 14.9102 144.525 14.9808 144.652 15.1221C144.785 15.2633 144.851 15.4365 144.851 15.6416C144.851 15.8376 144.785 16.0062 144.652 16.1475C144.525 16.2842 144.34 16.3525 144.099 16.3525C143.853 16.3525 143.666 16.2842 143.538 16.1475C143.415 16.0062 143.354 15.8376 143.354 15.6416ZM148.439 25H147.175V16.9609C147.175 16.4004 147.284 15.9264 147.503 15.5391C147.722 15.1517 148.034 14.8577 148.439 14.6572C148.845 14.4567 149.326 14.3564 149.882 14.3564C150.21 14.3564 150.531 14.3975 150.846 14.4795C151.16 14.557 151.484 14.6549 151.816 14.7734L151.604 15.8398C151.395 15.7578 151.151 15.6803 150.873 15.6074C150.6 15.5299 150.299 15.4912 149.971 15.4912C149.428 15.4912 149.036 15.6143 148.795 15.8604C148.558 16.1019 148.439 16.4688 148.439 16.9609V25ZM149.95 17.6035V18.5742H146.006V17.6035H149.95ZM152.438 17.6035V25H151.174V17.6035H152.438ZM157.477 24.0977C157.777 24.0977 158.055 24.0361 158.311 23.9131C158.566 23.79 158.775 23.6214 158.939 23.4072C159.104 23.1885 159.197 22.9401 159.22 22.6621H160.423C160.4 23.0996 160.252 23.5075 159.979 23.8857C159.71 24.2594 159.356 24.5625 158.919 24.7949C158.481 25.0228 158.001 25.1367 157.477 25.1367C156.921 25.1367 156.435 25.0387 156.021 24.8428C155.61 24.6468 155.269 24.3779 154.995 24.0361C154.726 23.6943 154.523 23.3024 154.387 22.8604C154.255 22.4137 154.188 21.9421 154.188 21.4453V21.1582C154.188 20.6615 154.255 20.1921 154.387 19.75C154.523 19.3034 154.726 18.9092 154.995 18.5674C155.269 18.2256 155.61 17.9567 156.021 17.7607C156.435 17.5648 156.921 17.4668 157.477 17.4668C158.055 17.4668 158.561 17.5853 158.994 17.8223C159.427 18.0547 159.767 18.3737 160.013 18.7793C160.263 19.1803 160.4 19.6361 160.423 20.1465H159.22C159.197 19.8411 159.11 19.5654 158.96 19.3193C158.814 19.0732 158.614 18.8773 158.358 18.7314C158.108 18.5811 157.814 18.5059 157.477 18.5059C157.089 18.5059 156.763 18.5833 156.499 18.7383C156.239 18.8887 156.032 19.0938 155.877 19.3535C155.727 19.6087 155.617 19.8936 155.549 20.208C155.485 20.5179 155.453 20.8346 155.453 21.1582V21.4453C155.453 21.7689 155.485 22.0879 155.549 22.4023C155.613 22.7168 155.72 23.0016 155.87 23.2568C156.025 23.512 156.232 23.7171 156.492 23.8721C156.757 24.0225 157.085 24.0977 157.477 24.0977ZM166.206 23.7354V19.9277C166.206 19.6361 166.147 19.3831 166.028 19.1689C165.914 18.9502 165.741 18.7816 165.509 18.6631C165.276 18.5446 164.989 18.4854 164.647 18.4854C164.328 18.4854 164.048 18.54 163.807 18.6494C163.57 18.7588 163.383 18.9023 163.246 19.0801C163.114 19.2578 163.048 19.4492 163.048 19.6543H161.783C161.783 19.39 161.852 19.1279 161.988 18.8682C162.125 18.6084 162.321 18.3737 162.576 18.1641C162.836 17.9499 163.146 17.7812 163.506 17.6582C163.87 17.5306 164.276 17.4668 164.723 17.4668C165.26 17.4668 165.734 17.5579 166.145 17.7402C166.559 17.9225 166.883 18.1982 167.115 18.5674C167.352 18.932 167.471 19.39 167.471 19.9414V23.3867C167.471 23.6328 167.491 23.8949 167.532 24.1729C167.578 24.4508 167.644 24.6901 167.73 24.8906V25H166.411C166.347 24.8542 166.297 24.6605 166.261 24.4189C166.224 24.1729 166.206 23.945 166.206 23.7354ZM166.425 20.5156L166.438 21.4043H165.16C164.8 21.4043 164.479 21.4339 164.196 21.4932C163.914 21.5479 163.677 21.6322 163.485 21.7461C163.294 21.86 163.148 22.0036 163.048 22.1768C162.948 22.3454 162.897 22.5436 162.897 22.7715C162.897 23.0039 162.95 23.2158 163.055 23.4072C163.16 23.5986 163.317 23.7513 163.526 23.8652C163.741 23.9746 164.003 24.0293 164.312 24.0293C164.7 24.0293 165.042 23.9473 165.338 23.7832C165.634 23.6191 165.869 23.4186 166.042 23.1816C166.22 22.9447 166.315 22.7145 166.329 22.4912L166.869 23.0996C166.837 23.291 166.751 23.5029 166.609 23.7354C166.468 23.9678 166.279 24.1911 166.042 24.4053C165.81 24.6149 165.532 24.7904 165.208 24.9316C164.889 25.0684 164.529 25.1367 164.128 25.1367C163.627 25.1367 163.187 25.0387 162.809 24.8428C162.435 24.6468 162.143 24.3848 161.934 24.0566C161.729 23.724 161.626 23.3525 161.626 22.9424C161.626 22.5459 161.703 22.1973 161.858 21.8965C162.013 21.5911 162.237 21.3382 162.528 21.1377C162.82 20.9326 163.171 20.7777 163.581 20.6729C163.991 20.568 164.449 20.5156 164.955 20.5156H166.425ZM172.557 17.6035V18.5742H168.558V17.6035H172.557ZM169.911 15.8057H171.176V23.168C171.176 23.4186 171.215 23.6077 171.292 23.7354C171.369 23.863 171.47 23.9473 171.593 23.9883C171.716 24.0293 171.848 24.0498 171.989 24.0498C172.094 24.0498 172.203 24.0407 172.317 24.0225C172.436 23.9997 172.525 23.9814 172.584 23.9678L172.591 25C172.491 25.0319 172.358 25.0615 172.194 25.0889C172.035 25.1208 171.841 25.1367 171.613 25.1367C171.303 25.1367 171.019 25.0752 170.759 24.9521C170.499 24.8291 170.292 24.624 170.137 24.3369C169.986 24.0452 169.911 23.6533 169.911 23.1611V15.8057ZM175.414 17.6035V25H174.143V17.6035H175.414ZM174.047 15.6416C174.047 15.4365 174.108 15.2633 174.231 15.1221C174.359 14.9808 174.546 14.9102 174.792 14.9102C175.034 14.9102 175.218 14.9808 175.346 15.1221C175.478 15.2633 175.544 15.4365 175.544 15.6416C175.544 15.8376 175.478 16.0062 175.346 16.1475C175.218 16.2842 175.034 16.3525 174.792 16.3525C174.546 16.3525 174.359 16.2842 174.231 16.1475C174.108 16.0062 174.047 15.8376 174.047 15.6416ZM177.109 21.3838V21.2266C177.109 20.6934 177.187 20.1989 177.342 19.7432C177.497 19.2829 177.72 18.8841 178.012 18.5469C178.303 18.2051 178.657 17.9408 179.071 17.7539C179.486 17.5625 179.951 17.4668 180.466 17.4668C180.985 17.4668 181.452 17.5625 181.867 17.7539C182.286 17.9408 182.642 18.2051 182.934 18.5469C183.23 18.8841 183.455 19.2829 183.61 19.7432C183.765 20.1989 183.843 20.6934 183.843 21.2266V21.3838C183.843 21.917 183.765 22.4115 183.61 22.8672C183.455 23.3229 183.23 23.7217 182.934 24.0635C182.642 24.4007 182.289 24.665 181.874 24.8564C181.464 25.0433 180.999 25.1367 180.479 25.1367C179.96 25.1367 179.493 25.0433 179.078 24.8564C178.663 24.665 178.308 24.4007 178.012 24.0635C177.72 23.7217 177.497 23.3229 177.342 22.8672C177.187 22.4115 177.109 21.917 177.109 21.3838ZM178.374 21.2266V21.3838C178.374 21.7529 178.417 22.1016 178.504 22.4297C178.59 22.7533 178.72 23.0404 178.894 23.291C179.071 23.5417 179.292 23.7399 179.557 23.8857C179.821 24.027 180.129 24.0977 180.479 24.0977C180.826 24.0977 181.129 24.027 181.389 23.8857C181.653 23.7399 181.872 23.5417 182.045 23.291C182.218 23.0404 182.348 22.7533 182.435 22.4297C182.526 22.1016 182.571 21.7529 182.571 21.3838V21.2266C182.571 20.862 182.526 20.5179 182.435 20.1943C182.348 19.8662 182.216 19.5768 182.038 19.3262C181.865 19.071 181.646 18.8704 181.382 18.7246C181.122 18.5788 180.817 18.5059 180.466 18.5059C180.119 18.5059 179.814 18.5788 179.55 18.7246C179.29 18.8704 179.071 19.071 178.894 19.3262C178.72 19.5768 178.59 19.8662 178.504 20.1943C178.417 20.5179 178.374 20.862 178.374 21.2266ZM186.693 19.1826V25H185.429V17.6035H186.625L186.693 19.1826ZM186.393 21.0215L185.866 21.001C185.871 20.4951 185.946 20.028 186.092 19.5996C186.238 19.1667 186.443 18.7907 186.707 18.4717C186.971 18.1527 187.286 17.9066 187.65 17.7334C188.02 17.5557 188.427 17.4668 188.874 17.4668C189.239 17.4668 189.567 17.5169 189.858 17.6172C190.15 17.7129 190.398 17.8678 190.604 18.082C190.813 18.2962 190.973 18.5742 191.082 18.916C191.191 19.2533 191.246 19.6657 191.246 20.1533V25H189.975V20.1396C189.975 19.7523 189.918 19.4424 189.804 19.21C189.69 18.973 189.523 18.8021 189.305 18.6973C189.086 18.5879 188.817 18.5332 188.498 18.5332C188.184 18.5332 187.896 18.5993 187.637 18.7314C187.382 18.8636 187.16 19.0459 186.974 19.2783C186.791 19.5107 186.648 19.7773 186.543 20.0781C186.443 20.3743 186.393 20.6888 186.393 21.0215ZM197.474 23.0381C197.474 22.8558 197.433 22.6872 197.351 22.5322C197.273 22.3727 197.111 22.2292 196.865 22.1016C196.624 21.9694 196.259 21.8555 195.771 21.7598C195.361 21.6732 194.99 21.5706 194.657 21.4521C194.329 21.3337 194.049 21.1901 193.816 21.0215C193.589 20.8529 193.413 20.6546 193.29 20.4268C193.167 20.1989 193.105 19.9323 193.105 19.627C193.105 19.3353 193.169 19.0596 193.297 18.7998C193.429 18.54 193.614 18.3099 193.851 18.1094C194.092 17.9089 194.382 17.7516 194.719 17.6377C195.056 17.5238 195.432 17.4668 195.847 17.4668C196.439 17.4668 196.945 17.5716 197.364 17.7812C197.784 17.9909 198.105 18.2712 198.328 18.6221C198.551 18.9684 198.663 19.3535 198.663 19.7773H197.398C197.398 19.5723 197.337 19.374 197.214 19.1826C197.095 18.9867 196.92 18.8249 196.688 18.6973C196.46 18.5697 196.179 18.5059 195.847 18.5059C195.496 18.5059 195.211 18.5605 194.992 18.6699C194.778 18.7747 194.621 18.9092 194.521 19.0732C194.425 19.2373 194.377 19.4105 194.377 19.5928C194.377 19.7295 194.4 19.8525 194.445 19.9619C194.495 20.0667 194.582 20.1647 194.705 20.2559C194.828 20.3424 195.001 20.4245 195.225 20.502C195.448 20.5794 195.733 20.6569 196.079 20.7344C196.685 20.8711 197.184 21.0352 197.576 21.2266C197.968 21.418 198.26 21.6527 198.451 21.9307C198.643 22.2087 198.738 22.5459 198.738 22.9424C198.738 23.266 198.67 23.5622 198.533 23.8311C198.401 24.0999 198.207 24.3324 197.952 24.5283C197.701 24.7197 197.401 24.8701 197.05 24.9795C196.703 25.0843 196.314 25.1367 195.881 25.1367C195.229 25.1367 194.678 25.0205 194.227 24.7881C193.775 24.5557 193.434 24.2549 193.201 23.8857C192.969 23.5166 192.853 23.127 192.853 22.7168H194.124C194.142 23.0632 194.243 23.3389 194.425 23.5439C194.607 23.7445 194.83 23.888 195.095 23.9746C195.359 24.0566 195.621 24.0977 195.881 24.0977C196.227 24.0977 196.517 24.0521 196.749 23.9609C196.986 23.8698 197.166 23.7445 197.289 23.585C197.412 23.4255 197.474 23.2432 197.474 23.0381ZM205.95 24.2344L208.008 17.6035H209.361L206.395 26.1416C206.326 26.3239 206.235 26.5199 206.121 26.7295C206.012 26.9437 205.87 27.1465 205.697 27.3379C205.524 27.5293 205.314 27.6842 205.068 27.8027C204.827 27.9258 204.537 27.9873 204.2 27.9873C204.1 27.9873 203.972 27.9736 203.817 27.9463C203.662 27.9189 203.553 27.8962 203.489 27.8779L203.482 26.8525C203.519 26.8571 203.576 26.8617 203.653 26.8662C203.735 26.8753 203.792 26.8799 203.824 26.8799C204.111 26.8799 204.355 26.8411 204.556 26.7637C204.756 26.6908 204.925 26.5654 205.062 26.3877C205.203 26.2145 205.324 25.9753 205.424 25.6699L205.95 24.2344ZM204.439 17.6035L206.36 23.3457L206.688 24.6787L205.779 25.1436L203.059 17.6035H204.439ZM210.059 21.3838V21.2266C210.059 20.6934 210.136 20.1989 210.291 19.7432C210.446 19.2829 210.669 18.8841 210.961 18.5469C211.253 18.2051 211.606 17.9408 212.021 17.7539C212.435 17.5625 212.9 17.4668 213.415 17.4668C213.935 17.4668 214.402 17.5625 214.816 17.7539C215.236 17.9408 215.591 18.2051 215.883 18.5469C216.179 18.8841 216.405 19.2829 216.56 19.7432C216.715 20.1989 216.792 20.6934 216.792 21.2266V21.3838C216.792 21.917 216.715 22.4115 216.56 22.8672C216.405 23.3229 216.179 23.7217 215.883 24.0635C215.591 24.4007 215.238 24.665 214.823 24.8564C214.413 25.0433 213.948 25.1367 213.429 25.1367C212.909 25.1367 212.442 25.0433 212.027 24.8564C211.613 24.665 211.257 24.4007 210.961 24.0635C210.669 23.7217 210.446 23.3229 210.291 22.8672C210.136 22.4115 210.059 21.917 210.059 21.3838ZM211.323 21.2266V21.3838C211.323 21.7529 211.367 22.1016 211.453 22.4297C211.54 22.7533 211.67 23.0404 211.843 23.291C212.021 23.5417 212.242 23.7399 212.506 23.8857C212.77 24.027 213.078 24.0977 213.429 24.0977C213.775 24.0977 214.078 24.027 214.338 23.8857C214.602 23.7399 214.821 23.5417 214.994 23.291C215.167 23.0404 215.297 22.7533 215.384 22.4297C215.475 22.1016 215.521 21.7529 215.521 21.3838V21.2266C215.521 20.862 215.475 20.5179 215.384 20.1943C215.297 19.8662 215.165 19.5768 214.987 19.3262C214.814 19.071 214.595 18.8704 214.331 18.7246C214.071 18.5788 213.766 18.5059 213.415 18.5059C213.069 18.5059 212.763 18.5788 212.499 18.7246C212.239 18.8704 212.021 19.071 211.843 19.3262C211.67 19.5768 211.54 19.8662 211.453 20.1943C211.367 20.5179 211.323 20.862 211.323 21.2266ZM222.903 23.291V17.6035H224.175V25H222.965L222.903 23.291ZM223.143 21.7324L223.669 21.7188C223.669 22.2109 223.617 22.6667 223.512 23.0859C223.411 23.5007 223.247 23.8607 223.02 24.166C222.792 24.4714 222.493 24.7106 222.124 24.8838C221.755 25.0524 221.306 25.1367 220.777 25.1367C220.417 25.1367 220.087 25.0843 219.786 24.9795C219.49 24.8747 219.235 24.7129 219.021 24.4941C218.806 24.2754 218.64 23.9906 218.521 23.6396C218.408 23.2887 218.351 22.8672 218.351 22.375V17.6035H219.615V22.3887C219.615 22.7214 219.652 22.9971 219.725 23.2158C219.802 23.43 219.905 23.6009 220.032 23.7285C220.164 23.8516 220.31 23.9382 220.47 23.9883C220.634 24.0384 220.802 24.0635 220.976 24.0635C221.513 24.0635 221.939 23.9609 222.254 23.7559C222.568 23.5462 222.794 23.266 222.931 22.915C223.072 22.5596 223.143 22.1654 223.143 21.7324ZM231.448 23.6875L233.349 17.6035H234.183L234.019 18.8135L232.084 25H231.271L231.448 23.6875ZM230.17 17.6035L231.79 23.7559L231.906 25H231.052L228.905 17.6035H230.17ZM236.001 23.708L237.546 17.6035H238.804L236.657 25H235.81L236.001 23.708ZM234.367 17.6035L236.227 23.585L236.438 25H235.632L233.643 18.7998L233.479 17.6035H234.367ZM244.464 23.7354V19.9277C244.464 19.6361 244.405 19.3831 244.286 19.1689C244.172 18.9502 243.999 18.7816 243.767 18.6631C243.534 18.5446 243.247 18.4854 242.905 18.4854C242.586 18.4854 242.306 18.54 242.064 18.6494C241.827 18.7588 241.641 18.9023 241.504 19.0801C241.372 19.2578 241.306 19.4492 241.306 19.6543H240.041C240.041 19.39 240.109 19.1279 240.246 18.8682C240.383 18.6084 240.579 18.3737 240.834 18.1641C241.094 17.9499 241.404 17.7812 241.764 17.6582C242.128 17.5306 242.534 17.4668 242.98 17.4668C243.518 17.4668 243.992 17.5579 244.402 17.7402C244.817 17.9225 245.141 18.1982 245.373 18.5674C245.61 18.932 245.729 19.39 245.729 19.9414V23.3867C245.729 23.6328 245.749 23.8949 245.79 24.1729C245.836 24.4508 245.902 24.6901 245.988 24.8906V25H244.669C244.605 24.8542 244.555 24.6605 244.519 24.4189C244.482 24.1729 244.464 23.945 244.464 23.7354ZM244.683 20.5156L244.696 21.4043H243.418C243.058 21.4043 242.737 21.4339 242.454 21.4932C242.172 21.5479 241.935 21.6322 241.743 21.7461C241.552 21.86 241.406 22.0036 241.306 22.1768C241.205 22.3454 241.155 22.5436 241.155 22.7715C241.155 23.0039 241.208 23.2158 241.312 23.4072C241.417 23.5986 241.575 23.7513 241.784 23.8652C241.998 23.9746 242.26 24.0293 242.57 24.0293C242.958 24.0293 243.299 23.9473 243.596 23.7832C243.892 23.6191 244.127 23.4186 244.3 23.1816C244.478 22.9447 244.573 22.7145 244.587 22.4912L245.127 23.0996C245.095 23.291 245.008 23.5029 244.867 23.7354C244.726 23.9678 244.537 24.1911 244.3 24.4053C244.067 24.6149 243.789 24.7904 243.466 24.9316C243.147 25.0684 242.787 25.1367 242.386 25.1367C241.884 25.1367 241.445 25.0387 241.066 24.8428C240.693 24.6468 240.401 24.3848 240.191 24.0566C239.986 23.724 239.884 23.3525 239.884 22.9424C239.884 22.5459 239.961 22.1973 240.116 21.8965C240.271 21.5911 240.494 21.3382 240.786 21.1377C241.078 20.9326 241.429 20.7777 241.839 20.6729C242.249 20.568 242.707 20.5156 243.213 20.5156H244.683ZM248.982 19.1826V25H247.718V17.6035H248.914L248.982 19.1826ZM248.682 21.0215L248.155 21.001C248.16 20.4951 248.235 20.028 248.381 19.5996C248.527 19.1667 248.732 18.7907 248.996 18.4717C249.26 18.1527 249.575 17.9066 249.939 17.7334C250.309 17.5557 250.716 17.4668 251.163 17.4668C251.528 17.4668 251.856 17.5169 252.147 17.6172C252.439 17.7129 252.688 17.8678 252.893 18.082C253.102 18.2962 253.262 18.5742 253.371 18.916C253.48 19.2533 253.535 19.6657 253.535 20.1533V25H252.264V20.1396C252.264 19.7523 252.207 19.4424 252.093 19.21C251.979 18.973 251.812 18.8021 251.594 18.6973C251.375 18.5879 251.106 18.5332 250.787 18.5332C250.473 18.5332 250.186 18.5993 249.926 18.7314C249.671 18.8636 249.45 19.0459 249.263 19.2783C249.08 19.5107 248.937 19.7773 248.832 20.0781C248.732 20.3743 248.682 20.6888 248.682 21.0215ZM258.553 17.6035V18.5742H254.554V17.6035H258.553ZM255.907 15.8057H257.172V23.168C257.172 23.4186 257.211 23.6077 257.288 23.7354C257.366 23.863 257.466 23.9473 257.589 23.9883C257.712 24.0293 257.844 24.0498 257.985 24.0498C258.09 24.0498 258.2 24.0407 258.313 24.0225C258.432 23.9997 258.521 23.9814 258.58 23.9678L258.587 25C258.487 25.0319 258.354 25.0615 258.19 25.0889C258.031 25.1208 257.837 25.1367 257.609 25.1367C257.299 25.1367 257.015 25.0752 256.755 24.9521C256.495 24.8291 256.288 24.624 256.133 24.3369C255.982 24.0452 255.907 23.6533 255.907 23.1611V15.8057ZM266.605 17.6035V18.5742H262.606V17.6035H266.605ZM263.96 15.8057H265.225V23.168C265.225 23.4186 265.263 23.6077 265.341 23.7354C265.418 23.863 265.519 23.9473 265.642 23.9883C265.765 24.0293 265.897 24.0498 266.038 24.0498C266.143 24.0498 266.252 24.0407 266.366 24.0225C266.485 23.9997 266.574 23.9814 266.633 23.9678L266.64 25C266.539 25.0319 266.407 25.0615 266.243 25.0889C266.084 25.1208 265.89 25.1367 265.662 25.1367C265.352 25.1367 265.067 25.0752 264.808 24.9521C264.548 24.8291 264.34 24.624 264.186 24.3369C264.035 24.0452 263.96 23.6533 263.96 23.1611V15.8057ZM267.617 21.3838V21.2266C267.617 20.6934 267.695 20.1989 267.85 19.7432C268.005 19.2829 268.228 18.8841 268.52 18.5469C268.811 18.2051 269.164 17.9408 269.579 17.7539C269.994 17.5625 270.459 17.4668 270.974 17.4668C271.493 17.4668 271.96 17.5625 272.375 17.7539C272.794 17.9408 273.15 18.2051 273.441 18.5469C273.738 18.8841 273.963 19.2829 274.118 19.7432C274.273 20.1989 274.351 20.6934 274.351 21.2266V21.3838C274.351 21.917 274.273 22.4115 274.118 22.8672C273.963 23.3229 273.738 23.7217 273.441 24.0635C273.15 24.4007 272.797 24.665 272.382 24.8564C271.972 25.0433 271.507 25.1367 270.987 25.1367C270.468 25.1367 270.001 25.0433 269.586 24.8564C269.171 24.665 268.816 24.4007 268.52 24.0635C268.228 23.7217 268.005 23.3229 267.85 22.8672C267.695 22.4115 267.617 21.917 267.617 21.3838ZM268.882 21.2266V21.3838C268.882 21.7529 268.925 22.1016 269.012 22.4297C269.098 22.7533 269.228 23.0404 269.401 23.291C269.579 23.5417 269.8 23.7399 270.064 23.8857C270.329 24.027 270.636 24.0977 270.987 24.0977C271.334 24.0977 271.637 24.027 271.896 23.8857C272.161 23.7399 272.38 23.5417 272.553 23.291C272.726 23.0404 272.856 22.7533 272.942 22.4297C273.034 22.1016 273.079 21.7529 273.079 21.3838V21.2266C273.079 20.862 273.034 20.5179 272.942 20.1943C272.856 19.8662 272.724 19.5768 272.546 19.3262C272.373 19.071 272.154 18.8704 271.89 18.7246C271.63 18.5788 271.325 18.5059 270.974 18.5059C270.627 18.5059 270.322 18.5788 270.058 18.7246C269.798 18.8704 269.579 19.071 269.401 19.3262C269.228 19.5768 269.098 19.8662 269.012 20.1943C268.925 20.5179 268.882 20.862 268.882 21.2266ZM284.201 17.6035H285.35V24.8428C285.35 25.4945 285.217 26.0505 284.953 26.5107C284.689 26.971 284.32 27.3197 283.846 27.5566C283.376 27.7982 282.834 27.9189 282.219 27.9189C281.964 27.9189 281.663 27.8779 281.316 27.7959C280.975 27.7184 280.637 27.584 280.305 27.3926C279.977 27.2057 279.701 26.9528 279.478 26.6338L280.141 25.8818C280.451 26.2555 280.774 26.5153 281.111 26.6611C281.453 26.807 281.79 26.8799 282.123 26.8799C282.524 26.8799 282.87 26.8047 283.162 26.6543C283.454 26.5039 283.679 26.2806 283.839 25.9844C284.003 25.6927 284.085 25.3327 284.085 24.9043V19.2305L284.201 17.6035ZM279.108 21.3838V21.2402C279.108 20.6751 279.174 20.1624 279.307 19.7021C279.443 19.2373 279.637 18.8385 279.888 18.5059C280.143 18.1732 280.451 17.918 280.811 17.7402C281.171 17.5579 281.576 17.4668 282.027 17.4668C282.492 17.4668 282.898 17.5488 283.244 17.7129C283.595 17.8724 283.891 18.1071 284.133 18.417C284.379 18.7223 284.573 19.0915 284.714 19.5244C284.855 19.9574 284.953 20.4473 285.008 20.9941V21.623C284.958 22.1654 284.86 22.653 284.714 23.0859C284.573 23.5189 284.379 23.888 284.133 24.1934C283.891 24.4987 283.595 24.7334 283.244 24.8975C282.893 25.057 282.483 25.1367 282.014 25.1367C281.572 25.1367 281.171 25.0433 280.811 24.8564C280.455 24.6696 280.15 24.4076 279.895 24.0703C279.639 23.7331 279.443 23.3366 279.307 22.8809C279.174 22.4206 279.108 21.9215 279.108 21.3838ZM280.373 21.2402V21.3838C280.373 21.7529 280.41 22.0993 280.482 22.4229C280.56 22.7464 280.676 23.0312 280.831 23.2773C280.991 23.5234 281.193 23.7171 281.439 23.8584C281.686 23.9951 281.979 24.0635 282.321 24.0635C282.741 24.0635 283.087 23.9746 283.36 23.7969C283.634 23.6191 283.85 23.3844 284.01 23.0928C284.174 22.8011 284.301 22.4844 284.393 22.1426V20.4951C284.342 20.2445 284.265 20.0029 284.16 19.7705C284.06 19.5335 283.928 19.3239 283.764 19.1416C283.604 18.9548 283.406 18.8066 283.169 18.6973C282.932 18.5879 282.654 18.5332 282.335 18.5332C281.989 18.5332 281.69 18.6061 281.439 18.752C281.193 18.8932 280.991 19.0892 280.831 19.3398C280.676 19.5859 280.56 19.873 280.482 20.2012C280.41 20.5247 280.373 20.8711 280.373 21.2402ZM290.34 25.1367C289.825 25.1367 289.358 25.0501 288.938 24.877C288.524 24.6992 288.166 24.4508 287.865 24.1318C287.569 23.8128 287.341 23.4346 287.182 22.9971C287.022 22.5596 286.942 22.0811 286.942 21.5615V21.2744C286.942 20.6729 287.031 20.1374 287.209 19.668C287.387 19.194 287.628 18.793 287.934 18.4648C288.239 18.1367 288.585 17.8883 288.973 17.7197C289.36 17.5511 289.761 17.4668 290.176 17.4668C290.704 17.4668 291.16 17.5579 291.543 17.7402C291.93 17.9225 292.247 18.1777 292.493 18.5059C292.739 18.8294 292.922 19.2122 293.04 19.6543C293.159 20.0918 293.218 20.5703 293.218 21.0898V21.6572H287.694V20.625H291.953V20.5293C291.935 20.2012 291.867 19.8822 291.748 19.5723C291.634 19.2624 291.452 19.0072 291.201 18.8066C290.951 18.6061 290.609 18.5059 290.176 18.5059C289.889 18.5059 289.624 18.5674 289.383 18.6904C289.141 18.8089 288.934 18.9867 288.761 19.2236C288.588 19.4606 288.453 19.75 288.357 20.0918C288.262 20.4336 288.214 20.8278 288.214 21.2744V21.5615C288.214 21.9124 288.262 22.2428 288.357 22.5527C288.458 22.8581 288.601 23.127 288.788 23.3594C288.979 23.5918 289.21 23.7741 289.479 23.9062C289.752 24.0384 290.062 24.1045 290.408 24.1045C290.855 24.1045 291.233 24.0133 291.543 23.8311C291.853 23.6488 292.124 23.4049 292.356 23.0996L293.122 23.708C292.963 23.9495 292.76 24.1797 292.514 24.3984C292.268 24.6172 291.965 24.7949 291.604 24.9316C291.249 25.0684 290.827 25.1367 290.34 25.1367ZM297.791 17.6035V18.5742H293.792V17.6035H297.791ZM295.146 15.8057H296.41V23.168C296.41 23.4186 296.449 23.6077 296.526 23.7354C296.604 23.863 296.704 23.9473 296.827 23.9883C296.95 24.0293 297.082 24.0498 297.224 24.0498C297.328 24.0498 297.438 24.0407 297.552 24.0225C297.67 23.9997 297.759 23.9814 297.818 23.9678L297.825 25C297.725 25.0319 297.593 25.0615 297.429 25.0889C297.269 25.1208 297.076 25.1367 296.848 25.1367C296.538 25.1367 296.253 25.0752 295.993 24.9521C295.733 24.8291 295.526 24.624 295.371 24.3369C295.221 24.0452 295.146 23.6533 295.146 23.1611V15.8057ZM305.379 20.249V21.2881H302.043V20.249H305.379ZM21.3252 44.7354V40.9277C21.3252 40.6361 21.266 40.3831 21.1475 40.1689C21.0335 39.9502 20.8604 39.7816 20.6279 39.6631C20.3955 39.5446 20.1084 39.4854 19.7666 39.4854C19.4476 39.4854 19.1673 39.54 18.9258 39.6494C18.6888 39.7588 18.502 39.9023 18.3652 40.0801C18.2331 40.2578 18.167 40.4492 18.167 40.6543H16.9023C16.9023 40.39 16.9707 40.1279 17.1074 39.8682C17.2441 39.6084 17.4401 39.3737 17.6953 39.1641C17.9551 38.9499 18.265 38.7812 18.625 38.6582C18.9896 38.5306 19.3952 38.4668 19.8418 38.4668C20.3796 38.4668 20.8535 38.5579 21.2637 38.7402C21.6784 38.9225 22.002 39.1982 22.2344 39.5674C22.4714 39.932 22.5898 40.39 22.5898 40.9414V44.3867C22.5898 44.6328 22.6104 44.8949 22.6514 45.1729C22.6969 45.4508 22.763 45.6901 22.8496 45.8906V46H21.5303C21.4665 45.8542 21.4163 45.6605 21.3799 45.4189C21.3434 45.1729 21.3252 44.945 21.3252 44.7354ZM21.5439 41.5156L21.5576 42.4043H20.2793C19.9193 42.4043 19.598 42.4339 19.3154 42.4932C19.0329 42.5479 18.7959 42.6322 18.6045 42.7461C18.4131 42.86 18.2673 43.0036 18.167 43.1768C18.0667 43.3454 18.0166 43.5436 18.0166 43.7715C18.0166 44.0039 18.069 44.2158 18.1738 44.4072C18.2786 44.5986 18.4359 44.7513 18.6455 44.8652C18.8597 44.9746 19.1217 45.0293 19.4316 45.0293C19.819 45.0293 20.1608 44.9473 20.457 44.7832C20.7533 44.6191 20.988 44.4186 21.1611 44.1816C21.3389 43.9447 21.4346 43.7145 21.4482 43.4912L21.9883 44.0996C21.9564 44.291 21.8698 44.5029 21.7285 44.7354C21.5872 44.9678 21.3981 45.1911 21.1611 45.4053C20.9287 45.6149 20.6507 45.7904 20.3271 45.9316C20.0081 46.0684 19.6481 46.1367 19.2471 46.1367C18.7458 46.1367 18.306 46.0387 17.9277 45.8428C17.554 45.6468 17.2624 45.3848 17.0527 45.0566C16.8477 44.724 16.7451 44.3525 16.7451 43.9424C16.7451 43.5459 16.8226 43.1973 16.9775 42.8965C17.1325 42.5911 17.3558 42.3382 17.6475 42.1377C17.9391 41.9326 18.29 41.7777 18.7002 41.6729C19.1104 41.568 19.5684 41.5156 20.0742 41.5156H21.5439ZM25.9531 35.5V46H24.6816V35.5H25.9531ZM29.3574 35.5V46H28.0859V35.5H29.3574ZM34.5254 42.3838V42.2266C34.5254 41.6934 34.6029 41.1989 34.7578 40.7432C34.9128 40.2829 35.1361 39.8841 35.4277 39.5469C35.7194 39.2051 36.0726 38.9408 36.4873 38.7539C36.902 38.5625 37.3669 38.4668 37.8818 38.4668C38.4014 38.4668 38.8685 38.5625 39.2832 38.7539C39.7025 38.9408 40.0579 39.2051 40.3496 39.5469C40.6458 39.8841 40.8714 40.2829 41.0264 40.7432C41.1813 41.1989 41.2588 41.6934 41.2588 42.2266V42.3838C41.2588 42.917 41.1813 43.4115 41.0264 43.8672C40.8714 44.3229 40.6458 44.7217 40.3496 45.0635C40.0579 45.4007 39.7048 45.665 39.29 45.8564C38.8799 46.0433 38.415 46.1367 37.8955 46.1367C37.376 46.1367 36.9089 46.0433 36.4941 45.8564C36.0794 45.665 35.724 45.4007 35.4277 45.0635C35.1361 44.7217 34.9128 44.3229 34.7578 43.8672C34.6029 43.4115 34.5254 42.917 34.5254 42.3838ZM35.79 42.2266V42.3838C35.79 42.7529 35.8333 43.1016 35.9199 43.4297C36.0065 43.7533 36.1364 44.0404 36.3096 44.291C36.4873 44.5417 36.7083 44.7399 36.9727 44.8857C37.237 45.027 37.5446 45.0977 37.8955 45.0977C38.2419 45.0977 38.5449 45.027 38.8047 44.8857C39.069 44.7399 39.2878 44.5417 39.4609 44.291C39.6341 44.0404 39.764 43.7533 39.8506 43.4297C39.9417 43.1016 39.9873 42.7529 39.9873 42.3838V42.2266C39.9873 41.862 39.9417 41.5179 39.8506 41.1943C39.764 40.8662 39.6318 40.5768 39.4541 40.3262C39.2809 40.071 39.0622 39.8704 38.7979 39.7246C38.5381 39.5788 38.2327 39.5059 37.8818 39.5059C37.5355 39.5059 37.2301 39.5788 36.9658 39.7246C36.7061 39.8704 36.4873 40.071 36.3096 40.3262C36.1364 40.5768 36.0065 40.8662 35.9199 41.1943C35.8333 41.5179 35.79 41.862 35.79 42.2266ZM44.7314 46H43.4668V37.8242C43.4668 37.291 43.5625 36.8421 43.7539 36.4775C43.9499 36.1084 44.2301 35.8304 44.5947 35.6436C44.9593 35.4521 45.3923 35.3564 45.8936 35.3564C46.0394 35.3564 46.1852 35.3656 46.3311 35.3838C46.4814 35.402 46.6273 35.4294 46.7686 35.4658L46.7002 36.498C46.6045 36.4753 46.4951 36.4593 46.3721 36.4502C46.2536 36.4411 46.1351 36.4365 46.0166 36.4365C45.7477 36.4365 45.5153 36.4912 45.3193 36.6006C45.1279 36.7054 44.9821 36.8604 44.8818 37.0654C44.7816 37.2705 44.7314 37.5234 44.7314 37.8242V46ZM46.3037 38.6035V39.5742H42.2979V38.6035H46.3037ZM54.2812 38.6035V39.5742H50.2822V38.6035H54.2812ZM51.6357 36.8057H52.9004V44.168C52.9004 44.4186 52.9391 44.6077 53.0166 44.7354C53.0941 44.863 53.1943 44.9473 53.3174 44.9883C53.4404 45.0293 53.5726 45.0498 53.7139 45.0498C53.8187 45.0498 53.9281 45.0407 54.042 45.0225C54.1605 44.9997 54.2493 44.9814 54.3086 44.9678L54.3154 46C54.2152 46.0319 54.083 46.0615 53.9189 46.0889C53.7594 46.1208 53.5658 46.1367 53.3379 46.1367C53.028 46.1367 52.7432 46.0752 52.4834 45.9521C52.2236 45.8291 52.0163 45.624 51.8613 45.3369C51.7109 45.0452 51.6357 44.6533 51.6357 44.1611V36.8057ZM57.0293 35.5V46H55.7646V35.5H57.0293ZM56.7285 42.0215L56.2021 42.001C56.2067 41.4951 56.2819 41.028 56.4277 40.5996C56.5736 40.1667 56.7786 39.7907 57.043 39.4717C57.3073 39.1527 57.6217 38.9066 57.9863 38.7334C58.3555 38.5557 58.7633 38.4668 59.21 38.4668C59.5745 38.4668 59.9027 38.5169 60.1943 38.6172C60.486 38.7129 60.7344 38.8678 60.9395 39.082C61.1491 39.2962 61.3086 39.5742 61.418 39.916C61.5273 40.2533 61.582 40.6657 61.582 41.1533V46H60.3105V41.1396C60.3105 40.7523 60.2536 40.4424 60.1396 40.21C60.0257 39.973 59.8594 39.8021 59.6406 39.6973C59.4219 39.5879 59.153 39.5332 58.834 39.5332C58.5195 39.5332 58.2324 39.5993 57.9727 39.7314C57.7174 39.8636 57.4964 40.0459 57.3096 40.2783C57.1273 40.5107 56.9837 40.7773 56.8789 41.0781C56.7786 41.3743 56.7285 41.6888 56.7285 42.0215ZM66.5449 46.1367C66.0299 46.1367 65.5628 46.0501 65.1436 45.877C64.7288 45.6992 64.3711 45.4508 64.0703 45.1318C63.7741 44.8128 63.5462 44.4346 63.3867 43.9971C63.2272 43.5596 63.1475 43.0811 63.1475 42.5615V42.2744C63.1475 41.6729 63.2363 41.1374 63.4141 40.668C63.5918 40.194 63.8333 39.793 64.1387 39.4648C64.444 39.1367 64.7904 38.8883 65.1777 38.7197C65.5651 38.5511 65.9661 38.4668 66.3809 38.4668C66.9095 38.4668 67.3652 38.5579 67.748 38.7402C68.1354 38.9225 68.4521 39.1777 68.6982 39.5059C68.9443 39.8294 69.1266 40.2122 69.2451 40.6543C69.3636 41.0918 69.4229 41.5703 69.4229 42.0898V42.6572H63.8994V41.625H68.1582V41.5293C68.14 41.2012 68.0716 40.8822 67.9531 40.5723C67.8392 40.2624 67.6569 40.0072 67.4062 39.8066C67.1556 39.6061 66.8138 39.5059 66.3809 39.5059C66.0938 39.5059 65.8294 39.5674 65.5879 39.6904C65.3464 39.8089 65.139 39.9867 64.9658 40.2236C64.7926 40.4606 64.6582 40.75 64.5625 41.0918C64.4668 41.4336 64.4189 41.8278 64.4189 42.2744V42.5615C64.4189 42.9124 64.4668 43.2428 64.5625 43.5527C64.6628 43.8581 64.8063 44.127 64.9932 44.3594C65.1846 44.5918 65.4147 44.7741 65.6836 44.9062C65.957 45.0384 66.2669 45.1045 66.6133 45.1045C67.0599 45.1045 67.4382 45.0133 67.748 44.8311C68.0579 44.6488 68.3291 44.4049 68.5615 44.0996L69.3271 44.708C69.1676 44.9495 68.9648 45.1797 68.7188 45.3984C68.4727 45.6172 68.1696 45.7949 67.8096 45.9316C67.4541 46.0684 67.0326 46.1367 66.5449 46.1367ZM72.1572 40.0732V46H70.8857V38.6035H72.0889L72.1572 40.0732ZM71.8975 42.0215L71.3096 42.001C71.3141 41.4951 71.3802 41.028 71.5078 40.5996C71.6354 40.1667 71.8245 39.7907 72.0752 39.4717C72.3258 39.1527 72.638 38.9066 73.0117 38.7334C73.3854 38.5557 73.8184 38.4668 74.3105 38.4668C74.6569 38.4668 74.9759 38.5169 75.2676 38.6172C75.5592 38.7129 75.8122 38.8656 76.0264 39.0752C76.2406 39.2848 76.4069 39.5537 76.5254 39.8818C76.6439 40.21 76.7031 40.6064 76.7031 41.0713V46H75.4385V41.1328C75.4385 40.7454 75.3724 40.4355 75.2402 40.2031C75.1126 39.9707 74.9303 39.8021 74.6934 39.6973C74.4564 39.5879 74.1784 39.5332 73.8594 39.5332C73.4857 39.5332 73.1735 39.5993 72.9229 39.7314C72.6722 39.8636 72.4717 40.0459 72.3213 40.2783C72.1709 40.5107 72.0615 40.7773 71.9932 41.0781C71.9294 41.3743 71.8975 41.6888 71.8975 42.0215ZM76.6895 41.3242L75.8418 41.584C75.8464 41.1784 75.9124 40.7887 76.04 40.415C76.1722 40.0413 76.3613 39.7087 76.6074 39.417C76.8581 39.1253 77.1657 38.8952 77.5303 38.7266C77.8949 38.5534 78.3118 38.4668 78.7812 38.4668C79.1777 38.4668 79.5286 38.5192 79.834 38.624C80.1439 38.7288 80.4036 38.8906 80.6133 39.1094C80.8275 39.3236 80.9893 39.5993 81.0986 39.9365C81.208 40.2738 81.2627 40.6748 81.2627 41.1396V46H79.9912V41.126C79.9912 40.7113 79.9251 40.39 79.793 40.1621C79.6654 39.9297 79.4831 39.7679 79.2461 39.6768C79.0137 39.5811 78.7357 39.5332 78.4121 39.5332C78.1341 39.5332 77.888 39.5811 77.6738 39.6768C77.4596 39.7725 77.2796 39.9046 77.1338 40.0732C76.988 40.2373 76.8763 40.4264 76.7988 40.6406C76.7259 40.8548 76.6895 41.0827 76.6895 41.3242ZM84.3252 44.4961V45.5146C84.3252 45.9294 84.2204 46.3669 84.0107 46.8271C83.8011 47.292 83.5072 47.6794 83.1289 47.9893L82.4111 47.4902C82.557 47.2897 82.68 47.0846 82.7803 46.875C82.8805 46.6699 82.9557 46.4557 83.0059 46.2324C83.0605 46.0137 83.0879 45.7812 83.0879 45.5352V44.4961H84.3252ZM89.4453 38.6035H90.7168V46.8818C90.7168 47.333 90.6439 47.7158 90.498 48.0303C90.3568 48.3447 90.1426 48.5817 89.8555 48.7412C89.5729 48.9053 89.2152 48.9873 88.7822 48.9873C88.6683 48.9873 88.5361 48.9759 88.3857 48.9531C88.2308 48.9303 88.1009 48.903 87.9961 48.8711L88.0029 47.8525C88.0895 47.8708 88.1875 47.8844 88.2969 47.8936C88.4062 47.9072 88.502 47.9141 88.584 47.9141C88.7708 47.9141 88.9281 47.8799 89.0557 47.8115C89.1833 47.7432 89.279 47.6338 89.3428 47.4834C89.4111 47.333 89.4453 47.1325 89.4453 46.8818V38.6035ZM89.3154 36.6416C89.3154 36.4365 89.3792 36.2633 89.5068 36.1221C89.6344 35.9808 89.819 35.9102 90.0605 35.9102C90.3066 35.9102 90.4935 35.9808 90.6211 36.1221C90.7487 36.2633 90.8125 36.4365 90.8125 36.6416C90.8125 36.8376 90.7487 37.0062 90.6211 37.1475C90.4935 37.2842 90.3066 37.3525 90.0605 37.3525C89.819 37.3525 89.6344 37.2842 89.5068 37.1475C89.3792 37.0062 89.3154 36.8376 89.3154 36.6416ZM97.2861 44.291V38.6035H98.5576V46H97.3477L97.2861 44.291ZM97.5254 42.7324L98.0518 42.7188C98.0518 43.2109 97.9993 43.6667 97.8945 44.0859C97.7943 44.5007 97.6302 44.8607 97.4023 45.166C97.1745 45.4714 96.876 45.7106 96.5068 45.8838C96.1377 46.0524 95.6888 46.1367 95.1602 46.1367C94.8001 46.1367 94.4697 46.0843 94.1689 45.9795C93.8727 45.8747 93.6175 45.7129 93.4033 45.4941C93.1891 45.2754 93.0228 44.9906 92.9043 44.6396C92.7904 44.2887 92.7334 43.8672 92.7334 43.375V38.6035H93.998V43.3887C93.998 43.7214 94.0345 43.9971 94.1074 44.2158C94.1849 44.43 94.2874 44.6009 94.415 44.7285C94.5472 44.8516 94.693 44.9382 94.8525 44.9883C95.0166 45.0384 95.1852 45.0635 95.3584 45.0635C95.8962 45.0635 96.3223 44.9609 96.6367 44.7559C96.9512 44.5462 97.1768 44.266 97.3135 43.915C97.4548 43.5596 97.5254 43.1654 97.5254 42.7324ZM104.792 44.0381C104.792 43.8558 104.751 43.6872 104.669 43.5322C104.591 43.3727 104.43 43.2292 104.184 43.1016C103.942 42.9694 103.577 42.8555 103.09 42.7598C102.68 42.6732 102.308 42.5706 101.976 42.4521C101.647 42.3337 101.367 42.1901 101.135 42.0215C100.907 41.8529 100.731 41.6546 100.608 41.4268C100.485 41.1989 100.424 40.9323 100.424 40.627C100.424 40.3353 100.488 40.0596 100.615 39.7998C100.747 39.54 100.932 39.3099 101.169 39.1094C101.41 38.9089 101.7 38.7516 102.037 38.6377C102.374 38.5238 102.75 38.4668 103.165 38.4668C103.757 38.4668 104.263 38.5716 104.683 38.7812C105.102 38.9909 105.423 39.2712 105.646 39.6221C105.87 39.9684 105.981 40.3535 105.981 40.7773H104.717C104.717 40.5723 104.655 40.374 104.532 40.1826C104.414 39.9867 104.238 39.8249 104.006 39.6973C103.778 39.5697 103.498 39.5059 103.165 39.5059C102.814 39.5059 102.529 39.5605 102.311 39.6699C102.096 39.7747 101.939 39.9092 101.839 40.0732C101.743 40.2373 101.695 40.4105 101.695 40.5928C101.695 40.7295 101.718 40.8525 101.764 40.9619C101.814 41.0667 101.9 41.1647 102.023 41.2559C102.146 41.3424 102.32 41.4245 102.543 41.502C102.766 41.5794 103.051 41.6569 103.397 41.7344C104.004 41.8711 104.503 42.0352 104.895 42.2266C105.286 42.418 105.578 42.6527 105.77 42.9307C105.961 43.2087 106.057 43.5459 106.057 43.9424C106.057 44.266 105.988 44.5622 105.852 44.8311C105.719 45.0999 105.526 45.3324 105.271 45.5283C105.02 45.7197 104.719 45.8701 104.368 45.9795C104.022 46.0843 103.632 46.1367 103.199 46.1367C102.548 46.1367 101.996 46.0205 101.545 45.7881C101.094 45.5557 100.752 45.2549 100.52 44.8857C100.287 44.5166 100.171 44.127 100.171 43.7168H101.442C101.461 44.0632 101.561 44.3389 101.743 44.5439C101.925 44.7445 102.149 44.888 102.413 44.9746C102.677 45.0566 102.939 45.0977 103.199 45.0977C103.546 45.0977 103.835 45.0521 104.067 44.9609C104.304 44.8698 104.484 44.7445 104.607 44.585C104.73 44.4255 104.792 44.2432 104.792 44.0381ZM110.814 38.6035V39.5742H106.815V38.6035H110.814ZM108.169 36.8057H109.434V44.168C109.434 44.4186 109.472 44.6077 109.55 44.7354C109.627 44.863 109.728 44.9473 109.851 44.9883C109.974 45.0293 110.106 45.0498 110.247 45.0498C110.352 45.0498 110.461 45.0407 110.575 45.0225C110.694 44.9997 110.783 44.9814 110.842 44.9678L110.849 46C110.748 46.0319 110.616 46.0615 110.452 46.0889C110.293 46.1208 110.099 46.1367 109.871 46.1367C109.561 46.1367 109.276 46.0752 109.017 45.9521C108.757 45.8291 108.549 45.624 108.395 45.3369C108.244 45.0452 108.169 44.6533 108.169 44.1611V36.8057ZM118.867 38.6035V39.5742H114.868V38.6035H118.867ZM116.222 36.8057H117.486V44.168C117.486 44.4186 117.525 44.6077 117.603 44.7354C117.68 44.863 117.78 44.9473 117.903 44.9883C118.026 45.0293 118.159 45.0498 118.3 45.0498C118.405 45.0498 118.514 45.0407 118.628 45.0225C118.746 44.9997 118.835 44.9814 118.895 44.9678L118.901 46C118.801 46.0319 118.669 46.0615 118.505 46.0889C118.345 46.1208 118.152 46.1367 117.924 46.1367C117.614 46.1367 117.329 46.0752 117.069 45.9521C116.81 45.8291 116.602 45.624 116.447 45.3369C116.297 45.0452 116.222 44.6533 116.222 44.1611V36.8057ZM121.615 35.5V46H120.351V35.5H121.615ZM121.314 42.0215L120.788 42.001C120.793 41.4951 120.868 41.028 121.014 40.5996C121.16 40.1667 121.365 39.7907 121.629 39.4717C121.893 39.1527 122.208 38.9066 122.572 38.7334C122.941 38.5557 123.349 38.4668 123.796 38.4668C124.16 38.4668 124.489 38.5169 124.78 38.6172C125.072 38.7129 125.32 38.8678 125.525 39.082C125.735 39.2962 125.895 39.5742 126.004 39.916C126.113 40.2533 126.168 40.6657 126.168 41.1533V46H124.896V41.1396C124.896 40.7523 124.84 40.4424 124.726 40.21C124.612 39.973 124.445 39.8021 124.227 39.6973C124.008 39.5879 123.739 39.5332 123.42 39.5332C123.105 39.5332 122.818 39.5993 122.559 39.7314C122.303 39.8636 122.082 40.0459 121.896 40.2783C121.713 40.5107 121.57 40.7773 121.465 41.0781C121.365 41.3743 121.314 41.6888 121.314 42.0215ZM131.131 46.1367C130.616 46.1367 130.149 46.0501 129.729 45.877C129.315 45.6992 128.957 45.4508 128.656 45.1318C128.36 44.8128 128.132 44.4346 127.973 43.9971C127.813 43.5596 127.733 43.0811 127.733 42.5615V42.2744C127.733 41.6729 127.822 41.1374 128 40.668C128.178 40.194 128.419 39.793 128.725 39.4648C129.03 39.1367 129.376 38.8883 129.764 38.7197C130.151 38.5511 130.552 38.4668 130.967 38.4668C131.495 38.4668 131.951 38.5579 132.334 38.7402C132.721 38.9225 133.038 39.1777 133.284 39.5059C133.53 39.8294 133.713 40.2122 133.831 40.6543C133.95 41.0918 134.009 41.5703 134.009 42.0898V42.6572H128.485V41.625H132.744V41.5293C132.726 41.2012 132.658 40.8822 132.539 40.5723C132.425 40.2624 132.243 40.0072 131.992 39.8066C131.742 39.6061 131.4 39.5059 130.967 39.5059C130.68 39.5059 130.415 39.5674 130.174 39.6904C129.932 39.8089 129.725 39.9867 129.552 40.2236C129.379 40.4606 129.244 40.75 129.148 41.0918C129.053 41.4336 129.005 41.8278 129.005 42.2744V42.5615C129.005 42.9124 129.053 43.2428 129.148 43.5527C129.249 43.8581 129.392 44.127 129.579 44.3594C129.771 44.5918 130.001 44.7741 130.27 44.9062C130.543 45.0384 130.853 45.1045 131.199 45.1045C131.646 45.1045 132.024 45.0133 132.334 44.8311C132.644 44.6488 132.915 44.4049 133.147 44.0996L133.913 44.708C133.754 44.9495 133.551 45.1797 133.305 45.3984C133.059 45.6172 132.756 45.7949 132.396 45.9316C132.04 46.0684 131.618 46.1367 131.131 46.1367ZM140.332 38.6035V46H139.061V38.6035H140.332ZM138.965 36.6416C138.965 36.4365 139.026 36.2633 139.149 36.1221C139.277 35.9808 139.464 35.9102 139.71 35.9102C139.951 35.9102 140.136 35.9808 140.264 36.1221C140.396 36.2633 140.462 36.4365 140.462 36.6416C140.462 36.8376 140.396 37.0062 140.264 37.1475C140.136 37.2842 139.951 37.3525 139.71 37.3525C139.464 37.3525 139.277 37.2842 139.149 37.1475C139.026 37.0062 138.965 36.8376 138.965 36.6416ZM143.62 40.0732V46H142.349V38.6035H143.552L143.62 40.0732ZM143.36 42.0215L142.772 42.001C142.777 41.4951 142.843 41.028 142.971 40.5996C143.098 40.1667 143.287 39.7907 143.538 39.4717C143.789 39.1527 144.101 38.9066 144.475 38.7334C144.848 38.5557 145.281 38.4668 145.773 38.4668C146.12 38.4668 146.439 38.5169 146.73 38.6172C147.022 38.7129 147.275 38.8656 147.489 39.0752C147.703 39.2848 147.87 39.5537 147.988 39.8818C148.107 40.21 148.166 40.6064 148.166 41.0713V46H146.901V41.1328C146.901 40.7454 146.835 40.4355 146.703 40.2031C146.576 39.9707 146.393 39.8021 146.156 39.6973C145.919 39.5879 145.641 39.5332 145.322 39.5332C144.949 39.5332 144.636 39.5993 144.386 39.7314C144.135 39.8636 143.935 40.0459 143.784 40.2783C143.634 40.5107 143.524 40.7773 143.456 41.0781C143.392 41.3743 143.36 41.6888 143.36 42.0215ZM148.152 41.3242L147.305 41.584C147.309 41.1784 147.375 40.7887 147.503 40.415C147.635 40.0413 147.824 39.7087 148.07 39.417C148.321 39.1253 148.629 38.8952 148.993 38.7266C149.358 38.5534 149.775 38.4668 150.244 38.4668C150.641 38.4668 150.992 38.5192 151.297 38.624C151.607 38.7288 151.867 38.8906 152.076 39.1094C152.29 39.3236 152.452 39.5993 152.562 39.9365C152.671 40.2738 152.726 40.6748 152.726 41.1396V46H151.454V41.126C151.454 40.7113 151.388 40.39 151.256 40.1621C151.128 39.9297 150.946 39.7679 150.709 39.6768C150.477 39.5811 150.199 39.5332 149.875 39.5332C149.597 39.5332 149.351 39.5811 149.137 39.6768C148.923 39.7725 148.743 39.9046 148.597 40.0732C148.451 40.2373 148.339 40.4264 148.262 40.6406C148.189 40.8548 148.152 41.0827 148.152 41.3242ZM155.904 40.0254V48.8438H154.633V38.6035H155.795L155.904 40.0254ZM160.888 42.2402V42.3838C160.888 42.9215 160.824 43.4206 160.696 43.8809C160.569 44.3366 160.382 44.7331 160.136 45.0703C159.894 45.4076 159.596 45.6696 159.24 45.8564C158.885 46.0433 158.477 46.1367 158.017 46.1367C157.547 46.1367 157.132 46.0592 156.772 45.9043C156.412 45.7493 156.107 45.5238 155.856 45.2275C155.606 44.9313 155.405 44.5758 155.255 44.1611C155.109 43.7464 155.009 43.2793 154.954 42.7598V41.9941C155.009 41.4473 155.111 40.9574 155.262 40.5244C155.412 40.0915 155.61 39.7223 155.856 39.417C156.107 39.1071 156.41 38.8724 156.766 38.7129C157.121 38.5488 157.531 38.4668 157.996 38.4668C158.461 38.4668 158.873 38.5579 159.233 38.7402C159.593 38.918 159.896 39.1732 160.143 39.5059C160.389 39.8385 160.573 40.2373 160.696 40.7021C160.824 41.1624 160.888 41.6751 160.888 42.2402ZM159.616 42.3838V42.2402C159.616 41.8711 159.577 41.5247 159.5 41.2012C159.423 40.873 159.302 40.5859 159.138 40.3398C158.978 40.0892 158.773 39.8932 158.522 39.752C158.272 39.6061 157.973 39.5332 157.627 39.5332C157.308 39.5332 157.03 39.5879 156.793 39.6973C156.561 39.8066 156.362 39.9548 156.198 40.1416C156.034 40.3239 155.9 40.5335 155.795 40.7705C155.695 41.0029 155.619 41.2445 155.569 41.4951V43.2656C155.66 43.5846 155.788 43.8854 155.952 44.168C156.116 44.446 156.335 44.6715 156.608 44.8447C156.882 45.0133 157.226 45.0977 157.641 45.0977C157.982 45.0977 158.276 45.027 158.522 44.8857C158.773 44.7399 158.978 44.5417 159.138 44.291C159.302 44.0404 159.423 43.7533 159.5 43.4297C159.577 43.1016 159.616 42.7529 159.616 42.3838ZM162.166 42.3838V42.2266C162.166 41.6934 162.243 41.1989 162.398 40.7432C162.553 40.2829 162.777 39.8841 163.068 39.5469C163.36 39.2051 163.713 38.9408 164.128 38.7539C164.543 38.5625 165.007 38.4668 165.522 38.4668C166.042 38.4668 166.509 38.5625 166.924 38.7539C167.343 38.9408 167.699 39.2051 167.99 39.5469C168.286 39.8841 168.512 40.2829 168.667 40.7432C168.822 41.1989 168.899 41.6934 168.899 42.2266V42.3838C168.899 42.917 168.822 43.4115 168.667 43.8672C168.512 44.3229 168.286 44.7217 167.99 45.0635C167.699 45.4007 167.345 45.665 166.931 45.8564C166.521 46.0433 166.056 46.1367 165.536 46.1367C165.017 46.1367 164.549 46.0433 164.135 45.8564C163.72 45.665 163.365 45.4007 163.068 45.0635C162.777 44.7217 162.553 44.3229 162.398 43.8672C162.243 43.4115 162.166 42.917 162.166 42.3838ZM163.431 42.2266V42.3838C163.431 42.7529 163.474 43.1016 163.561 43.4297C163.647 43.7533 163.777 44.0404 163.95 44.291C164.128 44.5417 164.349 44.7399 164.613 44.8857C164.878 45.027 165.185 45.0977 165.536 45.0977C165.882 45.0977 166.186 45.027 166.445 44.8857C166.71 44.7399 166.928 44.5417 167.102 44.291C167.275 44.0404 167.405 43.7533 167.491 43.4297C167.582 43.1016 167.628 42.7529 167.628 42.3838V42.2266C167.628 41.862 167.582 41.5179 167.491 41.1943C167.405 40.8662 167.272 40.5768 167.095 40.3262C166.922 40.071 166.703 39.8704 166.438 39.7246C166.179 39.5788 165.873 39.5059 165.522 39.5059C165.176 39.5059 164.871 39.5788 164.606 39.7246C164.347 39.8704 164.128 40.071 163.95 40.3262C163.777 40.5768 163.647 40.8662 163.561 41.1943C163.474 41.5179 163.431 41.862 163.431 42.2266ZM171.75 39.7656V46H170.485V38.6035H171.716L171.75 39.7656ZM174.061 38.5625L174.054 39.7383C173.949 39.7155 173.849 39.7018 173.753 39.6973C173.662 39.6882 173.557 39.6836 173.438 39.6836C173.147 39.6836 172.889 39.7292 172.666 39.8203C172.443 39.9115 172.254 40.0391 172.099 40.2031C171.944 40.3672 171.821 40.5632 171.729 40.791C171.643 41.0143 171.586 41.2604 171.559 41.5293L171.203 41.7344C171.203 41.2878 171.246 40.8685 171.333 40.4766C171.424 40.0846 171.563 39.7383 171.75 39.4375C171.937 39.1322 172.174 38.8952 172.461 38.7266C172.753 38.5534 173.099 38.4668 173.5 38.4668C173.591 38.4668 173.696 38.4782 173.814 38.501C173.933 38.5192 174.015 38.5397 174.061 38.5625ZM178.668 38.6035V39.5742H174.669V38.6035H178.668ZM176.022 36.8057H177.287V44.168C177.287 44.4186 177.326 44.6077 177.403 44.7354C177.481 44.863 177.581 44.9473 177.704 44.9883C177.827 45.0293 177.959 45.0498 178.101 45.0498C178.205 45.0498 178.315 45.0407 178.429 45.0225C178.547 44.9997 178.636 44.9814 178.695 44.9678L178.702 46C178.602 46.0319 178.47 46.0615 178.306 46.0889C178.146 46.1208 177.952 46.1367 177.725 46.1367C177.415 46.1367 177.13 46.0752 176.87 45.9521C176.61 45.8291 176.403 45.624 176.248 45.3369C176.098 45.0452 176.022 44.6533 176.022 44.1611V36.8057ZM184.513 44.7354V40.9277C184.513 40.6361 184.453 40.3831 184.335 40.1689C184.221 39.9502 184.048 39.7816 183.815 39.6631C183.583 39.5446 183.296 39.4854 182.954 39.4854C182.635 39.4854 182.355 39.54 182.113 39.6494C181.876 39.7588 181.689 39.9023 181.553 40.0801C181.421 40.2578 181.354 40.4492 181.354 40.6543H180.09C180.09 40.39 180.158 40.1279 180.295 39.8682C180.432 39.6084 180.628 39.3737 180.883 39.1641C181.143 38.9499 181.452 38.7812 181.812 38.6582C182.177 38.5306 182.583 38.4668 183.029 38.4668C183.567 38.4668 184.041 38.5579 184.451 38.7402C184.866 38.9225 185.189 39.1982 185.422 39.5674C185.659 39.932 185.777 40.39 185.777 40.9414V44.3867C185.777 44.6328 185.798 44.8949 185.839 45.1729C185.884 45.4508 185.951 45.6901 186.037 45.8906V46H184.718C184.654 45.8542 184.604 45.6605 184.567 45.4189C184.531 45.1729 184.513 44.945 184.513 44.7354ZM184.731 41.5156L184.745 42.4043H183.467C183.107 42.4043 182.785 42.4339 182.503 42.4932C182.22 42.5479 181.983 42.6322 181.792 42.7461C181.601 42.86 181.455 43.0036 181.354 43.1768C181.254 43.3454 181.204 43.5436 181.204 43.7715C181.204 44.0039 181.257 44.2158 181.361 44.4072C181.466 44.5986 181.623 44.7513 181.833 44.8652C182.047 44.9746 182.309 45.0293 182.619 45.0293C183.007 45.0293 183.348 44.9473 183.645 44.7832C183.941 44.6191 184.175 44.4186 184.349 44.1816C184.526 43.9447 184.622 43.7145 184.636 43.4912L185.176 44.0996C185.144 44.291 185.057 44.5029 184.916 44.7354C184.775 44.9678 184.586 45.1911 184.349 45.4053C184.116 45.6149 183.838 45.7904 183.515 45.9316C183.196 46.0684 182.836 46.1367 182.435 46.1367C181.933 46.1367 181.493 46.0387 181.115 45.8428C180.742 45.6468 180.45 45.3848 180.24 45.0566C180.035 44.724 179.933 44.3525 179.933 43.9424C179.933 43.5459 180.01 43.1973 180.165 42.8965C180.32 42.5911 180.543 42.3382 180.835 42.1377C181.127 41.9326 181.478 41.7777 181.888 41.6729C182.298 41.568 182.756 41.5156 183.262 41.5156H184.731ZM189.031 40.1826V46H187.767V38.6035H188.963L189.031 40.1826ZM188.73 42.0215L188.204 42.001C188.209 41.4951 188.284 41.028 188.43 40.5996C188.576 40.1667 188.781 39.7907 189.045 39.4717C189.309 39.1527 189.624 38.9066 189.988 38.7334C190.357 38.5557 190.765 38.4668 191.212 38.4668C191.576 38.4668 191.905 38.5169 192.196 38.6172C192.488 38.7129 192.736 38.8678 192.941 39.082C193.151 39.2962 193.311 39.5742 193.42 39.916C193.529 40.2533 193.584 40.6657 193.584 41.1533V46H192.312V41.1396C192.312 40.7523 192.256 40.4424 192.142 40.21C192.028 39.973 191.861 39.8021 191.643 39.6973C191.424 39.5879 191.155 39.5332 190.836 39.5332C190.521 39.5332 190.234 39.5993 189.975 39.7314C189.719 39.8636 189.498 40.0459 189.312 40.2783C189.129 40.5107 188.986 40.7773 188.881 41.0781C188.781 41.3743 188.73 41.6888 188.73 42.0215ZM198.602 38.6035V39.5742H194.603V38.6035H198.602ZM195.956 36.8057H197.221V44.168C197.221 44.4186 197.259 44.6077 197.337 44.7354C197.414 44.863 197.515 44.9473 197.638 44.9883C197.761 45.0293 197.893 45.0498 198.034 45.0498C198.139 45.0498 198.248 45.0407 198.362 45.0225C198.481 44.9997 198.57 44.9814 198.629 44.9678L198.636 46C198.535 46.0319 198.403 46.0615 198.239 46.0889C198.08 46.1208 197.886 46.1367 197.658 46.1367C197.348 46.1367 197.063 46.0752 196.804 45.9521C196.544 45.8291 196.337 45.624 196.182 45.3369C196.031 45.0452 195.956 44.6533 195.956 44.1611V36.8057ZM207.864 44.0381C207.864 43.8558 207.823 43.6872 207.741 43.5322C207.664 43.3727 207.502 43.2292 207.256 43.1016C207.014 42.9694 206.65 42.8555 206.162 42.7598C205.752 42.6732 205.381 42.5706 205.048 42.4521C204.72 42.3337 204.439 42.1901 204.207 42.0215C203.979 41.8529 203.804 41.6546 203.681 41.4268C203.558 41.1989 203.496 40.9323 203.496 40.627C203.496 40.3353 203.56 40.0596 203.688 39.7998C203.82 39.54 204.004 39.3099 204.241 39.1094C204.483 38.9089 204.772 38.7516 205.109 38.6377C205.447 38.5238 205.823 38.4668 206.237 38.4668C206.83 38.4668 207.336 38.5716 207.755 38.7812C208.174 38.9909 208.495 39.2712 208.719 39.6221C208.942 39.9684 209.054 40.3535 209.054 40.7773H207.789C207.789 40.5723 207.728 40.374 207.604 40.1826C207.486 39.9867 207.311 39.8249 207.078 39.6973C206.85 39.5697 206.57 39.5059 206.237 39.5059C205.886 39.5059 205.602 39.5605 205.383 39.6699C205.169 39.7747 205.011 39.9092 204.911 40.0732C204.815 40.2373 204.768 40.4105 204.768 40.5928C204.768 40.7295 204.79 40.8525 204.836 40.9619C204.886 41.0667 204.973 41.1647 205.096 41.2559C205.219 41.3424 205.392 41.4245 205.615 41.502C205.839 41.5794 206.123 41.6569 206.47 41.7344C207.076 41.8711 207.575 42.0352 207.967 42.2266C208.359 42.418 208.65 42.6527 208.842 42.9307C209.033 43.2087 209.129 43.5459 209.129 43.9424C209.129 44.266 209.061 44.5622 208.924 44.8311C208.792 45.0999 208.598 45.3324 208.343 45.5283C208.092 45.7197 207.791 45.8701 207.44 45.9795C207.094 46.0843 206.704 46.1367 206.271 46.1367C205.62 46.1367 205.068 46.0205 204.617 45.7881C204.166 45.5557 203.824 45.2549 203.592 44.8857C203.359 44.5166 203.243 44.127 203.243 43.7168H204.515C204.533 44.0632 204.633 44.3389 204.815 44.5439C204.998 44.7445 205.221 44.888 205.485 44.9746C205.75 45.0566 206.012 45.0977 206.271 45.0977C206.618 45.0977 206.907 45.0521 207.14 44.9609C207.377 44.8698 207.557 44.7445 207.68 44.585C207.803 44.4255 207.864 44.2432 207.864 44.0381ZM213.887 38.6035V39.5742H209.888V38.6035H213.887ZM211.241 36.8057H212.506V44.168C212.506 44.4186 212.545 44.6077 212.622 44.7354C212.7 44.863 212.8 44.9473 212.923 44.9883C213.046 45.0293 213.178 45.0498 213.319 45.0498C213.424 45.0498 213.534 45.0407 213.647 45.0225C213.766 44.9997 213.855 44.9814 213.914 44.9678L213.921 46C213.821 46.0319 213.688 46.0615 213.524 46.0889C213.365 46.1208 213.171 46.1367 212.943 46.1367C212.633 46.1367 212.349 46.0752 212.089 45.9521C211.829 45.8291 211.622 45.624 211.467 45.3369C211.316 45.0452 211.241 44.6533 211.241 44.1611V36.8057ZM219.896 44.291V38.6035H221.167V46H219.957L219.896 44.291ZM220.135 42.7324L220.661 42.7188C220.661 43.2109 220.609 43.6667 220.504 44.0859C220.404 44.5007 220.24 44.8607 220.012 45.166C219.784 45.4714 219.485 45.7106 219.116 45.8838C218.747 46.0524 218.298 46.1367 217.77 46.1367C217.41 46.1367 217.079 46.0843 216.778 45.9795C216.482 45.8747 216.227 45.7129 216.013 45.4941C215.799 45.2754 215.632 44.9906 215.514 44.6396C215.4 44.2887 215.343 43.8672 215.343 43.375V38.6035H216.607V43.3887C216.607 43.7214 216.644 43.9971 216.717 44.2158C216.794 44.43 216.897 44.6009 217.024 44.7285C217.157 44.8516 217.302 44.9382 217.462 44.9883C217.626 45.0384 217.795 45.0635 217.968 45.0635C218.506 45.0635 218.932 44.9609 219.246 44.7559C219.561 44.5462 219.786 44.266 219.923 43.915C220.064 43.5596 220.135 43.1654 220.135 42.7324ZM224.981 46H223.717V37.8242C223.717 37.291 223.812 36.8421 224.004 36.4775C224.2 36.1084 224.48 35.8304 224.845 35.6436C225.209 35.4521 225.642 35.3564 226.144 35.3564C226.289 35.3564 226.435 35.3656 226.581 35.3838C226.731 35.402 226.877 35.4294 227.019 35.4658L226.95 36.498C226.854 36.4753 226.745 36.4593 226.622 36.4502C226.504 36.4411 226.385 36.4365 226.267 36.4365C225.998 36.4365 225.765 36.4912 225.569 36.6006C225.378 36.7054 225.232 36.8604 225.132 37.0654C225.032 37.2705 224.981 37.5234 224.981 37.8242V46ZM226.554 38.6035V39.5742H222.548V38.6035H226.554ZM229.849 46H228.584V37.8242C228.584 37.291 228.68 36.8421 228.871 36.4775C229.067 36.1084 229.347 35.8304 229.712 35.6436C230.076 35.4521 230.509 35.3564 231.011 35.3564C231.157 35.3564 231.302 35.3656 231.448 35.3838C231.599 35.402 231.744 35.4294 231.886 35.4658L231.817 36.498C231.722 36.4753 231.612 36.4593 231.489 36.4502C231.371 36.4411 231.252 36.4365 231.134 36.4365C230.865 36.4365 230.632 36.4912 230.437 36.6006C230.245 36.7054 230.099 36.8604 229.999 37.0654C229.899 37.2705 229.849 37.5234 229.849 37.8242V46ZM231.421 38.6035V39.5742H227.415V38.6035H231.421ZM235.967 42.3838V42.2266C235.967 41.6934 236.044 41.1989 236.199 40.7432C236.354 40.2829 236.577 39.8841 236.869 39.5469C237.161 39.2051 237.514 38.9408 237.929 38.7539C238.343 38.5625 238.808 38.4668 239.323 38.4668C239.843 38.4668 240.31 38.5625 240.725 38.7539C241.144 38.9408 241.499 39.2051 241.791 39.5469C242.087 39.8841 242.313 40.2829 242.468 40.7432C242.623 41.1989 242.7 41.6934 242.7 42.2266V42.3838C242.7 42.917 242.623 43.4115 242.468 43.8672C242.313 44.3229 242.087 44.7217 241.791 45.0635C241.499 45.4007 241.146 45.665 240.731 45.8564C240.321 46.0433 239.856 46.1367 239.337 46.1367C238.817 46.1367 238.35 46.0433 237.936 45.8564C237.521 45.665 237.165 45.4007 236.869 45.0635C236.577 44.7217 236.354 44.3229 236.199 43.8672C236.044 43.4115 235.967 42.917 235.967 42.3838ZM237.231 42.2266V42.3838C237.231 42.7529 237.275 43.1016 237.361 43.4297C237.448 43.7533 237.578 44.0404 237.751 44.291C237.929 44.5417 238.15 44.7399 238.414 44.8857C238.678 45.027 238.986 45.0977 239.337 45.0977C239.683 45.0977 239.986 45.027 240.246 44.8857C240.51 44.7399 240.729 44.5417 240.902 44.291C241.076 44.0404 241.205 43.7533 241.292 43.4297C241.383 43.1016 241.429 42.7529 241.429 42.3838V42.2266C241.429 41.862 241.383 41.5179 241.292 41.1943C241.205 40.8662 241.073 40.5768 240.896 40.3262C240.722 40.071 240.504 39.8704 240.239 39.7246C239.979 39.5788 239.674 39.5059 239.323 39.5059C238.977 39.5059 238.672 39.5788 238.407 39.7246C238.147 39.8704 237.929 40.071 237.751 40.3262C237.578 40.5768 237.448 40.8662 237.361 41.1943C237.275 41.5179 237.231 41.862 237.231 42.2266ZM245.551 39.7656V46H244.286V38.6035H245.517L245.551 39.7656ZM247.861 38.5625L247.854 39.7383C247.75 39.7155 247.649 39.7018 247.554 39.6973C247.463 39.6882 247.358 39.6836 247.239 39.6836C246.948 39.6836 246.69 39.7292 246.467 39.8203C246.243 39.9115 246.054 40.0391 245.899 40.2031C245.744 40.3672 245.621 40.5632 245.53 40.791C245.444 41.0143 245.387 41.2604 245.359 41.5293L245.004 41.7344C245.004 41.2878 245.047 40.8685 245.134 40.4766C245.225 40.0846 245.364 39.7383 245.551 39.4375C245.738 39.1322 245.975 38.8952 246.262 38.7266C246.553 38.5534 246.9 38.4668 247.301 38.4668C247.392 38.4668 247.497 38.4782 247.615 38.501C247.734 38.5192 247.816 38.5397 247.861 38.5625ZM255.6 38.6035V39.5742H251.601V38.6035H255.6ZM252.954 36.8057H254.219V44.168C254.219 44.4186 254.257 44.6077 254.335 44.7354C254.412 44.863 254.513 44.9473 254.636 44.9883C254.759 45.0293 254.891 45.0498 255.032 45.0498C255.137 45.0498 255.246 45.0407 255.36 45.0225C255.479 44.9997 255.568 44.9814 255.627 44.9678L255.634 46C255.534 46.0319 255.401 46.0615 255.237 46.0889C255.078 46.1208 254.884 46.1367 254.656 46.1367C254.346 46.1367 254.062 46.0752 253.802 45.9521C253.542 45.8291 253.335 45.624 253.18 45.3369C253.029 45.0452 252.954 44.6533 252.954 44.1611V36.8057ZM258.348 35.5V46H257.083V35.5H258.348ZM258.047 42.0215L257.521 42.001C257.525 41.4951 257.6 41.028 257.746 40.5996C257.892 40.1667 258.097 39.7907 258.361 39.4717C258.626 39.1527 258.94 38.9066 259.305 38.7334C259.674 38.5557 260.082 38.4668 260.528 38.4668C260.893 38.4668 261.221 38.5169 261.513 38.6172C261.804 38.7129 262.053 38.8678 262.258 39.082C262.467 39.2962 262.627 39.5742 262.736 39.916C262.846 40.2533 262.9 40.6657 262.9 41.1533V46H261.629V41.1396C261.629 40.7523 261.572 40.4424 261.458 40.21C261.344 39.973 261.178 39.8021 260.959 39.6973C260.74 39.5879 260.471 39.5332 260.152 39.5332C259.838 39.5332 259.551 39.5993 259.291 39.7314C259.036 39.8636 258.815 40.0459 258.628 40.2783C258.446 40.5107 258.302 40.7773 258.197 41.0781C258.097 41.3743 258.047 41.6888 258.047 42.0215ZM267.863 46.1367C267.348 46.1367 266.881 46.0501 266.462 45.877C266.047 45.6992 265.689 45.4508 265.389 45.1318C265.092 44.8128 264.865 44.4346 264.705 43.9971C264.546 43.5596 264.466 43.0811 264.466 42.5615V42.2744C264.466 41.6729 264.555 41.1374 264.732 40.668C264.91 40.194 265.152 39.793 265.457 39.4648C265.762 39.1367 266.109 38.8883 266.496 38.7197C266.883 38.5511 267.285 38.4668 267.699 38.4668C268.228 38.4668 268.684 38.5579 269.066 38.7402C269.454 38.9225 269.771 39.1777 270.017 39.5059C270.263 39.8294 270.445 40.2122 270.563 40.6543C270.682 41.0918 270.741 41.5703 270.741 42.0898V42.6572H265.218V41.625H269.477V41.5293C269.458 41.2012 269.39 40.8822 269.271 40.5723C269.158 40.2624 268.975 40.0072 268.725 39.8066C268.474 39.6061 268.132 39.5059 267.699 39.5059C267.412 39.5059 267.148 39.5674 266.906 39.6904C266.665 39.8089 266.457 39.9867 266.284 40.2236C266.111 40.4606 265.977 40.75 265.881 41.0918C265.785 41.4336 265.737 41.8278 265.737 42.2744V42.5615C265.737 42.9124 265.785 43.2428 265.881 43.5527C265.981 43.8581 266.125 44.127 266.312 44.3594C266.503 44.5918 266.733 44.7741 267.002 44.9062C267.275 45.0384 267.585 45.1045 267.932 45.1045C268.378 45.1045 268.757 45.0133 269.066 44.8311C269.376 44.6488 269.647 44.4049 269.88 44.0996L270.646 44.708C270.486 44.9495 270.283 45.1797 270.037 45.3984C269.791 45.6172 269.488 45.7949 269.128 45.9316C268.772 46.0684 268.351 46.1367 267.863 46.1367ZM275.684 35.5H276.955V44.5645L276.846 46H275.684V35.5ZM281.952 42.2402V42.3838C281.952 42.9215 281.888 43.4206 281.761 43.8809C281.633 44.3366 281.446 44.7331 281.2 45.0703C280.954 45.4076 280.653 45.6696 280.298 45.8564C279.942 46.0433 279.535 46.1367 279.074 46.1367C278.605 46.1367 278.192 46.057 277.837 45.8975C277.486 45.7334 277.19 45.4987 276.948 45.1934C276.707 44.888 276.513 44.5189 276.367 44.0859C276.226 43.653 276.128 43.1654 276.073 42.623V41.9941C276.128 41.4473 276.226 40.9574 276.367 40.5244C276.513 40.0915 276.707 39.7223 276.948 39.417C277.19 39.1071 277.486 38.8724 277.837 38.7129C278.188 38.5488 278.596 38.4668 279.061 38.4668C279.525 38.4668 279.938 38.5579 280.298 38.7402C280.658 38.918 280.959 39.1732 281.2 39.5059C281.446 39.8385 281.633 40.2373 281.761 40.7021C281.888 41.1624 281.952 41.6751 281.952 42.2402ZM280.681 42.3838V42.2402C280.681 41.8711 280.646 41.5247 280.578 41.2012C280.51 40.873 280.4 40.5859 280.25 40.3398C280.1 40.0892 279.901 39.8932 279.655 39.752C279.409 39.6061 279.106 39.5332 278.746 39.5332C278.427 39.5332 278.149 39.5879 277.912 39.6973C277.68 39.8066 277.481 39.9548 277.317 40.1416C277.153 40.3239 277.019 40.5335 276.914 40.7705C276.814 41.0029 276.739 41.2445 276.688 41.4951V43.1426C276.761 43.4616 276.88 43.7692 277.044 44.0654C277.213 44.3571 277.436 44.5964 277.714 44.7832C277.996 44.9701 278.345 45.0635 278.76 45.0635C279.102 45.0635 279.393 44.9951 279.635 44.8584C279.881 44.7171 280.079 44.5234 280.229 44.2773C280.384 44.0312 280.498 43.7464 280.571 43.4229C280.644 43.0993 280.681 42.7529 280.681 42.3838ZM287.913 44.7354V40.9277C287.913 40.6361 287.854 40.3831 287.735 40.1689C287.621 39.9502 287.448 39.7816 287.216 39.6631C286.983 39.5446 286.696 39.4854 286.354 39.4854C286.035 39.4854 285.755 39.54 285.514 39.6494C285.277 39.7588 285.09 39.9023 284.953 40.0801C284.821 40.2578 284.755 40.4492 284.755 40.6543H283.49C283.49 40.39 283.559 40.1279 283.695 39.8682C283.832 39.6084 284.028 39.3737 284.283 39.1641C284.543 38.9499 284.853 38.7812 285.213 38.6582C285.577 38.5306 285.983 38.4668 286.43 38.4668C286.967 38.4668 287.441 38.5579 287.852 38.7402C288.266 38.9225 288.59 39.1982 288.822 39.5674C289.059 39.932 289.178 40.39 289.178 40.9414V44.3867C289.178 44.6328 289.198 44.8949 289.239 45.1729C289.285 45.4508 289.351 45.6901 289.438 45.8906V46H288.118C288.054 45.8542 288.004 45.6605 287.968 45.4189C287.931 45.1729 287.913 44.945 287.913 44.7354ZM288.132 41.5156L288.146 42.4043H286.867C286.507 42.4043 286.186 42.4339 285.903 42.4932C285.621 42.5479 285.384 42.6322 285.192 42.7461C285.001 42.86 284.855 43.0036 284.755 43.1768C284.655 43.3454 284.604 43.5436 284.604 43.7715C284.604 44.0039 284.657 44.2158 284.762 44.4072C284.867 44.5986 285.024 44.7513 285.233 44.8652C285.448 44.9746 285.71 45.0293 286.02 45.0293C286.407 45.0293 286.749 44.9473 287.045 44.7832C287.341 44.6191 287.576 44.4186 287.749 44.1816C287.927 43.9447 288.022 43.7145 288.036 43.4912L288.576 44.0996C288.544 44.291 288.458 44.5029 288.316 44.7354C288.175 44.9678 287.986 45.1911 287.749 45.4053C287.517 45.6149 287.239 45.7904 286.915 45.9316C286.596 46.0684 286.236 46.1367 285.835 46.1367C285.334 46.1367 284.894 46.0387 284.516 45.8428C284.142 45.6468 283.85 45.3848 283.641 45.0566C283.436 44.724 283.333 44.3525 283.333 43.9424C283.333 43.5459 283.41 43.1973 283.565 42.8965C283.72 42.5911 283.944 42.3382 284.235 42.1377C284.527 41.9326 284.878 41.7777 285.288 41.6729C285.698 41.568 286.156 41.5156 286.662 41.5156H288.132ZM292.432 39.7656V46H291.167V38.6035H292.397L292.432 39.7656ZM294.742 38.5625L294.735 39.7383C294.631 39.7155 294.53 39.7018 294.435 39.6973C294.343 39.6882 294.239 39.6836 294.12 39.6836C293.828 39.6836 293.571 39.7292 293.348 39.8203C293.124 39.9115 292.935 40.0391 292.78 40.2031C292.625 40.3672 292.502 40.5632 292.411 40.791C292.325 41.0143 292.268 41.2604 292.24 41.5293L291.885 41.7344C291.885 41.2878 291.928 40.8685 292.015 40.4766C292.106 40.0846 292.245 39.7383 292.432 39.4375C292.618 39.1322 292.855 38.8952 293.143 38.7266C293.434 38.5534 293.781 38.4668 294.182 38.4668C294.273 38.4668 294.378 38.4782 294.496 38.501C294.615 38.5192 294.697 38.5397 294.742 38.5625ZM298.844 46.1367C298.329 46.1367 297.862 46.0501 297.442 45.877C297.028 45.6992 296.67 45.4508 296.369 45.1318C296.073 44.8128 295.845 44.4346 295.686 43.9971C295.526 43.5596 295.446 43.0811 295.446 42.5615V42.2744C295.446 41.6729 295.535 41.1374 295.713 40.668C295.891 40.194 296.132 39.793 296.438 39.4648C296.743 39.1367 297.089 38.8883 297.477 38.7197C297.864 38.5511 298.265 38.4668 298.68 38.4668C299.208 38.4668 299.664 38.5579 300.047 38.7402C300.434 38.9225 300.751 39.1777 300.997 39.5059C301.243 39.8294 301.425 40.2122 301.544 40.6543C301.662 41.0918 301.722 41.5703 301.722 42.0898V42.6572H296.198V41.625H300.457V41.5293C300.439 41.2012 300.37 40.8822 300.252 40.5723C300.138 40.2624 299.956 40.0072 299.705 39.8066C299.454 39.6061 299.113 39.5059 298.68 39.5059C298.393 39.5059 298.128 39.5674 297.887 39.6904C297.645 39.8089 297.438 39.9867 297.265 40.2236C297.091 40.4606 296.957 40.75 296.861 41.0918C296.766 41.4336 296.718 41.8278 296.718 42.2744V42.5615C296.718 42.9124 296.766 43.2428 296.861 43.5527C296.962 43.8581 297.105 44.127 297.292 44.3594C297.483 44.5918 297.714 44.7741 297.982 44.9062C298.256 45.0384 298.566 45.1045 298.912 45.1045C299.359 45.1045 299.737 45.0133 300.047 44.8311C300.357 44.6488 300.628 44.4049 300.86 44.0996L301.626 44.708C301.466 44.9495 301.264 45.1797 301.018 45.3984C300.771 45.6172 300.468 45.7949 300.108 45.9316C299.753 46.0684 299.331 46.1367 298.844 46.1367ZM18.2217 61.0732V67H16.9502V59.6035H18.1533L18.2217 61.0732ZM17.9619 63.0215L17.374 63.001C17.3786 62.4951 17.4447 62.028 17.5723 61.5996C17.6999 61.1667 17.889 60.7907 18.1396 60.4717C18.3903 60.1527 18.7025 59.9066 19.0762 59.7334C19.4499 59.5557 19.8828 59.4668 20.375 59.4668C20.7214 59.4668 21.0404 59.5169 21.332 59.6172C21.6237 59.7129 21.8766 59.8656 22.0908 60.0752C22.305 60.2848 22.4714 60.5537 22.5898 60.8818C22.7083 61.21 22.7676 61.6064 22.7676 62.0713V67H21.5029V62.1328C21.5029 61.7454 21.4368 61.4355 21.3047 61.2031C21.1771 60.9707 20.9948 60.8021 20.7578 60.6973C20.5208 60.5879 20.2428 60.5332 19.9238 60.5332C19.5501 60.5332 19.238 60.5993 18.9873 60.7314C18.7367 60.8636 18.5361 61.0459 18.3857 61.2783C18.2354 61.5107 18.126 61.7773 18.0576 62.0781C17.9938 62.3743 17.9619 62.6888 17.9619 63.0215ZM22.7539 62.3242L21.9062 62.584C21.9108 62.1784 21.9769 61.7887 22.1045 61.415C22.2367 61.0413 22.4258 60.7087 22.6719 60.417C22.9225 60.1253 23.2301 59.8952 23.5947 59.7266C23.9593 59.5534 24.3763 59.4668 24.8457 59.4668C25.2422 59.4668 25.5931 59.5192 25.8984 59.624C26.2083 59.7288 26.4681 59.8906 26.6777 60.1094C26.8919 60.3236 27.0537 60.5993 27.1631 60.9365C27.2725 61.2738 27.3271 61.6748 27.3271 62.1396V67H26.0557V62.126C26.0557 61.7113 25.9896 61.39 25.8574 61.1621C25.7298 60.9297 25.5475 60.7679 25.3105 60.6768C25.0781 60.5811 24.8001 60.5332 24.4766 60.5332C24.1986 60.5332 23.9525 60.5811 23.7383 60.6768C23.5241 60.7725 23.3441 60.9046 23.1982 61.0732C23.0524 61.2373 22.9408 61.4264 22.8633 61.6406C22.7904 61.8548 22.7539 62.0827 22.7539 62.3242ZM30.6152 59.6035V67H29.3438V59.6035H30.6152ZM29.248 57.6416C29.248 57.4365 29.3096 57.2633 29.4326 57.1221C29.5602 56.9808 29.7471 56.9102 29.9932 56.9102C30.2347 56.9102 30.4193 56.9808 30.5469 57.1221C30.679 57.2633 30.7451 57.4365 30.7451 57.6416C30.7451 57.8376 30.679 58.0062 30.5469 58.1475C30.4193 58.2842 30.2347 58.3525 29.9932 58.3525C29.7471 58.3525 29.5602 58.2842 29.4326 58.1475C29.3096 58.0062 29.248 57.8376 29.248 57.6416ZM33.9102 61.1826V67H32.6455V59.6035H33.8418L33.9102 61.1826ZM33.6094 63.0215L33.083 63.001C33.0876 62.4951 33.1628 62.028 33.3086 61.5996C33.4544 61.1667 33.6595 60.7907 33.9238 60.4717C34.1882 60.1527 34.5026 59.9066 34.8672 59.7334C35.2363 59.5557 35.6442 59.4668 36.0908 59.4668C36.4554 59.4668 36.7835 59.5169 37.0752 59.6172C37.3669 59.7129 37.6152 59.8678 37.8203 60.082C38.0299 60.2962 38.1895 60.5742 38.2988 60.916C38.4082 61.2533 38.4629 61.6657 38.4629 62.1533V67H37.1914V62.1396C37.1914 61.7523 37.1344 61.4424 37.0205 61.21C36.9066 60.973 36.7402 60.8021 36.5215 60.6973C36.3027 60.5879 36.0339 60.5332 35.7148 60.5332C35.4004 60.5332 35.1133 60.5993 34.8535 60.7314C34.5983 60.8636 34.3773 61.0459 34.1904 61.2783C34.0081 61.5107 33.8646 61.7773 33.7598 62.0781C33.6595 62.3743 33.6094 62.6888 33.6094 63.0215ZM41.7578 59.6035V67H40.4863V59.6035H41.7578ZM40.3906 57.6416C40.3906 57.4365 40.4521 57.2633 40.5752 57.1221C40.7028 56.9808 40.8896 56.9102 41.1357 56.9102C41.3773 56.9102 41.5618 56.9808 41.6895 57.1221C41.8216 57.2633 41.8877 57.4365 41.8877 57.6416C41.8877 57.8376 41.8216 58.0062 41.6895 58.1475C41.5618 58.2842 41.3773 58.3525 41.1357 58.3525C40.8896 58.3525 40.7028 58.2842 40.5752 58.1475C40.4521 58.0062 40.3906 57.8376 40.3906 57.6416ZM45.0459 61.0732V67H43.7744V59.6035H44.9775L45.0459 61.0732ZM44.7861 63.0215L44.1982 63.001C44.2028 62.4951 44.2689 62.028 44.3965 61.5996C44.5241 61.1667 44.7132 60.7907 44.9639 60.4717C45.2145 60.1527 45.5267 59.9066 45.9004 59.7334C46.2741 59.5557 46.707 59.4668 47.1992 59.4668C47.5456 59.4668 47.8646 59.5169 48.1562 59.6172C48.4479 59.7129 48.7008 59.8656 48.915 60.0752C49.1292 60.2848 49.2956 60.5537 49.4141 60.8818C49.5326 61.21 49.5918 61.6064 49.5918 62.0713V67H48.3271V62.1328C48.3271 61.7454 48.2611 61.4355 48.1289 61.2031C48.0013 60.9707 47.819 60.8021 47.582 60.6973C47.3451 60.5879 47.0671 60.5332 46.748 60.5332C46.3743 60.5332 46.0622 60.5993 45.8115 60.7314C45.5609 60.8636 45.3604 61.0459 45.21 61.2783C45.0596 61.5107 44.9502 61.7773 44.8818 62.0781C44.818 62.3743 44.7861 62.6888 44.7861 63.0215ZM49.5781 62.3242L48.7305 62.584C48.735 62.1784 48.8011 61.7887 48.9287 61.415C49.0609 61.0413 49.25 60.7087 49.4961 60.417C49.7467 60.1253 50.0544 59.8952 50.4189 59.7266C50.7835 59.5534 51.2005 59.4668 51.6699 59.4668C52.0664 59.4668 52.4173 59.5192 52.7227 59.624C53.0326 59.7288 53.2923 59.8906 53.502 60.1094C53.7161 60.3236 53.8779 60.5993 53.9873 60.9365C54.0967 61.2738 54.1514 61.6748 54.1514 62.1396V67H52.8799V62.126C52.8799 61.7113 52.8138 61.39 52.6816 61.1621C52.554 60.9297 52.3717 60.7679 52.1348 60.6768C51.9023 60.5811 51.6243 60.5332 51.3008 60.5332C51.0228 60.5332 50.7767 60.5811 50.5625 60.6768C50.3483 60.7725 50.1683 60.9046 50.0225 61.0732C49.8766 61.2373 49.765 61.4264 49.6875 61.6406C49.6146 61.8548 49.5781 62.0827 49.5781 62.3242ZM60.5908 65.291V59.6035H61.8623V67H60.6523L60.5908 65.291ZM60.8301 63.7324L61.3564 63.7188C61.3564 64.2109 61.304 64.6667 61.1992 65.0859C61.099 65.5007 60.9349 65.8607 60.707 66.166C60.4792 66.4714 60.1807 66.7106 59.8115 66.8838C59.4424 67.0524 58.9935 67.1367 58.4648 67.1367C58.1048 67.1367 57.7744 67.0843 57.4736 66.9795C57.1774 66.8747 56.9222 66.7129 56.708 66.4941C56.4938 66.2754 56.3275 65.9906 56.209 65.6396C56.0951 65.2887 56.0381 64.8672 56.0381 64.375V59.6035H57.3027V64.3887C57.3027 64.7214 57.3392 64.9971 57.4121 65.2158C57.4896 65.43 57.5921 65.6009 57.7197 65.7285C57.8519 65.8516 57.9977 65.9382 58.1572 65.9883C58.3213 66.0384 58.4899 66.0635 58.6631 66.0635C59.2008 66.0635 59.627 65.9609 59.9414 65.7559C60.2559 65.5462 60.4814 65.266 60.6182 64.915C60.7594 64.5596 60.8301 64.1654 60.8301 63.7324ZM65.0479 61.0732V67H63.7764V59.6035H64.9795L65.0479 61.0732ZM64.7881 63.0215L64.2002 63.001C64.2048 62.4951 64.2708 62.028 64.3984 61.5996C64.526 61.1667 64.7152 60.7907 64.9658 60.4717C65.2165 60.1527 65.5286 59.9066 65.9023 59.7334C66.276 59.5557 66.709 59.4668 67.2012 59.4668C67.5475 59.4668 67.8665 59.5169 68.1582 59.6172C68.4499 59.7129 68.7028 59.8656 68.917 60.0752C69.1312 60.2848 69.2975 60.5537 69.416 60.8818C69.5345 61.21 69.5938 61.6064 69.5938 62.0713V67H68.3291V62.1328C68.3291 61.7454 68.263 61.4355 68.1309 61.2031C68.0033 60.9707 67.821 60.8021 67.584 60.6973C67.347 60.5879 67.069 60.5332 66.75 60.5332C66.3763 60.5332 66.0641 60.5993 65.8135 60.7314C65.5628 60.8636 65.3623 61.0459 65.2119 61.2783C65.0615 61.5107 64.9521 61.7773 64.8838 62.0781C64.82 62.3743 64.7881 62.6888 64.7881 63.0215ZM69.5801 62.3242L68.7324 62.584C68.737 62.1784 68.8031 61.7887 68.9307 61.415C69.0628 61.0413 69.252 60.7087 69.498 60.417C69.7487 60.1253 70.0563 59.8952 70.4209 59.7266C70.7855 59.5534 71.2025 59.4668 71.6719 59.4668C72.0684 59.4668 72.4193 59.5192 72.7246 59.624C73.0345 59.7288 73.2943 59.8906 73.5039 60.1094C73.7181 60.3236 73.8799 60.5993 73.9893 60.9365C74.0986 61.2738 74.1533 61.6748 74.1533 62.1396V67H72.8818V62.126C72.8818 61.7113 72.8158 61.39 72.6836 61.1621C72.556 60.9297 72.3737 60.7679 72.1367 60.6768C71.9043 60.5811 71.6263 60.5332 71.3027 60.5332C71.0247 60.5332 70.7786 60.5811 70.5645 60.6768C70.3503 60.7725 70.1702 60.9046 70.0244 61.0732C69.8786 61.2373 69.7669 61.4264 69.6895 61.6406C69.6165 61.8548 69.5801 62.0827 69.5801 62.3242ZM76.0879 66.3301C76.0879 66.1159 76.154 65.9359 76.2861 65.79C76.4229 65.6396 76.6188 65.5645 76.874 65.5645C77.1292 65.5645 77.3229 65.6396 77.4551 65.79C77.5918 65.9359 77.6602 66.1159 77.6602 66.3301C77.6602 66.5397 77.5918 66.7174 77.4551 66.8633C77.3229 67.0091 77.1292 67.082 76.874 67.082C76.6188 67.082 76.4229 67.0091 76.2861 66.8633C76.154 66.7174 76.0879 66.5397 76.0879 66.3301Z" fill="#333333"/>
</svg>
