<svg width="52" height="18" viewBox="0 0 52 18" fill="none" xmlns="http://www.w3.org/2000/svg">
<path d="M5.2793 10.7852C5.2793 10.6211 5.25391 10.4746 5.20312 10.3457C5.15625 10.2129 5.06836 10.0938 4.93945 9.98828C4.81445 9.87891 4.63672 9.77344 4.40625 9.67188C4.17969 9.56641 3.88672 9.45703 3.52734 9.34375C3.12891 9.21875 2.75781 9.07812 2.41406 8.92188C2.07031 8.76562 1.76758 8.58398 1.50586 8.37695C1.24805 8.16992 1.04688 7.93164 0.902344 7.66211C0.757812 7.38867 0.685547 7.07227 0.685547 6.71289C0.685547 6.36133 0.759766 6.04102 0.908203 5.75195C1.06055 5.46289 1.27539 5.21484 1.55273 5.00781C1.83008 4.79688 2.15625 4.63477 2.53125 4.52148C2.91016 4.4082 3.32812 4.35156 3.78516 4.35156C4.41797 4.35156 4.96484 4.4668 5.42578 4.69727C5.89062 4.92773 6.25 5.24023 6.50391 5.63477C6.75781 6.0293 6.88477 6.47266 6.88477 6.96484H5.2793C5.2793 6.69922 5.22266 6.46484 5.10938 6.26172C5 6.05859 4.83203 5.89844 4.60547 5.78125C4.38281 5.66406 4.10156 5.60547 3.76172 5.60547C3.43359 5.60547 3.16016 5.6543 2.94141 5.75195C2.72656 5.84961 2.56445 5.98242 2.45508 6.15039C2.34961 6.31836 2.29688 6.50586 2.29688 6.71289C2.29688 6.86914 2.33398 7.00977 2.4082 7.13477C2.48242 7.25586 2.59375 7.37109 2.74219 7.48047C2.89062 7.58594 3.07422 7.68555 3.29297 7.7793C3.51562 7.86914 3.77344 7.95898 4.06641 8.04883C4.53516 8.18945 4.94531 8.3457 5.29688 8.51758C5.65234 8.68945 5.94727 8.88477 6.18164 9.10352C6.41992 9.32227 6.59766 9.56836 6.71484 9.8418C6.83594 10.1152 6.89648 10.4258 6.89648 10.7734C6.89648 11.1406 6.82422 11.4688 6.67969 11.7578C6.53516 12.0469 6.32812 12.293 6.05859 12.4961C5.78906 12.6992 5.46484 12.8535 5.08594 12.959C4.71094 13.0645 4.29102 13.1172 3.82617 13.1172C3.41211 13.1172 3.00195 13.0625 2.5957 12.9531C2.19336 12.8398 1.82812 12.6719 1.5 12.4492C1.17188 12.2227 0.910156 11.9375 0.714844 11.5938C0.519531 11.2461 0.421875 10.8398 0.421875 10.375H2.03906C2.03906 10.6445 2.08203 10.875 2.16797 11.0664C2.25781 11.2539 2.38281 11.4082 2.54297 11.5293C2.70703 11.6465 2.89844 11.7324 3.11719 11.7871C3.33594 11.8418 3.57227 11.8691 3.82617 11.8691C4.1543 11.8691 4.42383 11.8242 4.63477 11.7344C4.84961 11.6406 5.00977 11.5117 5.11523 11.3477C5.22461 11.1836 5.2793 10.9961 5.2793 10.7852ZM10.8691 13.1172C10.3887 13.1172 9.95703 13.0391 9.57422 12.8828C9.19141 12.7266 8.86523 12.5098 8.5957 12.2324C8.33008 11.9512 8.125 11.625 7.98047 11.2539C7.83984 10.8789 7.76953 10.4766 7.76953 10.0469V9.8125C7.76953 9.32422 7.83984 8.88086 7.98047 8.48242C8.12109 8.08008 8.32031 7.73438 8.57812 7.44531C8.83594 7.15625 9.14453 6.93359 9.50391 6.77734C9.86328 6.62109 10.2598 6.54297 10.6934 6.54297C11.1426 6.54297 11.5391 6.61914 11.8828 6.77148C12.2266 6.91992 12.5137 7.13086 12.7441 7.4043C12.9746 7.67773 13.1484 8.00586 13.2656 8.38867C13.3828 8.76758 13.4414 9.1875 13.4414 9.64844V10.2988H8.47266V9.23242H11.918V9.11523C11.9102 8.86914 11.8633 8.64453 11.7773 8.44141C11.6914 8.23438 11.5586 8.07031 11.3789 7.94922C11.1992 7.82422 10.9668 7.76172 10.6816 7.76172C10.4512 7.76172 10.25 7.8125 10.0781 7.91406C9.91016 8.01172 9.76953 8.15234 9.65625 8.33594C9.54688 8.51562 9.46484 8.73047 9.41016 8.98047C9.35547 9.23047 9.32812 9.50781 9.32812 9.8125V10.0469C9.32812 10.3125 9.36328 10.5586 9.43359 10.7852C9.50781 11.0117 9.61523 11.209 9.75586 11.377C9.90039 11.541 10.0723 11.6699 10.2715 11.7637C10.4746 11.8535 10.7051 11.8984 10.9629 11.8984C11.2871 11.8984 11.5801 11.8359 11.8418 11.7109C12.1074 11.582 12.3379 11.3926 12.5332 11.1426L13.3125 11.9512C13.1797 12.1465 13 12.334 12.7734 12.5137C12.5508 12.6934 12.2812 12.8398 11.9648 12.9531C11.6484 13.0625 11.2832 13.1172 10.8691 13.1172ZM16.1191 4V13H14.5664V4H16.1191ZM20.4434 13.1172C19.9629 13.1172 19.5312 13.0391 19.1484 12.8828C18.7656 12.7266 18.4395 12.5098 18.1699 12.2324C17.9043 11.9512 17.6992 11.625 17.5547 11.2539C17.4141 10.8789 17.3438 10.4766 17.3438 10.0469V9.8125C17.3438 9.32422 17.4141 8.88086 17.5547 8.48242C17.6953 8.08008 17.8945 7.73438 18.1523 7.44531C18.4102 7.15625 18.7188 6.93359 19.0781 6.77734C19.4375 6.62109 19.834 6.54297 20.2676 6.54297C20.7168 6.54297 21.1133 6.61914 21.457 6.77148C21.8008 6.91992 22.0879 7.13086 22.3184 7.4043C22.5488 7.67773 22.7227 8.00586 22.8398 8.38867C22.957 8.76758 23.0156 9.1875 23.0156 9.64844V10.2988H18.0469V9.23242H21.4922V9.11523C21.4844 8.86914 21.4375 8.64453 21.3516 8.44141C21.2656 8.23438 21.1328 8.07031 20.9531 7.94922C20.7734 7.82422 20.541 7.76172 20.2559 7.76172C20.0254 7.76172 19.8242 7.8125 19.6523 7.91406C19.4844 8.01172 19.3438 8.15234 19.2305 8.33594C19.1211 8.51562 19.0391 8.73047 18.9844 8.98047C18.9297 9.23047 18.9023 9.50781 18.9023 9.8125V10.0469C18.9023 10.3125 18.9375 10.5586 19.0078 10.7852C19.082 11.0117 19.1895 11.209 19.3301 11.377C19.4746 11.541 19.6465 11.6699 19.8457 11.7637C20.0488 11.8535 20.2793 11.8984 20.5371 11.8984C20.8613 11.8984 21.1543 11.8359 21.416 11.7109C21.6816 11.582 21.9121 11.3926 22.1074 11.1426L22.8867 11.9512C22.7539 12.1465 22.5742 12.334 22.3477 12.5137C22.125 12.6934 21.8555 12.8398 21.5391 12.9531C21.2227 13.0625 20.8574 13.1172 20.4434 13.1172ZM26.6543 11.8984C26.873 11.8984 27.0684 11.8555 27.2402 11.7695C27.4121 11.6836 27.5488 11.5625 27.6504 11.4062C27.7559 11.25 27.8125 11.0684 27.8203 10.8613H29.2793C29.2715 11.291 29.1504 11.6758 28.916 12.0156C28.6816 12.3555 28.3691 12.625 27.9785 12.8242C27.5918 13.0195 27.1582 13.1172 26.6777 13.1172C26.1895 13.1172 25.7637 13.0352 25.4004 12.8711C25.0371 12.707 24.7344 12.4785 24.4922 12.1855C24.2539 11.8926 24.0742 11.5527 23.9531 11.166C23.8359 10.7793 23.7773 10.3652 23.7773 9.92383V9.73633C23.7773 9.29492 23.8359 8.88086 23.9531 8.49414C24.0742 8.10742 24.2539 7.76758 24.4922 7.47461C24.7344 7.18164 25.0371 6.95312 25.4004 6.78906C25.7637 6.625 26.1875 6.54297 26.6719 6.54297C27.1836 6.54297 27.6328 6.64258 28.0195 6.8418C28.4102 7.04102 28.7148 7.32227 28.9336 7.68555C29.1562 8.04883 29.2715 8.47656 29.2793 8.96875H27.8203C27.8125 8.74219 27.7617 8.53906 27.668 8.35938C27.5742 8.17969 27.4414 8.03516 27.2695 7.92578C27.0977 7.81641 26.8887 7.76172 26.6426 7.76172C26.3809 7.76172 26.1621 7.81641 25.9863 7.92578C25.8145 8.03516 25.6797 8.18555 25.582 8.37695C25.4883 8.56445 25.4219 8.77539 25.3828 9.00977C25.3477 9.24023 25.3301 9.48242 25.3301 9.73633V9.92383C25.3301 10.1816 25.3477 10.4277 25.3828 10.6621C25.4219 10.8965 25.4883 11.1074 25.582 11.2949C25.6797 11.4785 25.8145 11.625 25.9863 11.7344C26.1621 11.8438 26.3848 11.8984 26.6543 11.8984ZM33.3105 6.66016V7.77344H29.6777V6.66016H33.3105ZM30.6504 5.10156H32.2031V11.1719C32.2031 11.3594 32.2285 11.5039 32.2793 11.6055C32.3301 11.707 32.4062 11.7754 32.5078 11.8105C32.6094 11.8457 32.7305 11.8633 32.8711 11.8633C32.9727 11.8633 33.0664 11.8574 33.1523 11.8457C33.2383 11.834 33.3105 11.8223 33.3691 11.8105L33.375 12.9707C33.2461 13.0137 33.0996 13.0488 32.9355 13.0762C32.7754 13.1035 32.5938 13.1172 32.3906 13.1172C32.043 13.1172 31.7383 13.0586 31.4766 12.9414C31.2148 12.8203 31.0117 12.627 30.8672 12.3613C30.7227 12.0918 30.6504 11.7363 30.6504 11.2949V5.10156Z" fill="#667085"/>
<g clip-path="url(#clip0_2892_1148)">
<path d="M43.25 5.5L46.75 9L43.25 12.5" stroke="#667085" stroke-width="2" stroke-linecap="round" stroke-linejoin="round"/>
</g>
<defs>
<clipPath id="clip0_2892_1148">
<rect width="14" height="14" fill="white" transform="translate(38 2)"/>
</clipPath>
</defs>
</svg>
