<svg width="65" height="64" viewBox="0 0 65 64" fill="none" xmlns="http://www.w3.org/2000/svg">
<path d="M0.666992 32C0.666992 14.3269 14.9939 0 32.667 0C50.3401 0 64.667 14.3269 64.667 32C64.667 49.6731 50.3401 64 32.667 64C14.9939 64 0.666992 49.6731 0.666992 32Z" fill="#E4E7EC"/>
<g clip-path="url(#clip0_1736_10318)">
<path d="M33.9695 18.5849C34.3314 18.1052 34.2732 17.0877 34.2217 16.1902C34.2197 16.1515 34.2176 16.1136 34.2154 16.0752C33.7081 16.0268 33.1946 16 32.6748 16C30.6831 16 28.7774 16.3669 27.0186 17.0321C28.2732 17.635 30.2154 18.6728 32.3742 20.2063C33.1108 19.5724 33.6663 18.9873 33.9695 18.5849Z" fill="#101828"/>
<path d="M42.0762 27.7147C41.2876 27.8038 40.6225 27.9332 40.0537 28.1147C42.7728 32.8621 43.8329 38.8599 44.0923 43.205C46.7861 40.4603 48.4968 36.7499 48.6585 32.64C46.8024 30.3586 44.3436 27.4575 42.0762 27.7147Z" fill="#101828"/>
<path d="M25.9122 23.6166C27.8227 23.2191 29.6175 22.2575 31.0486 21.2426C28.0631 19.1863 25.5729 18.1191 25.0776 17.916C21.9802 19.5904 19.5016 22.2583 18.0596 25.4909C19.9339 24.7441 21.9637 24.3641 23.9575 23.994C24.6025 23.8742 25.2692 23.7504 25.9122 23.6166Z" fill="#101828"/>
<path d="M36.9717 24.0819C37.1422 24.2532 37.3123 24.4276 37.4812 24.6052C38.1044 25.2594 38.6699 25.9751 39.1885 26.7322C39.9438 26.447 40.8328 26.2448 41.8971 26.1245C44.4047 25.8409 46.6345 27.8273 48.5482 30.0142C48.1379 26.6989 46.716 23.6984 44.5974 21.332C43.441 21.4714 42.1517 21.7075 40.8376 22.0996C39.9756 22.3571 38.6028 23.0566 36.9717 24.0819Z" fill="#02A89E"/>
<path d="M34.866 32.3451C35.5223 30.1224 36.2824 28.5201 37.7552 27.48C37.3132 26.8455 36.8375 26.25 36.3223 25.7091C36.0839 25.4587 35.8429 25.217 35.6008 24.9795C29.6921 29.0014 21.5983 36.3894 20.8623 42.7906C23.3191 45.4785 26.6813 47.3219 30.4663 47.8449C31.8444 45.1011 33.1415 39.5232 33.9125 36.2058C34.283 34.6124 34.6027 33.2366 34.866 32.3451Z" fill="#02A89E"/>
<path d="M28.1662 28.82C30.2264 26.9216 32.4021 25.2192 34.392 23.851C33.7287 23.2642 33.0634 22.7232 32.4102 22.2271C30.7573 23.4695 28.5933 24.6932 26.2378 25.1831C25.5781 25.3204 24.9026 25.4459 24.2496 25.5671C21.7334 26.0344 19.318 26.4869 17.2867 27.6203C16.8912 29.0127 16.6748 30.4807 16.6748 32C16.6748 35.3985 17.7378 38.5474 19.5446 41.1386C20.7151 36.5041 24.7299 31.9865 28.1662 28.82Z" fill="#101828"/>
<path d="M35.7706 22.9373C37.6741 21.7238 39.3152 20.8847 40.3799 20.5669C41.336 20.2813 42.2739 20.0733 43.1621 19.9217C41.1097 18.1382 38.6009 16.8671 35.8314 16.313C35.8928 17.4304 35.9195 18.6572 35.2473 19.5485C34.9279 19.9718 34.3876 20.5523 33.6846 21.1821C34.3731 21.7181 35.0728 22.3025 35.7706 22.9373Z" fill="#101828"/>
<path d="M36.4 32.7979C36.1502 33.6441 35.8351 34.999 35.4705 36.5676C34.3941 41.1993 33.364 45.3438 32.1611 47.9868C32.3319 47.9923 32.5026 47.9998 32.6747 47.9998C36.4036 47.9998 39.8315 46.7208 42.5519 44.5824C42.4444 40.0354 41.3544 33.6039 38.6086 28.8296C37.5437 29.6211 36.9705 30.8662 36.4 32.7979Z" fill="#101828"/>
</g>
<defs>
<clipPath id="clip0_1736_10318">
<rect width="32" height="32" fill="white" transform="translate(16.667 16)"/>
</clipPath>
</defs>
</svg>
