<svg width="33" height="22" viewBox="0 0 33 22" fill="none" xmlns="http://www.w3.org/2000/svg">
<path d="M29.4005 7.09619C28.8654 7.09619 28.4317 7.52994 28.4317 8.06494V14.6553C28.4317 15.1903 27.998 15.6241 27.463 15.6241H5.87105C5.33599 15.6241 4.9023 15.1903 4.9023 14.6553V8.065C4.9023 7.52994 4.46855 7.09625 3.93355 7.09625H1.84699C1.1953 7.09625 0.666992 7.62457 0.666992 8.27625V18.2639C0.666992 18.799 1.10074 19.2327 1.63574 19.2327H4.79199V20.3604C4.79199 20.8669 5.18112 21.3041 5.68705 21.3264C6.22412 21.3501 6.66699 20.9216 6.66699 20.3898V19.2327H26.667V20.3604C26.667 20.8669 27.0561 21.3041 27.5621 21.3264C28.0991 21.3501 28.542 20.9217 28.542 20.3899V19.2328H31.6982C32.2333 19.2328 32.667 18.799 32.667 18.264V8.27619C32.667 7.6245 32.1387 7.09619 31.487 7.09619H29.4005Z" fill="#101828"/>
<path d="M6.77791 8.27624V10.0077H15.7305V1.48905C15.1959 0.983801 14.4763 0.672363 13.6871 0.672363H7.38816C5.74866 0.672363 4.40723 2.0138 4.40723 3.6533V5.29936C5.76323 5.61118 6.77791 6.82705 6.77791 8.27624Z" fill="#101828"/>
<path d="M15.7309 11.8828H6.77832V12.3467V13.7491H15.7342C15.7327 13.7276 15.7309 13.7061 15.7309 13.6841V12.3467V11.8828Z" fill="#02A89E"/>
<path d="M26.5583 8.2763C26.5583 6.82674 27.5733 5.61068 28.9297 5.29924V3.6533C28.9297 2.0138 27.5883 0.672363 25.9488 0.672363H19.6499C18.8607 0.672363 18.1411 0.983738 17.6064 1.48905V10.0077H26.5583V8.2763Z" fill="#101828"/>
<path d="M26.5576 12.3467V11.8828H17.6058V12.3467V13.6841C17.6058 13.7061 17.604 13.7276 17.6025 13.7491H26.5577V12.3467H26.5576Z" fill="#02A89E"/>
</svg>
