<svg width="33" height="32" viewBox="0 0 33 32" fill="none" xmlns="http://www.w3.org/2000/svg">
<path d="M17.6355 2.58487C17.9974 2.10517 17.9392 1.0877 17.8877 0.190165C17.8858 0.151477 17.8836 0.113641 17.8814 0.075215C17.3741 0.0267736 16.8606 0 16.3408 0C14.3492 0 12.4434 0.36691 10.6846 1.03206C11.9393 1.63503 13.8814 2.67285 16.0402 4.20628C16.7768 3.57242 17.3323 2.98726 17.6355 2.58487Z" fill="#101828"/>
<path d="M25.7422 11.7147C24.9536 11.8038 24.2885 11.9332 23.7197 12.1147C26.4388 16.8621 27.4989 22.8599 27.7584 27.205C30.4521 24.4603 32.1628 20.7499 32.3245 16.64C30.4685 14.3586 28.0096 11.4575 25.7422 11.7147Z" fill="#101828"/>
<path d="M9.57818 7.61664C11.4887 7.21909 13.2836 6.25753 14.7147 5.24256C11.7291 3.18629 9.23896 2.11914 8.74362 1.91602C5.64619 3.59045 3.16757 6.25832 1.72559 9.49086C3.59987 8.74408 5.62976 8.36414 7.62351 7.99396C8.2685 7.87417 8.93522 7.75038 9.57818 7.61664Z" fill="#101828"/>
<path d="M20.6377 8.08186C20.8082 8.25324 20.9783 8.42756 21.1472 8.60516C21.7704 9.25944 22.336 9.97506 22.8545 10.7322C23.6098 10.447 24.4989 10.2448 25.5631 10.1245C28.0708 9.84087 30.3005 11.8273 32.2143 14.0142C31.8039 10.6989 30.3821 7.69839 28.2634 5.33203C27.107 5.4714 25.8177 5.70752 24.5036 6.09963C23.6416 6.35709 22.2689 7.05661 20.6377 8.08186Z" fill="#02A89E"/>
<path d="M18.532 16.3451C19.1883 14.1224 19.9484 12.5201 21.4212 11.48C20.9792 10.8455 20.5035 10.25 19.9883 9.70906C19.75 9.45873 19.5089 9.21699 19.2668 8.97949C13.3581 13.0014 5.2643 20.3894 4.52832 26.7906C6.98508 29.4785 10.3473 31.3219 14.1323 31.8449C15.5104 29.1011 16.8075 23.5232 17.5785 20.2058C17.949 18.6124 18.2687 17.2366 18.532 16.3451Z" fill="#02A89E"/>
<path d="M11.8322 12.82C13.8924 10.9216 16.0681 9.21922 18.058 7.85101C17.3947 7.26415 16.7294 6.72318 16.0762 6.22705C14.4234 7.4695 12.2593 8.69324 9.90379 9.18315C9.24414 9.32042 8.56864 9.44591 7.9156 9.56714C5.3994 10.0344 2.98401 10.4869 0.952752 11.6203C0.55717 13.0127 0.34082 14.4807 0.34082 16C0.34082 19.3985 1.40378 22.5474 3.21058 25.1386C4.38109 20.5041 8.39596 15.9865 11.8322 12.82Z" fill="#101828"/>
<path d="M19.4366 6.93727C21.3401 5.72375 22.9812 4.88467 24.0459 4.56686C25.002 4.28131 25.9399 4.07334 26.8281 3.92167C24.7757 2.13818 22.2669 0.867052 19.4974 0.312988C19.5588 1.43041 19.5856 2.65722 18.9133 3.54854C18.594 3.97181 18.0536 4.55232 17.3506 5.18213C18.0391 5.71806 18.7388 6.30249 19.4366 6.93727Z" fill="#101828"/>
<path d="M20.066 16.7979C19.8162 17.6441 19.5011 18.999 19.1365 20.5676C18.0601 25.1993 17.0301 29.3438 15.8271 31.9868C15.9979 31.9923 16.1687 31.9998 16.3408 31.9998C20.0696 31.9998 23.4975 30.7208 26.2179 28.5824C26.1105 24.0354 25.0204 17.6039 22.2746 12.8296C21.2097 13.6211 20.6365 14.8662 20.066 16.7979Z" fill="#101828"/>
</svg>
